<?xml version="1.0" encoding="UTF-8" standalone="no"?>
<!-- Created with Inkscape (http://www.inkscape.org/) -->

<svg
   xmlns:dc="http://purl.org/dc/elements/1.1/"
   xmlns:cc="http://creativecommons.org/ns#"
   xmlns:rdf="http://www.w3.org/1999/02/22-rdf-syntax-ns#"
   xmlns:svg="http://www.w3.org/2000/svg"
   xmlns="http://www.w3.org/2000/svg"
   xmlns:sodipodi="http://sodipodi.sourceforge.net/DTD/sodipodi-0.dtd"
   xmlns:inkscape="http://www.inkscape.org/namespaces/inkscape"
   version="1.1"
   id="svg3807"
   xml:space="preserve"
   width="189.83771"
   height="52.512936"
   viewBox="0 0 189.8377 52.512936"
   sodipodi:docname="0.svg"
   inkscape:version="0.92.2 5c3e80d, 2017-08-06"><metadata
     id="metadata3813"><rdf:RDF><cc:Work
         rdf:about=""><dc:format>image/svg+xml</dc:format><dc:type
           rdf:resource="http://purl.org/dc/dcmitype/StillImage" /><dc:title /></cc:Work></rdf:RDF></metadata><defs
     id="defs3811" /><sodipodi:namedview
     pagecolor="#ffffff"
     bordercolor="#666666"
     borderopacity="1"
     objecttolerance="10"
     gridtolerance="10"
     guidetolerance="10"
     inkscape:pageopacity="0"
     inkscape:pageshadow="2"
     inkscape:window-width="1436"
     inkscape:window-height="850"
     id="namedview3809"
     showgrid="false"
     fit-margin-top="0"
     fit-margin-left="0"
     fit-margin-right="0"
     fit-margin-bottom="0"
     inkscape:zoom="3.5757576"
     inkscape:cx="30.873026"
     inkscape:cy="3.7474552"
     inkscape:window-x="0"
     inkscape:window-y="0"
     inkscape:window-maximized="0"
     inkscape:current-layer="g3817" /><g
     id="g3815"
     inkscape:groupmode="layer"
     inkscape:label="Button Bush_Frog Fruit"
     transform="matrix(1.3333333,0,0,-1.3333333,-377.12697,576.76548)"><g
       id="g3817"
       transform="matrix(610.6,0,0,789.1,0.69999915,-5.311865)"><path
         style="fill:#000000;stroke-width:0.00051864"
         d="M 0.69362291,0.549366 C 0.66693561,0.5325062 0.64232581,0.5084132 0.60058401,0.5054425 c -0.003915,-0.00159 -0.0177437,0.003029 -0.017943,0.002748 0.001628,-0.002683 -0.007693,-0.005344 -0.0095,-0.001502 -0.0429643,-0.002048 -0.0755762,0.0184145 -0.10268238,0.0354657 l -0.002067,0.001688 0.001864,0.006932 c 0.008176,-2.0285e-4 0.0168086,0.001359 0.0249278,5.2658e-4 0.028842,-0.006308 0.0522505,-0.0192716 0.0702921,-0.03385 l 0.004398,-0.004356 c 0.003413,0.001017 0.012645,-0.002762 0.013153,-0.001865 0.008165,0.0249117 0.0543735,0.0373936 0.0921392,0.0419888 l 0.0117681,0.001315 c 0.004652,0.002837 0.0123348,-0.002903 0.006689,-0.005168 z M 0.66896501,0.545861 C 0.63821251,0.542348 0.60219651,0.530166 0.59041711,0.5114669 c 0.0293327,-0.004205 0.0514878,0.0128789 0.0710456,0.0233805 0.005005,0.003454 0.009706,0.007057 0.014499,0.010615 -0.002317,2.0713e-4 -0.004622,4.8462e-4 -0.006997,3.986e-4 z m 0.003518,0.001025 c 0.001146,-6.8364e-4 0.005858,7.4138e-4 0,0 z M 0.55978976,0.51418077 c -0.0195507,0.014986 -0.0472486,0.0339811 -0.082146,0.0310959 0.0228873,-0.0146172 0.0478485,-0.030085 0.0828626,-0.0330229 z"
         id="path3821"
         inkscape:connector-curvature="0" /><path
         style="fill:#008000;stroke-width:2.23728824"
         d="M 59.862922,41.181524 C 50.631641,38.391279 28.562026,25.985811 19.916489,18.727387 l -7.830508,-6.574161 6.711864,-0.05842 c 9.49266,-0.08262 31.756923,11.097608 43.627119,21.907813 9.875611,8.993733 9.249195,10.748966 -2.562042,7.178905 z"
         id="path3880"
         inkscape:connector-curvature="0"
         transform="matrix(0.0012283,0,0,-9.504499e-4,0.46839163,0.55530447)" /><path
         style="fill:#008000;stroke-width:2.23728824"
         d="m 107.29117,37.571248 c 12.88232,-13.401729 41.84345,-26.956533 53.71725,-25.141521 3.84545,0.587811 1.88089,2.876462 -10.58483,12.330959 -18.1721,13.782455 -32.56011,20.714981 -43.13242,20.782357 l -7.710071,0.04914 z"
         id="path3882"
         inkscape:connector-curvature="0"
         transform="matrix(0.0012283,0,0,-9.504499e-4,0.46839163,0.55530447)" /><path
         style="fill:#008000;stroke-width:0.27966103"
         d="M 70.171574,44.504378 C 51.115268,41.163987 35.623821,33.128384 13.101388,14.901372 8.9570518,11.547434 8.2147751,10.838108 8.6649017,10.661831 c 0.8073178,-0.316159 7.7644163,-0.292365 10.4758733,0.03583 14.784002,1.789452 29.092712,9.069015 44.456704,22.617367 7.419158,6.542399 11.188502,10.458781 11.188502,11.624948 0,0.257282 -1.433825,0.121929 -4.614407,-0.435598 z m -1.416511,-1.645956 c 0.413882,-0.157357 0.717358,-0.492002 0.717358,-0.791035 0,-2.02733 -8.130716,-9.78541 -15.661017,-14.943263 -8.741767,-5.987644 -19.861019,-11.50081 -28.415989,-14.089263 -2.232438,-0.675463 -3.04032,-0.765345 -7.905257,-0.879508 -3.666871,-0.08605 -5.361322,-0.03431 -5.241212,0.160029 0.225594,0.365019 7.873463,6.791466 10.109203,8.494686 8.620427,6.567175 28.269536,17.380549 36.636605,20.162002 2.158681,0.717604 4.927325,1.485674 6.152542,1.706818 2.813169,0.507761 2.752415,0.504738 3.607767,0.179534 z"
         id="path3884"
         inkscape:connector-curvature="0"
         transform="matrix(0.0012283,0,0,-9.504499e-4,0.46839163,0.55530447)" /><path
         style="fill:#008000;stroke-width:0.27966103"
         d="m 102.62776,46.467627 c -1.3758,-0.14143 -2.61237,-0.368068 -2.747935,-0.503639 -0.142213,-0.14221 2.276595,-0.308343 5.717545,-0.392694 4.79261,-0.117492 6.43093,-0.262915 8.34115,-0.740392 11.19066,-2.797211 23.29032,-9.634957 39.98216,-22.594678 7.52579,-5.843095 9.9083,-8.481629 8.55331,-9.472423 -1.49493,-1.093121 -7.89724,-0.619447 -13.71767,1.014899 -8.90902,2.501607 -20.58918,8.0055 -29.22458,13.77113 -5.62658,3.756722 -8.50954,6.159106 -13.63347,11.360813 -2.8071,2.849707 -5.10381,5.080868 -5.10381,4.958133 0,-0.122735 0.76465,-1.339573 1.69922,-2.704087 8.28424,-12.09532 26.8538,-23.070393 48.29572,-28.543986 8.28606,-2.115226 14.04058,-2.8773667 16.9637,-2.246708 0.80115,0.172848 0.71039,0.280678 -4.20853,5.000103 -5.41393,5.194347 -5.80538,5.517723 -14.22893,11.754604 -11.35402,8.406631 -15.7798,11.28749 -22.04001,14.346419 -8.3654,4.087595 -16.81054,5.798187 -24.64787,4.992506 z"
         id="path3886"
         inkscape:connector-curvature="0"
         transform="matrix(0.0012283,0,0,-9.504499e-4,0.46839163,0.55530447)" /><path
         style="fill:#008000;stroke-width:0.27966103"
         d=""
         id="path3888"
         inkscape:connector-curvature="0"
         transform="matrix(0.0012283,0,0,-9.504499e-4,0.46839163,0.55530447)" /><path
         style="fill:#008000;stroke-width:0.27966103"
         d="M 70.031743,44.358706 C 58.243556,42.127086 48.61452,38.533929 38.010557,32.409725 31.74535,28.791323 22.173919,22.015961 14.271511,15.605485 11.981985,13.748209 9.8111163,11.99789 9.4473585,11.715887 9.0836007,11.433884 8.7859807,11.087804 8.7859807,10.946819 c 0,-0.145504 2.1008813,-0.256335 4.8590183,-0.256335 17.749257,0 34.640925,8.408235 54.962772,27.359042 3.125176,2.914333 5.898549,5.96789 5.898549,6.494461 0,0.368557 -1.982688,0.286459 -4.474577,-0.185281 z M 68.931484,42.841662 C 69.870687,42.339016 69.564603,41.321109 67.825187,39.162584 63.849283,34.228686 55.382783,27.57784 46.543907,22.445099 36.349838,16.525399 24.775326,11.957867 20.391913,12.125004 c -0.461441,0.01759 -0.0839,0.140799 0.838983,0.273789 4.502569,0.648833 10.284341,2.777263 18.177966,6.691814 10.310131,5.112926 17.814144,10.203905 25.089713,17.021719 2.267883,2.125195 4.694185,5.119996 4.694185,5.794066 0,0.870011 -1.269736,1.057776 -3.796191,0.561372 C 58.581303,41.12868 49.982157,37.365816 38.010557,30.484034 28.492054,25.012397 24.328462,22.162378 17.095595,16.167544 l -4.414961,-3.659264 2.457334,-0.156898 2.457335,-0.156898 -2.75,-0.05285 c -1.5125,-0.02907 -2.708051,0.05837 -2.65678,0.194304 0.113456,0.300802 3.454876,3.186006 7.766321,6.705957 5.341951,4.361278 13.452776,9.472667 23.947645,15.09165 8.258247,4.421488 13.571714,6.672966 19.27756,8.168487 3.273692,0.858045 4.875627,1.008346 5.751435,0.539628 z"
         id="path3892"
         inkscape:connector-curvature="0"
         transform="matrix(0.0012283,0,0,-9.504499e-4,0.46839163,0.55530447)" /><path
         style="fill:#008000;stroke-width:0.27966103"
         d="M 86.04894,51.933103 85.062746,50.94691 82.651058,51.125465 C 79.615671,51.350198 72.141685,50.83997 67.852717,50.115223 51.529382,47.356924 36.337546,40.138009 17.874964,26.366599 12.040154,22.014361 2.2520384,14.179951 1.0444595,12.895459 L 0.1546332,11.948958 0.88205041,8.4239195 1.6094676,4.8988807 5.687131,4.7259767 C 7.9298457,4.6308796 11.61535,4.4218199 13.87714,4.2613993 19.346713,3.8734628 21.570661,4.1552456 26.684286,5.8841142 44.396429,11.872424 60.179593,21.700664 74.934453,35.929689 c 1.994825,1.92373 4.496021,4.61665 5.558218,5.984268 l 1.931266,2.486575 1.564497,0.04357 c 0.903064,0.02514 3.101535,0.509151 5.200089,1.144824 1.999576,0.605689 3.769587,1.051044 3.933357,0.989675 0.163769,-0.06137 0.586989,-1.019454 0.940489,-2.129082 2.878386,-9.035201 10.389341,-17.642037 21.268371,-24.371531 14.01652,-8.670266 34.24331,-15.1543425 57.19677,-18.3354922 2.3072,-0.3197584 5.00074,-0.84251535 5.98564,-1.16168207 1.51159,-0.48984498 1.95646,-0.53064874 2.85392,-0.26176243 2.03035,0.60830598 3.79375,2.7388866 3.42716,4.1407526 -0.0819,0.3131203 -1.80569,1.952473 -3.83068,3.6430065 -2.02499,1.6905333 -6.4272,5.5485426 -9.78267,8.5733546 -15.03277,13.551364 -21.20668,18.5191 -29.36024,23.62425 -10.1044,6.326623 -19.96902,10.026905 -31.09822,11.665143 -6.3138,0.9294 -6.95954,0.873275 -13.247342,-1.151401 -2.136431,-0.687933 -4.02543,-1.250787 -4.197776,-1.250787 -0.172344,0 -0.313355,0.291074 -0.313355,0.646831 0,0.750188 -1.187485,1.981711 -2.325409,2.411648 -0.433,0.163599 -1.420902,0.297453 -2.195339,0.297453 -1.238342,0 -1.526938,-0.118872 -2.394259,-0.986194 z m 27.60992,-5.632957 c 9.9331,-1.629979 18.38952,-6.046565 34.67797,-18.111474 3.76843,-2.791291 7.41801,-5.482796 8.11017,-5.981124 1.37578,-0.990509 12.58474,-11.51177 12.58474,-11.812639 0,-0.2456 -2.50671,-0.5379332 -4.6388,-0.5409776 -3.55616,-0.00508 -14.18247,2.3751406 -21.65713,4.8510486 -20.6409,6.83709 -35.75396,17.395121 -42.755918,29.869414 l -0.888592,1.583066 0.8588,0.188623 c 3.33674,0.732871 9.07999,0.713625 13.70876,-0.04594 z m -38.593218,-1.22034 c 0,-1.004274 -1.217043,-2.535228 -4.661555,-5.863899 C 50.333971,19.820749 33.039596,10.781577 14.938523,10.225971 c -2.537924,-0.0779 -5.291039,-0.03672 -6.1180341,0.09152 l -1.5036277,0.23316 4.3002378,3.505364 c 8.145074,6.639505 12.589449,9.978624 18.842611,14.156709 13.60946,9.093237 26.962238,14.573795 40.764525,16.731526 2.955357,0.462016 3.841407,0.493282 3.841407,0.135554 z M 168.44912,8.8400182 c 0.0641,-0.058939 0.0385,-0.1851919 -0.0569,-0.2805621 -0.28523,-0.2852299 -2.18888,0.175402 -1.99842,0.4835646 0.15357,0.2484847 1.73411,0.092374 2.0553,-0.2030025 z"
         id="path3894"
         inkscape:connector-curvature="0"
         transform="matrix(0.0012283,0,0,-9.504499e-4,0.46839163,0.55530447)" /><path
         style="fill:#008000;stroke-width:0.27966103"
         d="M 87.230896,52.666445 C 86.923269,52.531528 86.366481,52.092762 85.993589,51.691406 L 85.315601,50.96167 h -4.675856 c -7.282997,0 -12.576684,-0.652712 -19.644081,-2.422119 C 45.297178,44.609254 30.28592,36.27019 10.044455,20.235103 2.8241313,14.515235 0.39624958,12.37611 0.39338255,11.731869 0.3889106,10.726991 1.599801,5.2525711 1.8671289,5.0690802 2.1026464,4.9074238 5.329727,4.7348959 15.231305,4.3545972 c 5.351675,-0.2055464 6.756579,0.019764 12.5968,2.0201926 13.7696,4.7164522 27.080253,12.3951002 39.546451,22.8135532 3.899951,3.259332 11.248514,10.497378 13.29335,13.093432 l 1.709205,2.169946 1.86757,0.165666 c 1.027164,0.09112 3.377741,0.592965 5.223503,1.115218 1.845763,0.522256 3.487854,0.901943 3.649093,0.843748 0.161238,-0.05819 0.76051,-1.394636 1.331712,-2.969877 2.013719,-5.553349 5.16995,-10.198532 10.298971,-15.157518 5.35922,-5.181547 10.07504,-8.389768 18.27955,-12.435749 13.60876,-6.7110471 28.87155,-11.1053699 49.12393,-14.1433131 2.5618,-0.3842819 5.26752,-0.88367171 6.01271,-1.10975504 2.61186,-0.79241711 4.03553,-0.44050754 5.64811,1.39612694 1.6789,1.9121629 1.73686,1.8312024 -6.4606,9.0258022 -4.03761,3.543654 -8.9142,7.851542 -10.83687,9.573084 -13.59614,12.173867 -22.26139,18.570727 -31.5969,23.325443 -6.79382,3.460204 -12.54926,5.496435 -19.72089,6.977114 -8.45863,1.746394 -11.37888,1.710488 -17.474783,-0.214855 -2.228076,-0.703719 -4.184892,-1.279491 -4.34848,-1.279491 -0.163585,0 -0.454267,0.433732 -0.645961,0.963846 -0.197527,0.546254 -0.738154,1.204651 -1.247817,1.519639 -1.027189,0.634836 -3.419051,0.983618 -4.249063,0.619595 z m 26.707624,-6.359268 c 7.70221,-1.284282 15.06404,-4.637994 25.02966,-11.40237 7.432,-5.044618 17.79179,-12.81 20.96395,-15.71393 5.71777,-5.234284 9.24074,-8.717322 9.03396,-8.931542 -0.11302,-0.117079 -1.43587,-0.2721183 -2.93966,-0.3445312 -3.54132,-0.1705264 -7.20022,0.4044042 -14.75316,2.3181952 -24.0637,6.097345 -42.31859,17.420935 -50.91735,31.584266 -1.488542,2.451828 -1.459048,2.548235 0.85562,2.796977 0.77039,0.08279 1.77825,0.203358 2.2397,0.267932 1.54366,0.216013 7.80085,-0.127056 10.48728,-0.574997 z M 75.065642,44.851088 c 0,-0.850827 -1.390041,-2.504775 -5.206097,-6.194503 C 53.332642,22.676786 38.090353,13.699238 22.81247,10.946352 17.855256,10.053123 7.0206054,9.8703011 7.5262272,10.688414 c 0.1622118,0.262465 7.0904408,5.902927 11.2385198,9.149591 17.63989,13.806577 33.468869,21.611617 50.288183,24.796377 4.62453,0.87566 6.012712,0.925692 6.012712,0.216706 z M 168.42872,8.8697738 c 0.32177,-0.3217601 -0.28333,-0.4699382 -1.2095,-0.2961876 -0.59373,0.1113829 -0.92592,0.3067915 -0.81811,0.4812357 0.16847,0.2725847 1.71074,0.1318313 2.02761,-0.1850481 z"
         id="path3896"
         inkscape:connector-curvature="0"
         transform="matrix(0.0012283,0,0,-9.504499e-4,0.46839163,0.55530447)" /><path
         style="fill:#008000;stroke-width:0.27966103"
         d=""
         id="path3898"
         inkscape:connector-curvature="0"
         transform="matrix(0.0012283,0,0,-9.504499e-4,0.46839163,0.55530447)" /><path
         style="fill:#008000;stroke-width:0.27966103"
         d="M 86.288908,51.940484 85.205479,50.96167 h -4.760627 c -7.31216,0 -13.126654,-0.727644 -19.923398,-2.493278 C 44.460597,44.296162 29.226052,35.649091 8.0868281,18.706695 1.4225139,13.365465 0.39466619,12.409783 0.406097,11.565229 0.41156779,11.161026 0.69472457,9.5089159 1.0353343,7.8938735 L 1.6546247,4.9574328 7.6673366,4.6298398 C 19.333539,3.994226 21.431883,4.139348 26.739309,5.9488621 41.88931,11.114105 56.235814,19.445959 68.773258,30.360439 c 3.769444,3.281489 10.281273,9.80951 12.095224,12.125296 1.535266,1.960004 1.648971,2.043732 2.775376,2.043732 0.645986,0 2.948004,0.452528 5.11559,1.005619 2.167588,0.553091 4.099111,0.944974 4.292273,0.87085 0.193165,-0.07412 0.772533,-1.250275 1.287484,-2.61367 2.070901,-5.482941 4.591436,-9.369639 9.101925,-14.035308 5.07199,-5.246474 10.01231,-8.843886 17.49054,-12.736148 13.41953,-6.984579 29.4409,-11.7969693 49.91787,-14.9939836 3.07627,-0.48029 6.30355,-1.05562736 7.17172,-1.27852748 2.91219,-0.74768950307 4.16595,-0.4428614 5.791,1.40796888 1.64946,1.8786251 1.565,2.0141502 -4.6428,7.4498537 -3.03782,2.6599875 -7.72564,6.8032575 -10.41738,9.2072655 -16.99221,15.175855 -24.79455,20.906637 -35.55329,26.113721 -7.277,3.52197 -13.19267,5.410529 -21.15196,6.752695 -6.2176,1.048469 -8.80716,0.898923 -14.444451,-0.834167 -2.293992,-0.705249 -4.276089,-1.282271 -4.404661,-1.282271 -0.128574,0 -0.233771,0.238386 -0.233771,0.529745 0,0.814952 -1.445621,2.176233 -2.672916,2.516972 -1.955835,0.543009 -2.819937,0.398436 -4.002123,-0.669598 z M 110.84937,46.62363 c 8.70593,-0.585993 18.17885,-4.738199 30.49593,-13.367095 11.28537,-7.906112 17.93024,-13.275236 25.16949,-20.337219 l 2.65678,-2.591721 -1.25847,-0.217318 c -3.40215,-0.5874958 -8.02484,-0.01707 -15.88016,1.959555 -16.5381,4.161468 -30.46122,10.690473 -40.36451,18.928231 -3.33771,2.776377 -7.89367,7.707108 -9.86714,10.678794 -2.185267,3.290618 -2.607673,4.160246 -2.212649,4.55527 0.334824,0.334824 5.440559,0.770284 7.498189,0.639509 0.76907,-0.04888 2.46221,-0.16048 3.76254,-0.248006 z M 74.911308,45.112258 C 75.417288,44.293564 73.512024,42.044511 67.889686,36.823634 57.966622,27.609125 49.257407,21.298868 40.527506,16.998382 31.468287,12.535669 24.320675,10.645079 14.936614,10.229421 c -3.978897,-0.176241 -7.2692774,0.01807 -7.2692774,0.429284 0,0.287914 8.9927534,7.572551 13.9466884,11.297604 16.44818,12.368014 31.400186,19.571377 46.517215,22.410389 2.045066,0.38407 3.969995,0.751984 4.277622,0.817589 1.04391,0.222625 2.343456,0.18522 2.502446,-0.07203 z M 168.12285,9.0163363 c 0.19226,-0.0021 0.34957,-0.1296662 0.34957,-0.2834798 0,-0.3110963 -0.83344,-0.3715501 -1.51526,-0.1099098 -0.68557,0.2630765 -0.52277,0.756014 0.18687,0.5658373 0.34608,-0.092746 0.78655,-0.1703474 0.97882,-0.1724477 z"
         id="path3900"
         inkscape:connector-curvature="0"
         transform="matrix(0.0012283,0,0,-9.504499e-4,0.46839163,0.55530447)" /><path
         style="fill:#008000;stroke-width:0.27966103"
         d="M 86.288908,51.940484 85.205479,50.96167 80.205476,50.95687 C 72.810973,50.949656 67.777651,50.328621 60.94276,48.580094 49.355051,45.615681 38.978139,40.722587 26.284306,32.237361 19.493962,27.698336 8.6725074,19.466944 2.4236925,14.087669 0.05838425,12.0515 0.04654333,11.995797 1.0476204,7.6142125 L 1.6546247,4.9574328 7.6673366,4.6011405 C 16.407386,4.0832354 21.402632,4.2657536 24.586828,5.2193507 31.369176,7.250515 42.013415,11.994066 48.854564,16.034142 c 12.490911,7.376574 23.774047,16.712129 32.327488,26.747443 1.372397,1.610163 1.57886,1.747882 2.620373,1.747882 0.621829,0 2.945564,0.457629 5.163854,1.016951 2.299225,0.579731 4.129668,0.910377 4.257504,0.769068 0.123333,-0.136335 0.572785,-1.19174 0.998778,-2.345341 2.039686,-5.523523 5.327037,-10.446402 10.113549,-15.145261 4.19061,-4.11387 6.83528,-6.171745 11.69987,-9.103914 13.7676,-8.29853 31.61297,-14.0719296 54.74374,-17.7108954 2.96086,-0.4658061 6.11717,-1.03144908 7.01402,-1.25698439 0.89685,-0.22553531 2.0924,-0.40941945 2.65678,-0.40863139 1.94815,0.002721 4.23625,1.99315508 4.2404,3.68874658 0.001,0.6245426 -0.77712,1.4388207 -4.54265,4.7505634 -2.49947,2.1982532 -7.31371,6.4525032 -10.69831,9.4538882 -13.33349,11.823832 -17.80927,15.4564 -24.84156,20.161523 -8.99056,6.015354 -18.86374,10.401253 -27.93297,12.408478 -9.11971,2.0184 -12.65482,2.027268 -19.129556,0.04799 -2.325065,-0.710756 -4.307163,-1.292283 -4.404661,-1.292283 -0.0975,0 -0.177266,0.223693 -0.177266,0.497095 0,1.385219 -2.248212,2.841549 -4.403856,2.852696 -0.96931,0.005 -1.387009,-0.173874 -2.271183,-0.972672 z m 29.285442,-5.990941 c 7.01568,-1.542724 13.89619,-4.779588 22.83451,-10.742255 5.7156,-3.81282 16.2045,-11.554535 19.68581,-14.529837 3.04366,-2.60126 10.65741,-9.865322 10.65741,-10.16793 0,-0.449016 -3.66067,-0.7723425 -5.91706,-0.5226206 -4.6637,0.5161446 -12.85441,2.4456566 -19.67192,4.6341766 -11.69505,3.75428 -22.98389,9.566334 -30.77122,15.842545 -2.99898,2.417032 -7.07556,6.524349 -9.1457,9.214643 -1.45748,1.894119 -3.85003,5.753027 -3.85003,6.20968 0,0.292517 0.326032,0.410923 1.95763,0.710966 0.38453,0.07071 3.15318,0.0829 6.15254,0.02707 4.17341,-0.07767 6.06708,-0.236442 8.06803,-0.676444 z M 74.920735,45.097002 C 75.427397,44.277207 71.853167,40.341716 65.164025,34.354146 49.870928,20.665025 35.43847,12.875585 21.640852,10.86396 16.022484,10.04483 7.4496515,9.9413691 7.7223652,10.695986 7.829519,10.992487 15.053703,16.883821 19.520348,20.31726 37.994093,34.517734 52.62315,41.552864 70.451235,44.809981 c 3.269145,0.597258 4.239261,0.659558 4.4695,0.287021 z M 168.47242,8.7011153 c 0,-0.2866998 -0.43683,-0.3105899 -1.32524,-0.072476 -0.34435,0.092293 -0.57013,0.2583637 -0.50172,0.3690445 0.17192,0.2781716 1.82696,0.00951 1.82696,-0.2965685 z"
         id="path3902"
         inkscape:connector-curvature="0"
         transform="matrix(0.0012283,0,0,-9.504499e-4,0.46839163,0.55530447)" /><path
         style="fill:#000000;stroke-width:0.27966103"
         d="M 86.216896,51.976868 84.982631,51.034435 78.416084,50.8844 C 71.21648,50.719898 68.247036,50.353914 62.03119,48.864956 45.299172,44.856936 30.157097,36.392198 7.9140807,18.612355 1.3694884,13.380968 0.39619504,12.469719 0.39593208,11.573466 0.39581216,11.164733 -6.5289029,3.7141599 -4.8880884,3.957281 L 1.5175446,4.766448 7.9066215,4.5813542 C 16.235815,4.3400546 19.835696,4.1674027 22.306112,4.6776812 c 7.784143,1.607859 22.201712,8.2514038 32.262587,14.8664428 8.666197,5.698036 18.485803,14.004828 24.152177,20.431276 4.102904,4.65326 3.989054,4.554067 5.226872,4.554067 0.602043,0 2.843482,0.440466 4.980973,0.978813 2.137491,0.538348 3.968622,0.978814 4.069182,0.978814 0.100561,0 0.595306,-1.038242 1.099435,-2.307204 2.772324,-6.978311 6.221892,-11.884091 12.129692,-17.250159 11.04,-10.027663 30.16243,-18.2646632 53.29624,-22.9573974 3.90502,-0.7921407 18.80912,-3.37341195 20.47072,-3.54536511 1.59621,-0.16518685 3.31306,0.67638781 4.15327,2.03587231 1.04437,1.6898229 0.84604,2.0688623 -2.74052,5.2376756 -1.80731,1.596804 -6.62097,5.8520286 -10.69703,9.4560556 -12.49203,11.045373 -16.99805,14.817827 -22.23305,18.613554 -12.48169,9.050068 -24.27429,14.106127 -37.74595,16.183519 -4.57091,0.704857 -8.0362,0.468091 -12.453204,-0.850861 -1.922669,-0.574124 -3.836418,-1.145024 -4.252777,-1.268662 -0.682482,-0.202668 -0.806383,-0.123809 -1.258474,0.800952 -0.614114,1.256181 -2.484612,2.284223 -4.156096,2.284223 -0.885435,0 -1.45033,-0.222448 -2.393263,-0.942429 z m 29.164274,-6.036911 c 7.6754,-1.626928 15.9796,-5.721812 26.24379,-12.941073 5.97538,-4.202746 15.19347,-11.200071 17.74217,-13.467838 3.91156,-3.4804 9.38467,-8.894428 9.2355,-9.135797 -0.0737,-0.119194 -1.08777,-0.306097 -2.25356,-0.4153406 -2.44982,-0.2295668 -6.3054,0.2816016 -11.96502,1.5863106 -21.62066,4.984196 -39.70967,14.579951 -49.58382,26.302939 -2.81265,3.339284 -5.713466,7.84245 -5.311095,8.244818 0.822705,0.822709 11.754475,0.703006 15.892035,-0.174019 z M 74.920735,45.097002 C 75.413456,44.299764 71.94826,40.475557 65.417337,34.608998 49.953665,20.718387 35.360503,12.852753 21.370726,10.868119 c -4.141948,-0.58759 -8.823614,-0.83104 -11.472364,-0.596573 -2.2468386,0.198891 -2.2590094,0.204202 -1.7573599,0.766889 0.7177497,0.80508 11.0489249,9.071467 14.8821549,11.907808 3.744764,2.770882 11.758635,8.062083 14.9874,9.89551 10.696961,6.074179 21.335099,9.989964 32.440678,11.941067 3.611503,0.634495 4.244055,0.678961 4.4695,0.314182 z M 168.33259,8.7328565 c 0.2073,-0.3354151 -0.61775,-0.3354151 -1.3983,0 -0.47148,0.2025999 -0.41917,0.243436 0.33307,0.2600051 0.49081,0.010811 0.97017,-0.1061915 1.06523,-0.2600051 z"
         id="path3904"
         inkscape:connector-curvature="0"
         transform="matrix(0.0012283,0,0,-9.504499e-4,0.46839163,0.55530447)"
         sodipodi:nodetypes="ccssssscssssssssssssssssscsscssscssccscssssssscccsc" /></g></g></svg>