<?xml version="1.0" encoding="UTF-8" standalone="no"?>
<!-- Created with Inkscape (http://www.inkscape.org/) -->

<svg
   xmlns:dc="http://purl.org/dc/elements/1.1/"
   xmlns:cc="http://creativecommons.org/ns#"
   xmlns:rdf="http://www.w3.org/1999/02/22-rdf-syntax-ns#"
   xmlns:svg="http://www.w3.org/2000/svg"
   xmlns="http://www.w3.org/2000/svg"
   xmlns:sodipodi="http://sodipodi.sourceforge.net/DTD/sodipodi-0.dtd"
   xmlns:inkscape="http://www.inkscape.org/namespaces/inkscape"
   version="1.1"
   id="svg3944"
   xml:space="preserve"
   width="429.41006"
   height="115.56281"
   viewBox="0 0 429.41006 115.56281"
   sodipodi:docname="1.svg"
   inkscape:version="0.92.2 5c3e80d, 2017-08-06"><metadata
     id="metadata3950"><rdf:RDF><cc:Work
         rdf:about=""><dc:format>image/svg+xml</dc:format><dc:type
           rdf:resource="http://purl.org/dc/dcmitype/StillImage" /><dc:title></dc:title></cc:Work></rdf:RDF></metadata><defs
     id="defs3948" /><sodipodi:namedview
     pagecolor="#ffffff"
     bordercolor="#666666"
     borderopacity="1"
     objecttolerance="10"
     gridtolerance="10"
     guidetolerance="10"
     inkscape:pageopacity="0"
     inkscape:pageshadow="2"
     inkscape:window-width="1346"
     inkscape:window-height="830"
     id="namedview3946"
     showgrid="false"
     inkscape:zoom="1.2642212"
     inkscape:cx="117.08391"
     inkscape:cy="58.5865"
     inkscape:window-x="0"
     inkscape:window-y="0"
     inkscape:window-maximized="0"
     inkscape:current-layer="g3952"
     fit-margin-top="0"
     fit-margin-left="0"
     fit-margin-right="0"
     fit-margin-bottom="0" /><g
     id="g3952"
     inkscape:groupmode="layer"
     inkscape:label="Button Bush_Frog Fruit"
     transform="matrix(1.3333333,0,0,-1.3333333,-328.37678,309.71154)"><g
       inkscape:groupmode="layer"
       id="layer1"
       inkscape:label="bbff2"><path
         style="fill:#000000;stroke-width:0.36000654"
         d="m 397.85742,145.8838 c -0.3254,-0.55249 0.94818,-0.11145 0,0 z m 34.35205,11.36865 c 7.43056,-8.2574 -19.92522,-7.17513 -6.54523,-3.48705 2.1765,1.1716 4.32847,2.3929 6.54523,3.48705 z m 36.4292,16.35059 c -5.44935,-6.8006 24.34912,-7.83471 7.06967,-2.71471 -2.46632,0.64013 -4.72118,1.77548 -7.06967,2.71471 z m -31.9292,0.81739 c -2.47642,-8.00789 -3.50283,-16.26831 -13.30698,-18.19957 -5.13218,-4.38456 -19.19092,-7.91606 -8.39322,1.16197 6.2653,6.7343 13.73103,12.48531 21.7002,17.0376 z m 55.63184,8.20605 c -0.6775,-6.26526 13.79338,-5.32933 3.5662,-8.67822 -18.17163,-9.72995 -37.85002,-16.19984 -57.94314,-20.56978 -8.61225,5.59399 5.14986,9.22795 9.26806,11.58192 3.89681,4.44017 2.45638,-7.42273 8.25023,-0.78562 -5.71978,6.17704 14.00543,9.14649 19.7452,12.62054 5.73847,1.83957 11.3317,4.12286 17.11345,5.83116 z m -30.72364,5.47266 c -4.08624,-7.34241 -7.30505,-18.66752 -17.06689,-20.92673 -5.92354,-3.66715 -11.02966,-5.67266 -6.00732,2.94435 1.08168,11.08649 14.59383,12.48493 22.45166,17.81103 h 0.002 l 0.62109,0.17139 z m 67.57618,11.06542 c 1.80254,-2.55368 10.55261,1.44381 2.99201,-3.21521 -10.37572,-5.04222 -19.47504,-17.30844 -31.59146,-15.89833 -13.23496,4.73158 10.16263,7.61106 14.66205,11.5251 4.7754,2.28306 9.2633,5.1249 13.9374,7.58844 z m -215.26172,1.64795 c 13.41125,-8.67381 26.7286,-17.79259 38.37744,-28.72704 -3.69833,-9.41524 1.44805,-9.80842 3.6916,-2.9517 3.65928,-5.81837 24.74334,-13.70977 13.18498,-19.36028 -20.88779,-2.00092 -40.7576,6.85778 -58.54569,16.86913 -3.20133,3.2804 -23.09767,8.83487 -12.22688,11.45102 8.39703,-0.48521 17.93277,5.77582 25.35205,3.9419 4.13017,-4.63477 17.78777,-12.72205 15.83455,-16.01433 -5.16618,-0.91575 -24.50637,-7.71351 -8.56539,-4.84401 10.67398,5.29363 20.16988,0.63921 28.69259,-6.40859 3.75227,-4.58894 14.39284,-5.63711 4.66804,0.35931 -11.28184,7.14076 -23.34043,13.28363 -32.44131,23.31865 -5.04289,7.85698 -24.65366,10.99924 -18.02198,22.36594 z m 186.99609,0.46875 c -3.50105,-2.43005 -13.82217,-12.28755 -10.15576,-14.34955 3.10142,3.735 10.06906,9.54625 10.15576,14.34955 z m -217.56721,5.56688 c 1.12755,-0.4279 -1.55133,-0.22114 0,0 z m 238.25537,1.90136 c -5.16495,-1.59777 -6.07704,-18.4001 -1.0801,-7.69298 0.17507,1.77817 5.11601,7.10853 1.0801,7.69298 z m -258.28564,3.24756 c 18.74605,-4.38231 36.55793,-12.35132 52.05582,-23.82129 8.84422,-5.33771 -11.57931,-6.57246 -16.93568,-7.85691 -8.11142,-6.2011 -20.9238,6.79855 -20.99645,12.59861 4.84494,2.61109 22.88291,-0.39883 20.23682,4.84424 -10.55724,1.9009 -25.28668,-10.18866 -29.19844,4.54979 -1.7574,3.20271 -3.51121,6.44751 -5.16207,9.68556 z m 293.97509,2.82275 c -7.31737,-4.24737 -14.16688,-15.79367 -24.15966,-13.05637 7.64602,5.13555 15.8469,9.14106 24.15966,13.05637 z m -5.56641,0.9419 c -17.16549,-7.0325 -30.86484,-20.35225 -48.76917,-25.66889 -15.39261,-6.20814 -31.67759,-10.17602 -46.61852,-17.4942 4.16999,7.91508 9.61954,18.3971 15.27058,19.73068 25.49328,11.04845 52.71222,18.65564 80.11711,23.43241 z m 14.22364,8.74951 c -7.78827,-6.61026 -19.10083,-4.75422 -28.53169,-7.8954 -39.24241,-8.24746 -77.89548,-21.91512 -111.17063,-44.60931 -7.09437,-5.16282 -13.61643,-14.01396 -19.73712,-20.2467 -4.9693,0.73377 -12.35821,-1.23921 -16.5163,-1.79412 -8.5087,-8.49095 19.00475,0.91265 26.02869,-2.85997 19.94973,0.42149 39.38113,6.16509 58.01896,12.89827 11.19838,4.30187 21.9393,9.66964 32.48109,15.37034 5.33789,0.92996 11.36592,0.59875 5.2349,3.04395 19.24934,11.48333 38.13694,24.0584 54.53072,39.44092 1.90719,1.88762 3.56877,5.79682 -0.33862,6.65202 z m -318.60497,7.771 c -4.81298,-4.93259 7.95766,-11.80756 10.19068,-17.86517 -4.12937,-0.49421 -10.64514,-4.38715 -1.24195,-2.28475 6.72973,0.35792 6.66395,-11.58629 11.4331,-15.32666 14.18159,-21.76294 39.16809,-32.24938 61.4141,-43.71667 15.6252,-5.8132 33.20004,-9.96352 49.56142,-5.27248 1.4822,2.68507 16.44455,-6.92233 11.29188,2.1492 -4.77615,-0.1837 -14.58225,5.59889 -18.73975,11.14013 -16.79657,13.55892 -32.6963,28.33007 -51.10318,39.78675 -16.08358,10.64219 -33.83101,22.1216 -53.84935,21.66146 -7.27035,-4.30319 14.79042,-3.4374 19.3407,-6.86554 8.12839,-4.18235 21.26659,-6.94882 25.37923,-14.58707 -1.26054,-12.84139 -13.95175,4.54473 -20.97602,4.80178 1.05347,7.69377 -3.15206,6.14861 -4.27075,0.66366 -7.97223,5.65302 -21.06145,3.28248 -26.4656,11.71735 -5.53199,6.06712 -0.51426,6.55977 6.99244,4.26982 6.16264,2.80649 -16.10901,6.54684 -18.95701,9.72963 z"
         id="path3958"
         inkscape:connector-curvature="0"
         sodipodi:nodetypes="cccccccccccccccccccccccccccccccccccccccccccccccccccccccccccccccccccccccccccccccccccccccccccccccc" /><path
         style="fill:#008000;stroke-width:0.79100078"
         d="m 385.74378,816.14554 c -5.8174,-2.327 -15.11176,-12.098 -15.11176,-15.88671 0,-1.87202 1.75003,-2.2625 13.27369,-2.96174 10.68064,-0.64809 13.62034,-1.52247 13.62034,-4.05121 0,-0.8548 0.23818,-1.55418 0.52929,-1.55418 1.76115,0 21.90633,12.91176 23.90775,15.32333 2.36632,2.85124 -0.96414,4.29024 -15.83415,6.84153 -4.68094,0.80312 -9.22002,1.83978 -10.08685,2.3037 -1.92122,1.02821 -7.71172,1.01993 -10.29831,-0.0147 z"
         id="path5429"
         inkscape:connector-curvature="0"
         transform="matrix(0.75000002,0,0,-0.75000002,0,792.00002)" /><path
         style="fill:#008000;stroke-width:0.79100078"
         d="m 364.67205,794.89405 c -0.8852,-0.35881 -2.09121,-1.23285 -2.68002,-1.94232 -1.58858,-1.91412 -9.63749,-18.05025 -9.21463,-18.47311 1.15756,-1.15756 25.32051,7.25769 37.51186,13.0643 l 7.63229,3.63517 -5.53701,0.58488 c -3.04535,0.32169 -8.56258,1.32463 -12.26051,2.22877 -6.9552,1.70053 -12.66075,2.03371 -15.45198,0.90231 z"
         id="path5431"
         inkscape:connector-curvature="0"
         transform="matrix(0.75000002,0,0,-0.75000002,0,792.00002)" /><path
         style="fill:#008000;stroke-width:0.79100078"
         d="m 474.01845,855.74244 c -7.85379,-0.89445 -21.93662,-4.64654 -30.68737,-8.17605 -13.28651,-5.35896 -48.4721,-24.1037 -48.82709,-26.0121 -0.30848,-1.65837 2.64906,-2.96856 6.70106,-2.96856 1.53175,0 7.60339,-1.24582 13.49253,-2.7685 5.88913,-1.52268 11.85496,-2.7685 13.2574,-2.7685 1.98955,0 4.09752,1.25896 9.59275,5.72916 8.10767,6.59535 15.34837,13.4632 15.34837,14.55802 0,0.4141 -2.75861,1.56451 -6.13025,2.55646 -7.75896,2.28272 -13.64477,4.80185 -13.64477,5.83997 0,1.17263 6.73158,0.20819 12.72164,-1.82266 9.59341,-3.2525 20.53282,-0.30992 31.18803,8.38924 5.70024,4.6538 9.45782,6.67285 12.41864,6.67285 5.15428,0 2.39292,-2.51512 -13.7538,-12.52734 -16.30443,-10.11002 -24.37132,-16.12201 -31.50049,-23.47631 -2.87971,-2.97064 -9.00671,-7.83341 -13.92785,-11.05401 -9.79742,-6.41186 -12.9725,-9.82469 -12.95407,-13.92407 0.0205,-4.55235 0.94167,-5.19774 4.46083,-3.12521 9.97478,5.87442 32.53586,22.5056 42.73472,31.50242 4.39789,3.87955 4.81514,4.5075 4.15276,6.24969 -0.40501,1.06523 -0.73637,3.36106 -0.73637,5.10184 0,2.95638 0.13762,3.14855 2.08737,2.91476 1.41552,-0.16973 2.53709,-1.09244 3.48458,-2.86674 0.83908,-1.5713 1.614,-2.26568 1.93992,-1.73831 0.2985,0.48298 4.58499,3.86915 9.52553,7.52483 4.94053,3.65568 9.5746,7.54989 10.29791,8.6538 1.57649,2.40603 1.05709,5.17736 -1.2359,6.5942 -2.17168,1.34189 -12.30248,1.81846 -20.00608,0.94112 z"
         id="path5433"
         inkscape:connector-curvature="0"
         transform="matrix(0.75000002,0,0,-0.75000002,0,792.00002)" /><path
         style="fill:#008000;stroke-width:0.79100078"
         d="m 548.6072,852.45248 c 0,-2.72996 22.56774,-22.47886 30.19387,-26.42249 2.60954,-1.34944 2.64347,-1.19184 0.96341,4.47494 -2.50526,8.45012 -6.1364,13.403 -11.38226,15.52542 -1.52267,0.61605 -5.26015,2.3572 -8.30551,3.86922 -6.46411,3.20942 -11.46951,4.32354 -11.46951,2.55291 z"
         id="path5435"
         inkscape:connector-curvature="0"
         transform="matrix(0.75000002,0,0,-0.75000002,0,792.00002)" /><path
         style="fill:#008000;stroke-width:0.79100078"
         d="m 581.87274,848.91491 c -1.43123,-1.81951 -1.5134,-2.32424 -0.61167,-3.75726 0.84962,-1.35021 15.32075,-9.58661 17.35662,-9.8787 0.31512,-0.0452 1.12514,0.98565 1.80006,2.2908 0.82835,1.60185 1.82332,2.373 3.06173,2.373 2.14319,0 5.01177,-2.72516 3.71331,-3.52765 -1.62002,-1.00123 -0.82137,-3.52693 1.72822,-5.46544 2.22648,-1.69285 12.32561,-6.03592 14.03557,-6.03592 0.32887,0 0.80441,1.0323 1.05675,2.29399 0.55989,2.79944 4.63526,4.59244 12.39496,5.45327 l 5.14151,0.57039 -7.91001,3.04868 c -12.11062,4.66769 -23.32882,8.23439 -36.60565,11.63838 -6.64654,1.70407 -12.40489,3.09831 -12.79635,3.09831 -0.39145,0 -1.45573,-0.94583 -2.36505,-2.10185 z"
         id="path5437"
         inkscape:connector-curvature="0"
         transform="matrix(0.75000002,0,0,-0.75000002,0,792.00002)" /><path
         style="fill:#008000;stroke-width:0.79100078"
         d="m 582.85037,834.999 c 1.28098,-5.49944 4.67484,-12.94597 7.01068,-15.38227 1.64982,-1.72077 6.60269,-4.66928 13.14982,-7.82826 5.77671,-2.78726 10.68666,-5.06775 10.91099,-5.06775 0.22433,0 -1.40496,3.52922 -3.62065,7.84271 -5.68432,11.06621 -8.67099,14.17525 -17.8512,18.58261 -8.66207,4.1586 -10.20612,4.45664 -9.59964,1.85296 z"
         id="path5439"
         inkscape:connector-curvature="0"
         transform="matrix(0.75000002,0,0,-0.75000002,0,792.00002)" /><path
         style="fill:#008000;stroke-width:0.79100078"
         d="m 610.6489,822.73849 c 1.18348,-3.19414 8.20789,-14.13842 11.28932,-17.58916 2.84802,-3.18935 4.72851,-4.30173 13.05151,-7.72042 17.6059,-7.23165 44.96853,-16.42903 55.81182,-18.75997 l 2.58271,-0.5552 -1.77931,3.0157 c -1.32284,2.24206 -1.78249,4.27188 -1.79171,7.91233 l -0.0124,4.89662 -5.93251,2.82361 c -6.61738,3.14957 -21.22424,8.5991 -41.74499,15.57421 -7.51546,2.55455 -17.5879,6.25155 -22.3832,8.21558 -4.7953,1.96402 -8.91795,3.57095 -9.16144,3.57095 -0.24349,0 -0.2119,-0.62292 0.0702,-1.38425 z m 48.88702,-21.02626 c 5.5895,-6.32719 8.5124,-10.62066 8.5124,-12.50391 0,-2.02062 -0.40791,-1.89145 -4.42705,1.40194 -6.99724,5.73371 -13.15221,16.11046 -9.55593,16.11046 0.57532,0 3.03708,-2.25382 5.47058,-5.00849 z"
         id="path5441"
         inkscape:connector-curvature="0"
         transform="matrix(0.75000002,0,0,-0.75000002,0,792.00002)" /><path
         style="fill:#008000;stroke-width:0.79100078"
         d="m 641.60971,831.76635 c 0.32417,-0.84477 -0.80786,-1.61688 -4.15774,-2.83582 -2.53175,-0.92123 -6.11597,-2.23133 -7.96494,-2.91131 -1.84896,-0.67998 -3.36175,-1.47665 -3.36175,-1.77039 0,-0.29373 1.69077,-1.17362 3.75725,-1.9553 6.12961,-2.31861 25.57194,-9.2448 25.95085,-9.2448 0.19246,0 0.34993,0.47187 0.34993,1.04861 0,1.41456 2.89474,3.97116 6.6206,5.84722 l 3.06109,1.54134 -10.71262,5.20085 c -12.63381,6.13355 -14.16792,6.70897 -13.54267,5.0796 z"
         id="path5443"
         inkscape:connector-curvature="0"
         transform="matrix(0.75000002,0,0,-0.75000002,0,792.00002)" /><path
         style="fill:#008000;stroke-width:0.79100078"
         d="m 664.68657,814.22972 c -1.19639,-0.67734 -2.17525,-1.5679 -2.17525,-1.97902 0,-1.33246 3.51028,-3.10012 12.32272,-6.20533 4.75134,-1.67421 13.5009,-5.68281 19.44348,-8.90799 9.73332,-5.28251 11.16448,-5.83535 14.43334,-5.57536 1.99576,0.15873 3.45177,0.57482 3.23556,0.92465 -0.21621,0.34983 -2.26183,1.69776 -4.54583,2.9954 -2.284,1.29764 -7.89021,5.10534 -12.45824,8.46154 -11.32393,8.31987 -16.48209,10.84246 -22.93902,11.21833 -3.65246,0.21261 -5.77149,-0.0574 -7.31676,-0.93222 z"
         id="path5445"
         inkscape:connector-curvature="0"
         transform="matrix(0.75000002,0,0,-0.75000002,0,792.00002)" /><path
         style="fill:#008000;stroke-width:0.79100078"
         d=""
         id="path5447"
         inkscape:connector-curvature="0"
         transform="matrix(0.75000002,0,0,-0.75000002,0,792.00002)" /><path
         style="fill:#008000;stroke-width:0.79100078"
         d="m 695.26108,786.17548 c 2.72427,-5.30201 3.09099,-6.54847 2.30096,-7.82092 -0.82406,-1.32725 -0.67791,-1.57059 1.1865,-1.97559 1.16947,-0.25404 7.82152,-1.71211 14.78233,-3.24015 15.69896,-3.44624 17.06967,-3.48104 11.46951,-0.29119 -2.39278,1.36292 -10.65768,6.33838 -18.36645,11.05656 -7.70877,4.71818 -14.15042,8.57852 -14.31479,8.57852 -0.16436,0 1.15951,-2.83826 2.94194,-6.30723 z"
         id="path5449"
         inkscape:connector-curvature="0"
         transform="matrix(0.75000002,0,0,-0.75000002,0,792.00002)" /><path
         style="fill:#008000;stroke-width:0.79100078"
         d="m 712.34437,786.64035 c 0,-0.90435 23.5593,-13.59018 24.13142,-12.9939 0.58993,0.61485 -10.51993,9.51495 -14.11147,11.30469 -3.32255,1.65569 -10.01995,2.78477 -10.01995,1.68921 z"
         id="path5451"
         inkscape:connector-curvature="0"
         transform="matrix(0.75000002,0,0,-0.75000002,0,792.00002)" /><path
         style="fill:#008000;stroke-width:0.79100078"
         d="m 563.66682,853.58752 c 0.0168,-0.32629 2.75134,-1.93946 6.07669,-3.58483 5.21357,-2.57965 6.20023,-2.83742 7.16562,-1.87203 1.57929,1.57929 0.0945,4.06534 -3.09124,5.17591 -2.82756,0.98569 -10.19795,1.18968 -10.15107,0.28095 z"
         id="path5453"
         inkscape:connector-curvature="0"
         transform="matrix(0.75000002,0,0,-0.75000002,0,792.00002)" /><path
         style="fill:#008000;stroke-width:0.39550039"
         d="m 407.05761,792.9576 c -1.08763,-0.51766 -4.55814,-2.7581 -7.71226,-4.97877 -5.66059,-3.98537 -9.09099,-5.97969 -11.12949,-6.4703 -0.99698,-0.23995 -1.0511,-0.38746 -1.19615,-3.25987 -0.121,-2.39603 -0.30626,-3.12141 -0.90999,-3.56286 -0.41694,-0.30487 -0.88837,-0.55431 -1.04763,-0.55431 -0.81773,0 -2.74976,2.22493 -3.35827,3.86737 -0.38051,1.02706 -0.73988,1.93218 -0.79861,2.01137 -0.0587,0.0792 -0.69455,-0.21002 -1.41295,-0.6427 -2.49111,-1.50035 -6.58548,-2.85823 -14.01237,-4.64716 -11.47539,-2.7641 -14.29855,-4.02152 -17.93204,-7.98683 -4.17739,-4.55889 -5.39254,-6.94109 -4.16616,-8.16746 0.86279,-0.8628 4.97726,-0.81938 8.70136,0.0918 2.55747,0.62575 2.70067,0.71479 1.87863,1.16814 -0.48943,0.26992 -0.88988,0.83635 -0.88988,1.25873 0,1.67522 2.91775,2.55723 13.05152,3.94536 8.30592,1.13776 11.19233,1.82373 14.3394,3.40786 1.46968,0.73979 6.57648,2.93832 11.34844,4.88563 12.91909,5.27191 16.38824,7.23477 20.35029,11.51426 2.3724,2.56247 2.5696,3.23809 1.74676,5.98448 -0.92192,3.0771 -3.30866,3.82101 -6.8506,2.13524 z"
         id="path5455"
         inkscape:connector-curvature="0"
         transform="matrix(0.75000002,0,0,-0.75000002,0,792.00002)" /><path
         style="fill:#f9f9f9;stroke-width:0.1977502"
         d=""
         id="path5513"
         inkscape:connector-curvature="0"
         transform="matrix(0.75000002,0,0,-0.75000002,0,792.00002)" /></g></g></svg>