<?xml version="1.0" encoding="UTF-8" standalone="no"?>
<!-- Created with Inkscape (http://www.inkscape.org/) -->

<svg
   xmlns:dc="http://purl.org/dc/elements/1.1/"
   xmlns:cc="http://creativecommons.org/ns#"
   xmlns:rdf="http://www.w3.org/1999/02/22-rdf-syntax-ns#"
   xmlns:svg="http://www.w3.org/2000/svg"
   xmlns="http://www.w3.org/2000/svg"
   xmlns:sodipodi="http://sodipodi.sourceforge.net/DTD/sodipodi-0.dtd"
   xmlns:inkscape="http://www.inkscape.org/namespaces/inkscape"
   version="1.1"
   id="svg29"
   xml:space="preserve"
   width="73.259682"
   height="111.05814"
   viewBox="0 0 73.259682 111.05814"
   sodipodi:docname="1.svg"
   inkscape:version="0.92.2 5c3e80d, 2017-08-06"><metadata
     id="metadata35"><rdf:RDF><cc:Work
         rdf:about=""><dc:format>image/svg+xml</dc:format><dc:type
           rdf:resource="http://purl.org/dc/dcmitype/StillImage" /><dc:title></dc:title></cc:Work></rdf:RDF></metadata><defs
     id="defs33" /><sodipodi:namedview
     pagecolor="#ffffff"
     bordercolor="#666666"
     borderopacity="1"
     objecttolerance="10"
     gridtolerance="10"
     guidetolerance="10"
     inkscape:pageopacity="0"
     inkscape:pageshadow="2"
     inkscape:window-width="1277"
     inkscape:window-height="839"
     id="namedview31"
     showgrid="false"
     inkscape:zoom="0.85977756"
     inkscape:cx="-5.2378162"
     inkscape:cy="22.617023"
     inkscape:window-x="0"
     inkscape:window-y="0"
     inkscape:window-maximized="0"
     inkscape:current-layer="g39"
     fit-margin-top="0"
     fit-margin-left="0"
     fit-margin-right="0"
     fit-margin-bottom="0" /><g
     id="g37"
     inkscape:groupmode="layer"
     inkscape:label="Button Bush_Frog Fruit"
     transform="matrix(1.3333333,0,0,-1.3333333,-428.51745,763.95235)"><g
       id="g39"
       transform="matrix(610.6,0,0,789.1,0.7,1.4)"><path
         style="fill:#000000;stroke-width:0.00051864"
         d="m 0.61010125,0.6917826 c -8.5695e-4,-0.001545 -8.2766e-4,-0.001955 2.5181e-4,-0.003548 6.7111e-4,-9.9052e-4 0.001275,-0.002417 0.001342,-0.00317 6.718e-5,-7.5297e-4 3.5919e-4,-0.001515 6.4865e-4,-0.001692 2.8958e-4,-1.7767e-4 2.6218e-4,-5.8106e-4 -6.086e-5,-8.9659e-4 -4.7946e-4,-4.68e-4 -3.439e-4,-7.9363e-4 7.3753e-4,-0.001772 0.001094,-9.8911e-4 0.001241,-0.001358 8.4047e-4,-0.002113 -3.2125e-4,-6.0706e-4 -1.4669e-4,-0.001385 5.1909e-4,-0.002311 7.7129e-4,-0.001073 8.4394e-4,-0.001768 3.1403e-4,-0.003007 -4.5266e-4,-0.001058 -4.2328e-4,-0.002056 8.441e-5,-0.002907 4.9466e-4,-8.2842e-4 5.4156e-4,-0.001837 1.3012e-4,-0.002799 -3.5377e-4,-8.2714e-4 -3.8549e-4,-0.002346 -7.055e-5,-0.003376 5.986e-4,-0.001956 -7.1376e-4,-0.004941 -0.002378,-0.005406 -4.5611e-4,-1.2758e-4 -8.7931e-4,-9.5547e-4 -9.4077e-4,-0.00184 -1.405e-4,-0.002032 -9.1574e-4,-0.003123 -0.004019,-0.005653 -0.001366,-0.001114 -0.002953,-0.002852 -0.003525,-0.003861 -5.7259e-4,-0.001009 -0.001354,-0.002023 -0.001736,-0.002253 -5.977e-4,-3.5865e-4 -4.9878e-4,-5.624e-4 7.0557e-4,-0.001453 0.001025,-7.5816e-4 0.001436,-0.001443 0.001531,-0.002556 1.1435e-4,-0.001336 -1.4833e-4,-0.001637 -0.002171,-0.002483 -0.001266,-5.2955e-4 -0.003445,-0.00105 -0.004844,-0.001157 -0.002806,-2.1413e-4 -0.003119,-5.2478e-4 -0.00274,-0.002723 1.1834e-4,-6.8704e-4 -6.614e-5,-0.001634 -4.1002e-4,-0.002105 -7.9846e-4,-0.001094 -0.008304,-0.007213 -0.0103749,-0.008459 -0.001886,-0.001135 -0.005649,-0.001608 -0.008969,-0.001128 -0.002163,3.1233e-4 -0.002279,2.8402e-4 -0.002658,-6.4926e-4 -2.1757e-4,-5.3689e-4 -3.7918e-4,-0.001409 -3.5953e-4,-0.001936 -0.001684,-0.004399 -0.0118144,8.0437e-4 -0.0177344,0.001061 2.1995e-4,0.001357 -2.2404e-4,0.003477 -6.4314e-4,0.003069 -6.4181e-4,-6.2644e-4 -0.002743,5.1291e-4 -0.004196,0.002275 -7.4814e-4,9.0727e-4 -0.001273,0.001795 -0.001166,0.001971 1.0696e-4,1.7649e-4 -5.068e-5,2.5231e-4 -3.5031e-4,1.685e-4 -9.4513e-4,-2.6437e-4 -0.0047,0.002566 -0.004938,0.003723 -2.4221e-4,0.001176 -0.001127,0.001373 -0.003363,7.4774e-4 -8.2128e-4,-2.2973e-4 -0.001892,-4.383e-5 -0.002807,4.8693e-4 -0.00147,8.5355e-4 -0.00147,8.7253e-4 4.843e-5,0.003167 8.403e-4,0.001269 0.001201,0.002217 8.0284e-4,0.002105 -3.9835e-4,-1.1143e-4 -0.00138,6.72e-5 -0.002182,3.9675e-4 -0.001391,5.7203e-4 -0.001442,6.7127e-4 -0.001106,0.002148 3.1713e-4,0.001396 2.1315e-4,0.001648 -0.001053,0.002555 -0.002081,0.00149 -0.002421,0.002787 -0.001233,0.004701 0.001066,0.001716 9.2965e-4,0.003225 -2.8825e-4,0.003202 -3.5752e-4,-6.93e-6 -0.001119,7.0146e-4 -0.001693,0.001574 -5.7349e-4,8.7302e-4 -0.001224,0.001699 -0.001446,0.001835 -2.2187e-4,1.3612e-4 -1.1806e-4,0.001114 2.3052e-4,0.002173 6.0547e-4,0.00184 5.6008e-4,0.001996 -0.001006,0.003476 -0.002196,0.002076 -0.002475,0.002814 -0.002019,0.005343 2.1327e-4,0.001183 8.584e-5,0.002893 -2.8456e-4,0.003801 -3.6934e-4,9.0708e-4 -4.2864e-4,0.002108 -1.3177e-4,0.002669 2.969e-4,5.6105e-4 4.3723e-4,0.00124 3.1213e-4,0.001507 -1.2525e-4,2.681e-4 1.7408e-4,8.3313e-4 6.6514e-4,0.001256 4.9111e-4,4.2249e-4 0.001036,0.001648 0.00121,0.002723 2.9778e-4,0.001835 0.001038,0.003215 0.003922,0.007309 7.3896e-4,0.001049 0.001057,0.002326 8.3788e-4,0.003366 -4.0686e-4,0.001933 5.6933e-4,0.00365 0.003538,0.006223 0.001577,0.001367 0.002085,0.002241 0.00203,0.003494 -4.031e-5,9.1848e-4 4.6084e-4,0.002602 0.001112,0.003741 0.001071,0.001868 0.001503,0.00217 0.004418,0.00309 0.003012,9.5071e-4 0.004149,0.001855 0.003124,0.002485 -2.3829e-4,1.4618e-4 -1.8584e-4,3.3501e-4 1.1656e-4,4.196e-4 3.0239e-4,8.458e-5 5.2802e-4,5.7952e-4 5.0149e-4,0.0011 -7.098e-5,0.001385 0.003285,0.003187 0.006313,0.003388 0.002316,1.5461e-4 0.002396,2.0816e-4 0.002859,0.001921 5.8689e-4,0.002168 0.003579,0.003978 0.0100222,0.006065 0.002422,7.843e-4 0.004817,0.001782 0.005322,0.002216 0.001257,0.001081 0.006265,0.001137 0.008068,9.037e-5 7.4074e-4,-4.3028e-4 0.001707,-6.8199e-4 0.002145,-5.5926e-4 0.001057,2.9579e-4 0.009921,-0.002846 0.009754,-0.003457 -7.095e-5,-2.6189e-4 9.3066e-4,-9.6154e-4 0.002226,-0.001555 0.001295,-5.9376e-4 0.002774,-0.001463 0.003285,-0.001932 0.001101,-0.001009 0.001672,-0.003829 9.2344e-4,-0.00456 -3.9049e-4,-3.811e-4 -8.895e-5,-7.2459e-4 0.001169,-0.001331 0.001671,-8.0623e-4 0.001782,-0.001008 0.002561,-0.004675 2.0862e-4,-9.8166e-4 8.5951e-4,-0.001758 0.002141,-0.002555 0.001899,-0.00118 0.003573,-0.003813 0.002598,-0.004086 -7.1879e-4,-2.0106e-4 2.5563e-4,-0.00157 0.00153,-0.00215 5.4802e-4,-2.4917e-4 0.001438,-0.001067 0.001978,-0.001818 8.0334e-4,-0.001117 8.0578e-4,-0.001683 1.25e-5,-0.003112 z m -0.0168593,7.3278e-4 c -6.9215e-4,0.001482 -0.002856,0.001418 -0.005883,-1.7282e-4 l -0.002396,-0.001259 0.002667,-1.5898e-4 c 0.001467,-8.735e-5 0.002744,-3.2272e-4 0.002837,-5.2284e-4 9.351e-5,-2.0015e-4 6.5429e-4,-2.2844e-4 0.001246,-6.288e-5 5.919e-4,1.6557e-4 0.00132,1.5096e-4 0.001619,-3.234e-5 8.832e-4,-5.4187e-4 0.001763,-5.956e-5 0.001052,5.764e-4 -3.5949e-4,3.2151e-4 -8.7402e-4,0.001056 -0.001143,0.001633 z m -0.008527,0.00941 c -0.001435,2.0925e-4 -0.002218,1.5914e-4 -0.001929,-1.2343e-4 6.2709e-4,-6.1426e-4 0.004806,-0.001216 0.004544,-6.5441e-4 -1.095e-4,2.344e-4 -0.001286,5.8487e-4 -0.002614,7.7784e-4 z m 0.001342,-0.01416 c -0.002234,-1.579e-5 -0.004381,4.921e-5 -0.00477,1.4363e-4 -0.001159,2.828e-4 -0.002873,-0.001177 -0.0029,-0.002469 -1.405e-5,-6.6194e-4 -4.8466e-4,-0.001608 -0.001046,-0.002103 -0.001003,-8.8375e-4 -9.8494e-4,-8.9497e-4 0.001053,-6.417e-4 0.001141,1.4162e-4 0.003213,3.5507e-4 0.004606,4.7437e-4 0.001886,1.6145e-4 0.002814,4.534e-4 0.003636,0.001143 6.0789e-4,5.097e-4 0.001916,0.00142 0.002906,0.002021 0.002162,0.001314 0.001784,0.001468 -0.003486,0.001431 z m -0.010213,0.008054 c -0.003932,2.1183e-4 -0.005934,8.9097e-4 -0.005081,0.001724 2.9902e-4,2.9182e-4 0.001681,5.4401e-4 0.003069,5.6005e-4 0.002999,3.481e-5 0.003396,3.6326e-4 0.001341,0.001109 -0.001294,4.6982e-4 -0.001781,4.0356e-4 -0.003438,-4.6757e-4 -0.003972,-0.002088 -0.004898,-0.002655 -0.004019,-0.002457 4.9762e-4,1.1203e-4 0.001516,-4.804e-5 0.002264,-3.5486e-4 7.4741e-4,-3.0732e-4 0.002644,-6.5088e-4 0.004216,-7.6425e-4 0.001571,-1.128e-4 0.002946,-3.9694e-4 0.003056,-6.3199e-4 1.0968e-4,-2.3479e-4 6.9844e-4,-2.873e-4 0.001308,-1.167e-4 0.002008,5.6161e-4 7.4372e-4,0.001213 -0.002717,0.001399 z m 0.0166354,-0.0374082 c -4.3192e-4,4.7954e-4 -0.001069,7.9524e-4 -0.001416,7.0148e-4 -9.7957e-4,-2.6474e-4 -0.006442,-0.004431 -0.006289,-0.004797 1.6329e-4,-3.9301e-4 0.004091,6.7544e-4 0.006799,0.001849 0.002092,9.0706e-4 0.002099,9.2293e-4 9.06e-4,0.002247 z m -0.0186095,0.0201358 c -2.4831e-4,-6.558e-5 -1.9212e-4,-2.7816e-4 1.2502e-4,-4.7273e-4 9.1625e-4,-5.6215e-4 0.003369,-4.4575e-4 0.004618,2.1954e-4 9.7872e-4,5.2109e-4 7.5004e-4,5.9252e-4 -0.001573,4.9146e-4 -0.001495,-6.52e-5 -0.002921,-1.7199e-4 -0.003169,-2.3742e-4 z m 0.006189,-0.0302806 c -6.099e-4,-1.7059e-4 -0.001019,-5.0326e-4 -9.0847e-4,-7.3925e-4 1.1025e-4,-2.3598e-4 6.9946e-4,-2.8948e-4 0.001309,-1.1889e-4 6.0991e-4,1.706e-4 0.001019,5.0326e-4 9.0846e-4,7.3925e-4 -1.1024e-4,2.3599e-4 -6.9944e-4,2.8949e-4 -0.001309,1.1889e-4 z m -0.0139438,0.0242266 c -0.002957,2.3688e-4 -0.003716,1.5434e-4 -0.003469,-3.7628e-4 8.81e-5,-1.8859e-4 0.001217,-3.4033e-4 0.002509,-3.3743e-4 0.001292,3.13e-6 0.002702,2.88e-6 0.003135,-3e-7 0.00191,-1.455e-5 2.9497e-4,5.1556e-4 -0.002175,7.1401e-4 z m -0.005165,0.004935 c -0.001129,2.8774e-4 -0.001141,2.6707e-4 -1.3366e-4,-2.2055e-4 6.1147e-4,-2.9592e-4 0.001206,-5.1179e-4 0.001321,-4.7958e-4 4.5633e-4,1.2764e-4 -1.98e-6,3.9783e-4 -0.001187,7.0013e-4 z m -0.0109005,-0.004096 c -8.2413e-4,-2.2203e-4 -0.001553,-6.0539e-4 -0.001619,-8.5175e-4 -1.9125e-4,-7.0584e-4 0.002688,-6.9963e-4 0.00423,8.97e-6 0.001292,5.9355e-4 0.001303,6.6446e-4 1.4273e-4,9.4418e-4 -6.8981e-4,1.6642e-4 -0.001928,1.21e-4 -0.002754,-1.014e-4 z m -0.005559,-0.0107571 c -2.1109e-4,-5.904e-5 -3.339e-4,-5.3002e-4 -2.7299e-4,-0.001046 1.1641e-4,-9.8607e-4 9.0702e-4,-9.7885e-4 0.002403,2.236e-5 7.6762e-4,5.1396e-4 7.3689e-4,5.6996e-4 -4.6144e-4,8.4101e-4 -7.0613e-4,1.5981e-4 -0.001457,2.4226e-4 -0.001669,1.8263e-4 z"
         id="path43"
         inkscape:connector-curvature="0"
         sodipodi:nodetypes="ccccccccccccsccccccccccccccccccscsccscccccsccccccscccccccccsccccccscccccccsccccccccssccccccsccccccccccccccccccssccccccccccccssssscsccccssccccccccccc" /></g></g></svg>