<?xml version="1.0" encoding="UTF-8" standalone="no"?>
<!-- Created with Inkscape (http://www.inkscape.org/) -->

<svg
   xmlns:dc="http://purl.org/dc/elements/1.1/"
   xmlns:cc="http://creativecommons.org/ns#"
   xmlns:rdf="http://www.w3.org/1999/02/22-rdf-syntax-ns#"
   xmlns:svg="http://www.w3.org/2000/svg"
   xmlns="http://www.w3.org/2000/svg"
   xmlns:sodipodi="http://sodipodi.sourceforge.net/DTD/sodipodi-0.dtd"
   xmlns:inkscape="http://www.inkscape.org/namespaces/inkscape"
   version="1.1"
   id="svg29"
   xml:space="preserve"
   width="130.48537"
   height="95.009117"
   viewBox="0 0 130.48537 95.009117"
   sodipodi:docname="2.svg"
   inkscape:version="0.92.2 5c3e80d, 2017-08-06"><metadata
     id="metadata35"><rdf:RDF><cc:Work
         rdf:about=""><dc:format>image/svg+xml</dc:format><dc:type
           rdf:resource="http://purl.org/dc/dcmitype/StillImage" /><dc:title></dc:title></cc:Work></rdf:RDF></metadata><defs
     id="defs33" /><sodipodi:namedview
     pagecolor="#ffffff"
     bordercolor="#666666"
     borderopacity="1"
     objecttolerance="10"
     gridtolerance="10"
     guidetolerance="10"
     inkscape:pageopacity="0"
     inkscape:pageshadow="2"
     inkscape:window-width="1277"
     inkscape:window-height="839"
     id="namedview31"
     showgrid="false"
     inkscape:zoom="1.2159091"
     inkscape:cx="41.966781"
     inkscape:cy="-33.357786"
     inkscape:window-x="0"
     inkscape:window-y="0"
     inkscape:window-maximized="0"
     inkscape:current-layer="g39"
     fit-margin-top="0"
     fit-margin-left="0"
     fit-margin-right="0"
     fit-margin-bottom="0" /><g
     id="g37"
     inkscape:groupmode="layer"
     inkscape:label="Button Bush_Frog Fruit"
     transform="matrix(1.3333333,0,0,-1.3333333,-518.40408,337.61338)"><g
       id="g39"
       transform="matrix(610.6,0,0,789.1,0.7,1.4)"><path
         style="fill:#f4d7d7;stroke-width:0.41121495"
         d=""
         id="path107"
         inkscape:connector-curvature="0"
         transform="matrix(0.0012283,0,0,-9.504499e-4,-0.00114641,1.0019009)" /><g
         id="g135"
         transform="matrix(0.05821239,0.77248075,-1.2901439,0.05821239,1.0266356,-0.29534932)"><path
           inkscape:connector-curvature="0"
           id="path43"
           d="m 0.6614719,0.27975574 0.005996,3.6131e-4 c 0.001737,0.004313 0.004153,0.0114092 -0.003554,0.011356 -0.001671,0.005228 -0.0145918,0.0109561 -0.004166,0.015551 0.005998,-1.8354e-4 0.009829,0.005896 0.0152697,0.005889 0.003755,-2.8228e-4 0.008122,0.001682 0.0107612,-0.002125 0.005122,0.001843 0.004338,0.009735 0.011267,0.009518 0.0021,0.006471 0.003419,0.0184631 0.014752,0.0134998 6.4619e-4,-0.002041 0.003798,-0.0100554 0.006362,-0.0100764 3.243e-5,0.006304 0.0120778,0.008409 0.0153968,0.003286 0.0114582,-0.009679 0.0104862,-0.029128 0.024999,-0.0362841 0.009088,-0.009563 0.0255592,-0.0252415 0.01148,-0.0379445 -0.005789,-0.006214 -0.0142504,-0.0103065 -0.016078,-0.019657 -0.004173,-0.002393 -0.008239,-0.005458 -0.013395,-0.004766 0.005192,-0.008893 -0.005039,-0.0181383 -0.0141834,-0.0164055 -0.004155,0.003939 -0.005689,0.0143885 -0.013608,0.009302 -0.008644,-0.004785 -0.017668,-0.0144504 -0.027466,-0.005991 -8.1055e-4,0.002726 -0.003203,0.008027 9.8007e-4,0.009302 2.8346e-4,-0.001047 0.006361,0.005945 0.003167,0.003414 -0.009994,2.3095e-4 -0.006182,0.0159189 -0.0154005,0.0165554 -0.008128,0.005793 -0.0100267,0.0158235 -0.0139487,0.0243254 l 0.001264,0.00571 z m 0.0335949,-0.0602618 c 0.005909,0.003713 0.017482,0.007579 0.0198288,0.0124914 -0.003485,0.006633 -0.008575,-9.86e-6 -0.0134291,-0.001603 -0.005063,-0.001521 -0.007461,-0.006811 -0.007924,-0.011603 l 0.001523,7.1506e-4 z m 0.0325463,0.002107 c 0.003357,0.003054 0.0107573,0.003888 0.006473,0.011421 0.005105,0.005116 0.0116053,-0.00412 0.015369,0.004655 0.006066,0.006054 -0.014819,-0.0110867 -0.010159,-0.002117 l -0.00815,-0.002153 -0.006571,-0.003915 c 0.001037,-4.8764e-4 0.001939,-0.0111512 0.003038,-0.007891 z M 0.698158,0.23445033 c 0.003531,0.002956 0.0124768,0.00565 0.007284,0.012756 0.001089,-6.3607e-4 0.005099,0.006358 5.5181e-4,0.004723 -0.009997,-3.0153e-4 -0.0152946,-0.007601 -0.020449,-0.0150196 l 0.002542,-0.004701 c 0.003289,0.002337 0.00735,-0.002253 0.0100712,0.002242 z m -0.0132278,0.0157945 c 0.005593,0.002411 0.0109373,0.005375 0.016715,0.007364 -0.004492,0.002781 -0.004722,0.0146868 -0.0112504,0.006991 -0.00694,-0.002292 -0.0131248,-0.007177 -0.020891,-0.005036 0.003404,-0.004175 0.007922,-0.0152409 0.0154264,-0.009319 z m -0.006864,0.0156522 c 0.003096,0.001333 0.004141,0.005825 0.002486,0.008911 -0.005452,0.003689 -0.0120815,-0.0025 -0.0148552,-0.006995 0.002772,8.9232e-4 0.0128149,0.004705 0.0123692,-0.001916 z m 0.0121321,0.0111326 c 0.003615,3.6975e-4 0.0134289,0.001587 0.003468,0.006395 l -4.6273e-4,0.005182 c 0.00359,0.003697 0.007178,-0.001345 0.008517,-0.002185 0.003952,0.001554 0.008248,0.00257 0.009823,0.00785 4.0567e-4,0.005627 -0.007413,-0.002583 -0.0107004,6.7708e-4 -8.7855e-4,0.005165 0.0125213,0.004251 0.006799,0.007515 -0.004745,0.005649 -0.0139801,0.002598 -0.008645,-0.007067 -0.002915,-0.004691 -0.008789,-0.001653 -0.0121654,-0.004973 2.703e-4,-0.001933 0.004037,-0.008702 -0.001566,-0.006487 -0.004081,0.006985 -0.0167075,-0.00704 -0.005432,-0.004898 l 0.004506,-2.7514e-4 c 1.52e-4,-0.002637 0.004422,-0.002492 0.005859,-0.001735 z M 0.67806562,0.294963 c 0.002181,0.005604 0.008433,-9.534e-4 0.011903,0.003099 l 0.003808,8.2509e-4 c -0.004846,0.006633 -0.0125265,0.0118074 -0.020854,0.006637 l -0.006058,-0.003036 c -0.005893,-0.0071 0.007315,-0.0091 0.011201,-0.007525 z m 0.0632241,0.007843 -3.4452e-4,0.004448 -0.0019,0.004561 C 0.73893641,0.306797 0.7265225,0.302 0.7411662,0.301142 Z m -0.0110249,0.005779 c -4.0217e-4,0.005387 0.007462,0.012724 -0.00276,0.0150929 -0.009771,-0.0018 0.001721,-0.0106446 -3.4868e-4,-0.01632 l 0.001167,3.6848e-4 z m -0.0144629,7.7495e-4 c 0.00316,-5.72e-5 0.00433,0.001725 2.55e-4,0.00151 -0.002106,0.004599 0.0122072,1.3241e-4 -0.002073,0.006254 -0.004047,0.001888 -0.00377,0.007904 -0.008135,0.009162 -0.003597,-0.005771 -0.003819,-0.0185064 0.006121,-0.0167206 l 0.003833,-2.0689e-4 z m -0.0170991,0.002 c -0.001492,0.002436 -0.001492,-0.002436 0,0 z m 0.0365566,0.0071 c -7.7804e-4,0.004496 -0.003415,-0.005881 0,0 z"
           style="fill:#000000;stroke-width:0.00051864" /><path
           transform="matrix(0.0012283,0,0,-9.504499e-4,-0.00114641,1.0019009)"
           inkscape:connector-curvature="0"
           id="path91"
           d="m 552.32707,790.81827 c -1.03429,-0.95337 -2.54817,-3.12374 -3.69175,-5.29268 -1.06618,-2.02213 -1.93755,-3.74676 -1.93638,-3.83252 10e-4,-0.0858 1.25023,-0.16163 2.7757,-0.1686 2.26595,-0.0104 3.26277,-0.25198 5.44647,-1.32018 5.13789,-2.5133 7.99712,-4.25875 9.29196,-5.67239 0.71772,-0.78356 1.48261,-1.42466 1.69977,-1.42466 0.76696,0 1.80319,1.57627 3.17585,4.83098 0.76367,1.81074 1.62857,3.67667 1.92199,4.14651 0.29343,0.46985 0.44798,0.92188 0.34346,1.00451 -0.10452,0.0826 -2.31808,1.374 -4.91901,2.86972 -2.60094,1.49571 -6.01562,3.56456 -7.5882,4.59743 -1.57257,1.03288 -3.28839,1.87796 -3.81292,1.87796 -0.53827,0 -1.71742,-0.70397 -2.70694,-1.61608 z"
           style="fill:#f4d7d7;stroke-width:0.41121495" /><path
           transform="matrix(0.0012283,0,0,-9.504499e-4,-0.00114641,1.0019009)"
           inkscape:connector-curvature="0"
           id="path93"
           d="m 560.48616,807.81909 c -1.34086,-3.19638 -1.20106,-3.67098 2.91842,-9.90727 3.56687,-5.39971 7.10213,-8.01516 11.62703,-8.60187 l 2.22265,-0.2882 -0.258,1.5899 c -0.1419,0.87445 -0.60233,2.05864 -1.02317,2.63153 -0.66807,0.90946 -0.69796,1.19817 -0.23553,2.27528 1.3752,3.20318 0.34617,5.88294 -3.50059,9.11617 -1.49475,1.25635 -3.14622,2.81706 -3.66992,3.46826 -0.92136,1.14566 -1.05896,1.18078 -4.25027,1.08483 -3.26031,-0.098 -3.30418,-0.11371 -3.83062,-1.36863 z"
           style="fill:#f4d7d7;stroke-width:0.41121495" /><path
           transform="matrix(0.0012283,0,0,-9.504499e-4,-0.00114641,1.0019009)"
           inkscape:connector-curvature="0"
           id="path95"
           d="m 566.02391,822.28033 c 0,-0.57402 0.40808,-2.28675 0.90683,-3.80606 1.0311,-3.14096 2.75621,-5.10414 6.73305,-7.66225 1.33919,-0.86144 3.06366,-2.01799 3.83215,-2.5701 1.74947,-1.25688 2.9364,-1.27202 4.08246,-0.0521 1.31277,1.39738 1.10415,2.53889 -0.85355,4.67037 -1.34358,1.46284 -9.42731,7.24645 -14.18692,10.15022 -0.35857,0.21876 -0.51402,-0.002 -0.51402,-0.73008 z"
           style="fill:#f4d7d7;stroke-width:0.41121495" /><path
           transform="matrix(0.0012283,0,0,-9.504499e-4,-0.00114641,1.0019009)"
           inkscape:connector-curvature="0"
           id="path97"
           d="m 592.75232,821.15 c -0.002,-0.4305 -1.25334,-7.15972 -1.44245,-7.75555 -0.16734,-0.52723 0.5054,-1.25702 2.56887,-2.78674 3.43217,-2.54437 4.79905,-2.99997 4.9225,-1.64074 0.0472,0.51921 0.20833,2.10252 0.35815,3.51847 l 0.27241,2.57446 -1.81306,1.7433 c -2.44849,2.35428 -4.86573,4.51341 -4.86642,4.3468 z"
           style="fill:#f4d7d7;stroke-width:0.41121495" /><path
           transform="matrix(0.0012283,0,0,-9.504499e-4,-0.00114641,1.0019009)"
           inkscape:connector-curvature="0"
           id="path99"
           d="m 607.14541,806.78012 c 1.97497,-1.71112 3.70093,-2.93938 3.70093,-2.63373 0,0.13972 -0.27651,0.78875 -0.61447,1.44229 -0.78025,1.50883 -2.15443,2.47654 -3.48637,2.45512 -1.02672,-0.0165 -1.02186,-0.0319 0.39991,-1.26368 z"
           style="fill:#f4d7d7;stroke-width:0.41121495" /><path
           transform="matrix(0.0012283,0,0,-9.504499e-4,-0.00114641,1.0019009)"
           inkscape:connector-curvature="0"
           id="path101"
           d="m 549.57531,744.08591 c -0.33925,-0.0661 -1.3147,-0.23414 -2.16767,-0.37344 -0.86365,-0.14104 -2.18469,-0.80979 -2.98131,-1.50923 -1.14579,-1.00602 -1.42925,-1.55436 -1.42439,-2.75542 0.01,-2.36597 0.76063,-3.28206 4.87039,-5.94048 3.16858,-2.04961 4.22739,-2.5208 5.99366,-2.66728 2.49043,-0.20652 4.61635,0.68981 7.2243,3.04594 1.53163,1.38374 4.11119,4.86826 4.11119,5.55348 0,0.17715 -0.64766,0.44359 -1.43925,0.59209 -0.79159,0.1485 -1.43925,0.42795 -1.43925,0.62099 0,0.19304 -0.40211,0.56618 -0.89357,0.8292 -0.68643,0.36737 -1.55886,0.35269 -3.76368,-0.0633 l -2.87013,-0.54155 -1.27369,1.46817 c -1.21139,1.39636 -2.59107,2.00494 -3.9466,1.74086 z"
           style="fill:#f4d7d7;stroke-width:0.41121495" /><path
           transform="matrix(0.0012283,0,0,-9.504499e-4,-0.00114641,1.0019009)"
           inkscape:connector-curvature="0"
           id="path103"
           d="m 558.89374,762.21739 c -0.33522,-0.33521 -0.68761,-0.84409 -0.78309,-1.13084 -0.11728,-0.35221 -1.18869,-0.54201 -3.30234,-0.58501 -1.7208,-0.035 -3.32462,-0.1847 -3.56404,-0.33268 -1.07559,-0.66474 0.24477,-3.87806 2.19265,-5.33617 2.14288,-1.60408 2.89353,-1.64543 4.48609,-0.24714 1.54359,1.35529 3.0482,1.62574 3.43512,0.61747 0.21988,-0.57302 -0.43328,-4.8248 -0.94676,-6.16289 -0.31252,-0.81443 1.46653,-1.78507 4.19693,-2.28982 4.91283,-0.90818 5.90298,-2.03885 4.87679,-5.56885 -1.64006,-5.64158 1.03892,-9.52107 5.09195,-7.37376 0.99346,0.52633 3.37211,3.13737 3.37211,3.70156 0,0.12191 -1.11566,0.78484 -2.47925,1.47318 -3.10895,1.56939 -4.10019,2.55143 -4.10019,4.06212 0,2.00921 1.85526,2.23265 5.2406,0.63113 1.22971,-0.58175 2.49663,-0.95765 2.81538,-0.83534 0.87153,0.33444 0.70065,1.89975 -0.46212,4.23312 -1.00397,2.0147 -2.47931,3.33623 -5.33051,4.77479 -1.21417,0.61261 -1.25996,0.59541 -3.1693,-1.19056 -2.09858,-1.96297 -2.91579,-2.1754 -4.39172,-1.14162 -0.87488,0.61279 -0.94362,0.91252 -0.79846,3.48152 0.15371,2.72025 0.21486,2.85897 1.89384,4.29611 2.86993,2.45655 2.14435,3.72848 -2.7904,4.89152 -3.3691,0.79405 -4.71351,0.80193 -5.48328,0.0322 z"
           style="fill:#f4d7d7;stroke-width:0.41121495" /><path
           transform="matrix(0.0012283,0,0,-9.504499e-4,-0.00114641,1.0019009)"
           inkscape:connector-curvature="0"
           id="path105"
           d="m 553.08339,772.75406 c -0.54459,-2.4795 -3.11795,-3.16879 -6.95244,-1.86225 -1.0703,0.36469 -2.04634,0.56274 -2.16896,0.44011 -0.37376,-0.37376 2.20666,-3.8175 4.02981,-5.37804 3.04309,-2.60478 6.64571,-2.384 7.17544,0.43973 0.39334,2.09665 -0.0285,4.85266 -0.97055,6.34047 l -0.82983,1.31063 z"
           style="fill:#f4d7d7;stroke-width:0.41121495" /><path
           transform="matrix(0.0012283,0,0,-9.504499e-4,-0.00114641,1.0019009)"
           inkscape:connector-curvature="0"
           id="path109"
           d="m 593.1641,728.6624 c 0,-0.92316 -0.65986,-3.58922 -1.46634,-5.92457 -1.73522,-5.02468 -1.76109,-6.91236 -0.11151,-8.13863 1.28734,-0.95699 2.64234,-0.75546 4.25666,0.63312 1.61217,1.38673 1.72479,3.4966 0.45013,8.4326 -0.59008,2.285 -1.07287,4.47016 -1.07287,4.85591 0,0.66329 -1.07871,1.77861 -1.74766,1.80698 -0.16963,0.007 -0.30841,-0.74224 -0.30841,-1.66541 z"
           style="fill:#f4d7d7;stroke-width:0.41121495" /><path
           transform="matrix(0.0012283,0,0,-9.504499e-4,-0.00114641,1.0019009)"
           inkscape:connector-curvature="0"
           id="path111"
           d="m 600.25756,736.30726 c -1.82781,-0.79444 -1.73109,-1.71054 0.59685,-5.65283 l 1.93329,-3.27398 0.55161,1.58302 c 0.30338,0.87066 0.66363,3.01714 0.80055,4.76994 l 0.24894,3.18692 -1.3974,-0.0161 c -0.76857,-0.009 -1.9988,-0.27749 -2.73384,-0.59697 z"
           style="fill:#f4d7d7;stroke-width:0.41121495" /><path
           transform="matrix(0.0012283,0,0,-9.504499e-4,-0.00114641,1.0019009)"
           inkscape:connector-curvature="0"
           id="path113"
           d="m 576.36329,727.24332 c -0.68076,-0.57282 -1.47468,-1.72937 -1.76426,-2.57009 -0.77217,-2.24187 -0.6481,-8.04955 0.23665,-11.07672 0.66104,-2.26175 0.83473,-2.51075 1.50225,-2.1535 0.41514,0.22217 1.52005,2.02069 2.45537,3.99671 2.05974,4.35157 2.29203,4.62387 5.59033,6.55329 2.56869,1.50263 3.1945,2.17965 2.01477,2.17965 -2.38841,0 -3.7508,2.52367 -1.64739,3.05159 2.10577,0.52852 0.45065,1.06056 -3.29926,1.06056 -3.52076,0 -3.95678,-0.0892 -5.08846,-1.04149 z"
           style="fill:#f4d7d7;stroke-width:0.41121495" /><path
           transform="matrix(0.0012283,0,0,-9.504499e-4,-0.00114641,1.0019009)"
           inkscape:connector-curvature="0"
           id="path117"
           d="m 598.26319,720.41777 c -0.005,-0.67216 0.30638,-1.9162 0.57914,-2.31622 0.12887,-0.189 0.17741,-0.18045 0.36401,0.0641 0.11843,0.15522 0.21532,0.43545 0.21532,0.62273 0,0.34852 -0.52556,1.48181 -0.92879,2.00279 -0.21285,0.275 -0.2253,0.25475 -0.22968,-0.37343 z"
           style="fill:#f4d7d7;stroke-width:0.14538644" /><path
           transform="matrix(0.0012283,0,0,-9.504499e-4,-0.00114641,1.0019009)"
           inkscape:connector-curvature="0"
           id="path119"
           d="m 568.96574,726.83274 c -0.11925,-0.37572 0.0427,-0.91371 0.25384,-0.84333 0.30938,0.10313 0.47871,0.52927 0.31404,0.79033 -0.23171,0.36732 -0.46131,0.38875 -0.56788,0.053 z"
           style="fill:#f4d7d7;stroke-width:0.14538644" /></g></g></g></svg>