<?xml version="1.0" encoding="UTF-8" standalone="no"?>
<!-- Created with Inkscape (http://www.inkscape.org/) -->

<svg
   xmlns:dc="http://purl.org/dc/elements/1.1/"
   xmlns:cc="http://creativecommons.org/ns#"
   xmlns:rdf="http://www.w3.org/1999/02/22-rdf-syntax-ns#"
   xmlns:svg="http://www.w3.org/2000/svg"
   xmlns="http://www.w3.org/2000/svg"
   xmlns:sodipodi="http://sodipodi.sourceforge.net/DTD/sodipodi-0.dtd"
   xmlns:inkscape="http://www.inkscape.org/namespaces/inkscape"
   version="1.1"
   id="svg29"
   xml:space="preserve"
   width="133.98337"
   height="110.67961"
   viewBox="0 0 133.98337 110.67961"
   sodipodi:docname="3.svg"
   inkscape:version="0.92.2 5c3e80d, 2017-08-06"><metadata
     id="metadata35"><rdf:RDF><cc:Work
         rdf:about=""><dc:format>image/svg+xml</dc:format><dc:type
           rdf:resource="http://purl.org/dc/dcmitype/StillImage" /><dc:title></dc:title></cc:Work></rdf:RDF></metadata><defs
     id="defs33" /><sodipodi:namedview
     pagecolor="#ffffff"
     bordercolor="#666666"
     borderopacity="1"
     objecttolerance="10"
     gridtolerance="10"
     guidetolerance="10"
     inkscape:pageopacity="0"
     inkscape:pageshadow="2"
     inkscape:window-width="1321"
     inkscape:window-height="815"
     id="namedview31"
     showgrid="false"
     inkscape:zoom="0.60795455"
     inkscape:cx="57.315675"
     inkscape:cy="72.150496"
     inkscape:window-x="0"
     inkscape:window-y="0"
     inkscape:window-maximized="0"
     inkscape:current-layer="g39"
     fit-margin-top="0"
     fit-margin-left="0"
     fit-margin-right="0"
     fit-margin-bottom="0" /><g
     id="g37"
     inkscape:groupmode="layer"
     inkscape:label="Button Bush_Frog Fruit"
     transform="matrix(1.3333333,0,0,-1.3333333,-391.80582,1001.174)"><g
       id="g39"
       transform="matrix(610.6,0,0,789.1,153.67196,-36.842991)"><path
         style="fill:#e9afdd;stroke-width:0.41121495"
         d=""
         id="path12"
         inkscape:connector-curvature="0"
         transform="matrix(0.0012283,0,0,-9.504499e-4,-0.2516737,1.050365)" /><path
         style="fill:#e9afdd;stroke-width:0.20560747"
         d=""
         id="path41"
         inkscape:connector-curvature="0"
         transform="matrix(0.0012283,0,0,-9.504499e-4,-0.2516737,1.050365)" /><path
         style="fill:#e9afdd;stroke-width:0.20560747"
         d=""
         id="path54"
         inkscape:connector-curvature="0"
         transform="matrix(0.0012283,0,0,-9.504499e-4,-0.2516737,1.050365)" /><path
         style="fill:#e9afdd;stroke-width:0.20560747"
         d=""
         id="path58"
         inkscape:connector-curvature="0"
         transform="matrix(0.0012283,0,0,-9.504499e-4,-0.2516737,1.050365)" /><path
         style="fill:#e9afdd;stroke-width:0.20560747"
         d=""
         id="path64"
         inkscape:connector-curvature="0"
         transform="matrix(0.0012283,0,0,-9.504499e-4,-0.2516737,1.050365)" /><g
         id="g97"><path
           inkscape:connector-curvature="0"
           id="path43"
           d="M 0.3941532,0.9325226 C 0.3917402,0.9285126 0.3834745,0.9304996 0.3817997,0.9279646 0.3840307,0.9104011 0.3537267,0.910434 0.3530862,0.92722368 c -0.002676,0.003347 -1.2149e-4,0.008522 -0.004842,0.011195 0.004728,0.004104 0.005886,-0.006898 0.009016,-0.008771 0.004222,-0.00343 0.008602,-0.0147216 0.014917,-0.006568 0.004359,0.00419 -0.00597,0.0111487 0.0078,0.010095 l 0.006482,0.001425 c 0.003056,0.005729 -0.0122241,0.004612 -0.0118551,0.00843 -0.00888,7.452e-5 -0.005288,0.0109411 -0.004685,0.01655 0.004747,0.004096 -0.0138036,-7.5376e-4 -0.0104367,8.7783e-4 -0.00698,-0.002236 -0.009778,0.005751 -0.012804,0.0102127 l -0.002293,-4.0554e-4 c 0.004703,-0.004337 0.002921,-0.0123381 0.009011,-0.0154 0.001516,-0.008075 -0.002724,-0.0140771 -0.009522,-0.017834 -0.00317,-0.004646 -0.004315,-0.0128167 0.004442,-0.014033 0.003507,-0.006754 0.022474,-0.004196 0.006549,-0.014746 -0.009017,9.5543e-4 -0.013713,-0.0138229 -0.023745,-0.008284 -0.00494,0.004211 -0.005109,-0.0151377 -0.0135233,-0.002639 -0.009941,0.004998 -0.0218976,-0.012138 -0.0291554,0.001295 -0.001704,0.004088 -0.008873,-0.004251 -0.0126375,-0.002271 -0.006323,-0.001544 -0.0108484,0.007857 -0.0167569,0.004795 -0.006405,-0.00436 -0.0218163,-0.002948 -0.0174871,0.008007 0.008111,0.005729 -0.007051,0.003069 -0.007082,0.00846 -0.001949,0.005402 -3.9889e-4,0.0119666 0.006323,0.012895 0.006701,-0.002965 -0.002878,-0.0144235 0.00709,-0.0132966 0.00257,-0.002477 0.0143978,1.0605e-4 0.00448,-0.005706 l -0.004197,-0.006843 0.001751,-0.001087 c 0.006855,9.1677e-4 0.0157809,0.0100348 0.020767,6.51e-4 0.007152,-0.006299 0.0148071,0.003582 0.0229733,2.6148e-4 0.009868,0.001103 -0.002472,-0.0181414 0.0129796,-0.003039 0.00259,0.003598 0.008526,0.008444 0.0116846,0.001645 0.005609,-0.004713 0.008191,0.0107929 0.001874,0.0105513 1.613e-5,0.004718 0.003521,0.00797 0.005456,0.01188 0.005339,-0.003554 -3.4462e-4,-0.0137932 0.002501,-0.0171654 0.003949,-1.4309e-4 0.006619,-0.007016 0.009189,-2.1637e-4 0.001651,0.00452 0.007678,0.005067 0.011883,0.005363 -0.004903,0.006561 -0.0128374,0.013455 -0.0163855,0.0184065 l -0.003883,9.2449e-4 c -0.006928,0.002704 0.0224828,-0.0146061 -0.006927,-0.005538 -0.004079,-0.003086 -0.0125401,-0.001549 -0.0157985,-0.003593 -7.58e-6,-0.003067 6.6934e-4,-0.006356 2.3323e-4,-0.009283 -0.002918,-0.003673 -0.007327,-0.0110768 -0.011863,-0.007372 0.003444,0.004492 0.006041,0.0104352 0.00561,0.0161079 -0.0104184,-0.003461 -0.0216751,0.003349 -0.0312527,-0.003673 l 5.2096e-4,0.003225 0.00494,0.005629 c -0.003791,8.9094e-4 -0.005892,0.005374 -0.004235,0.006921 -0.001838,-1.2585e-4 -0.007362,-1.5667e-4 -0.002645,0.00251 0.008577,0.001338 -0.002055,0.0103167 0.006735,0.0124519 0.004447,0.003759 3.2183e-4,0.0134982 0.00823,0.0168185 0.005202,0.006792 -0.008972,0.002351 -0.0101127,0.001806 -2.5561e-4,-0.003566 -0.008439,-0.004855 -0.003895,-0.008292 -9.7581e-4,-0.004893 0.008934,-0.007831 0.002186,-0.0118513 -0.006402,0.004548 -0.0146735,8.0476e-4 -0.02096,-0.001701 0.005215,-0.005118 -0.004039,-0.006173 -0.00669,-0.008027 -0.003341,1.933e-4 -0.005533,-0.003802 -0.001359,-0.004866 0.001646,-0.00852 -0.0124477,-0.001728 -0.0120935,0.001705 0.002808,0.005967 0.0110276,0.00725 0.0118845,0.014555 0.005671,0.0041 0.0129184,0.002614 0.019432,0.003232 -0.003138,0.003384 -0.007981,0.0126419 -6.83e-4,0.014775 0.006513,0.001929 0.003717,0.0138482 0.013852,0.009707 0.0207478,-0.003442 0.0313465,0.026947 0.0533624,0.0187653 0.0101451,-0.002524 0.017056,-0.0127225 0.0191796,-0.022556 0.003683,7.7082e-4 0.0104702,0.003076 0.008807,-0.004027 l -3.5014e-4,-0.004978 c 0.007142,-0.002717 0.0180288,0.006302 0.0237658,-0.002717 l -0.003535,-0.005455 0.001522,-0.004763 c -0.004929,-0.009445 0.008642,-0.006414 0.0128298,-0.010422 l 0.002806,-0.001401 z M 0.3403226,0.9535562 c -0.002123,-0.005804 0.005585,5.4234e-4 0,0 z M 0.3354866,0.9434068 c -0.006468,-0.004781 0.0107035,0.003653 10e-7,1e-8 z m 4.1346e-4,0.0239168 c -0.005025,0.004494 3.9707e-4,-0.005148 0,0 z m -0.006789,-0.0300179 c -0.003826,0.00284 0.002735,-0.004672 0,0 z m -0.007229,0.0465862 c -0.007013,-0.001603 0.007363,-0.002379 0.002828,-3.0082e-4 z m -0.001774,-0.0269555 -0.003016,0.001482 c 0.002612,-0.002773 0.006888,-0.007471 0.003016,-0.001482 z m -0.004653,0.0132093 c -0.004003,0.002336 6.081e-4,-0.007065 0.002011,-0.001798 l -0.002012,0.001797 z m -0.00317,-0.008951 -0.009326,-9.6057e-4 -8.9525e-4,-0.001184 0.008943,2.5889e-4 0.001277,0.001886 z m -0.00231,-0.0312854 c -0.003835,-0.002924 0.0100986,0.002255 0,0 z m 5.7605e-4,0.019157 c -0.002249,6.1454e-4 2.64e-4,-0.001804 0,0 z M 0.29981761,0.9278916 c 0.00401,0.0033 -0.004138,0.002095 -7.8996e-4,-0.001158 0.003616,-0.004879 0.004628,-9.6563e-4 7.8996e-4,0.001158 z m -0.009286,0.0317346 c -0.006192,0.00311 -5.7682e-4,-5.9925e-4 0.001282,-0.00291 -1.0189e-4,0.001086 1.6992e-4,0.002307 -0.001282,0.00291 z m 2.7321e-4,-0.0296527 c -0.00491,3.2473e-4 -0.004435,-0.004878 6.4201e-4,-0.002637 z m -0.003849,0.005482 -0.004792,-3.1697e-4 c -0.009561,-0.002463 0.005145,-0.001553 0.005584,-9.4658e-4 l 0.001741,4.2152e-4 -0.002534,8.4222e-4 z m -0.002725,0.0196548 c -0.00209,-5.7982e-4 0.002143,-0.001073 0,0 z m -8.7893e-4,-0.007295 -0.004459,-0.003447 c 0.002972,-0.002264 0.004134,-0.009992 0.005452,0.001241 z m -0.0115345,-0.0323102 -0.006233,0.001308 0.005609,0.001237 z m -0.009283,0.0181259 c -0.005074,-0.001764 -0.0105123,-0.004475 -0.016001,-0.002321 0.005003,0.003342 0.011624,0.003692 0.017401,0.003644 z"
           style="fill:#000000;stroke-width:0.00051864" /><path
           transform="matrix(0.0012283,0,0,-9.504499e-4,-0.2516737,1.050365)"
           inkscape:connector-curvature="0"
           id="path14"
           d="m 450.66678,95.670218 c 0.33097,-0.535519 3.53926,-1.618944 5.84764,-1.974716 1.28897,-0.19866 1.84222,-0.09328 2.39092,0.455423 0.39264,0.392641 0.56321,0.862972 0.37904,1.04518 -0.54247,0.536705 -8.94188,0.998813 -8.6176,0.474113 z"
           style="fill:#e9afdd;stroke-width:0.41121495" /><path
           transform="matrix(0.0012283,0,0,-9.504499e-4,-0.2516737,1.050365)"
           inkscape:connector-curvature="0"
           id="path16"
           d="m 461.49958,87.50262 c -0.1586,-0.158597 -0.28836,-0.797237 -0.28836,-1.4192 0,-0.621963 -0.23131,-1.213451 -0.51402,-1.314419 -0.28271,-0.100968 -0.41293,-0.294585 -0.28937,-0.430259 0.12356,-0.135674 0.82974,0.121292 1.56928,0.571036 0.9776,0.594511 1.30914,1.066255 1.2146,1.728239 -0.12896,0.903042 -1.13808,1.418657 -1.69213,0.864603 z"
           style="fill:#e9afdd;stroke-width:0.41121495" /><path
           transform="matrix(0.0012283,0,0,-9.504499e-4,-0.2516737,1.050365)"
           inkscape:connector-curvature="0"
           id="path22"
           d="m 480.74393,103.79993 c -0.36617,-0.59247 0.0807,-1.14794 1.52398,-1.89428 1.25391,-0.64842 1.26371,-0.6454 1.00758,0.31133 -0.14226,0.53137 -0.26118,1.19744 -0.26426,1.48015 -0.007,0.6099 -1.90082,0.69579 -2.2673,0.1028 z"
           style="fill:#e9afdd;stroke-width:0.41121495" /><path
           transform="matrix(0.0012283,0,0,-9.504499e-4,-0.2516737,1.050365)"
           inkscape:connector-curvature="0"
           id="path31"
           d="m 447.89073,161.95321 c -0.13729,-0.35775 -0.2496,-1.84731 -0.2496,-3.31014 0,-2.81086 -0.71814,-4.80032 -1.89592,-5.25228 -0.38099,-0.1462 -2.00699,-0.37523 -3.61335,-0.50895 -2.68401,-0.22345 -3.2281,-0.12266 -6.71553,1.24401 -5.73541,2.24763 -8.72221,1.87327 -10.34797,-1.29701 -2.26585,-4.41844 -4.48875,-4.664 -11.09075,-1.22517 -6.72048,3.50054 -7.66326,3.17188 -5.1828,-1.80671 0.82894,-1.66379 2.2467,-3.79026 3.15057,-4.72549 2.29761,-2.37731 2.04714,-3.09614 -1.31064,-3.76139 -1.46364,-0.28997 -2.84026,-0.70633 -3.05916,-0.92523 -0.2189,-0.2189 -0.9624,-0.40084 -1.65221,-0.4043 -2.59665,-0.013 -3.1547,-1.35826 -2.84816,-6.86563 0.19452,-3.49475 0.11638,-4.22957 -0.59284,-5.5754 -0.5849,-1.10989 -0.75436,-2.01636 -0.5967,-3.19178 0.18764,-1.39897 0.0601,-1.79 -0.86264,-2.64519 -0.59556,-0.55194 -1.08284,-1.35021 -1.08284,-1.77392 0,-0.80589 1.59517,-2.55861 2.32862,-2.55861 0.93265,0 6.07819,-3.15328 6.85232,-4.19923 0.78331,-1.05834 0.79197,-1.20002 0.17024,-2.7828 l -0.65508,-1.66767 1.68985,-0.8621 c 5.74067,-2.92867 9.93625,-3.54105 13.01336,-1.89941 l 1.73427,0.92523 0.16488,4.59104 c 0.14636,4.07528 0.075,4.70529 -0.63505,5.608 -0.43996,0.55932 -1.26014,1.13245 -1.82261,1.27363 -1.05463,0.26469 -2.07567,1.63569 -1.68679,2.26492 0.12105,0.19585 0.86979,0.47798 1.66388,0.62695 1.19125,0.22348 1.44379,0.44973 1.44379,1.29347 0,1.559 1.083,3.81522 2.43961,5.08249 l 1.21912,1.13883 -1.87546,2.69408 c -1.34932,1.93827 -1.9355,3.22668 -2.08945,4.59255 l -0.21399,1.89848 2.08168,-1.40087 c 2.90503,-1.95494 6.09637,-2.46536 11.6422,-1.86203 4.12473,0.44872 9.01229,0.32395 11.00255,-0.28087 0.97125,-0.29516 0.97221,-0.29189 0.68531,2.33487 -0.43073,3.94348 -1.3352,7.2085 -2.97539,10.74078 -1.63587,3.52295 -1.48833,4.43172 0.71945,4.43172 1.65706,0 3.39085,-1.65265 5.75698,-5.48755 l 2.06915,-3.35357 -0.0636,-4.89155 c -0.0505,-3.88196 0.0588,-4.96006 0.52946,-5.22345 0.32617,-0.18254 2.51282,-0.61893 4.8592,-0.96977 2.34639,-0.35084 4.94227,-0.9903 5.76862,-1.42102 l 1.50247,-0.78312 3.24675,1.14549 c 8.13164,2.86893 9.55129,1.6986 4.71882,-3.89011 -1.35529,-1.56738 -2.41558,-2.89836 -2.35621,-2.95773 0.40614,-0.40614 3.08937,0.8553 3.44315,1.61869 0.23551,0.50818 2.82314,4.22112 5.75029,8.25097 2.92714,4.02986 5.64345,7.87104 6.03623,8.53596 0.80483,1.36248 0.94302,1.25854 -2.64921,1.99259 -2.95595,0.60402 -5.02834,2.29319 -5.971,4.86686 -0.39293,1.07277 -1.02182,2.28183 -1.39752,2.68681 -0.65199,0.70278 -0.7755,0.66374 -2.71106,-0.85687 -1.11538,-0.87626 -2.34158,-1.70676 -2.7249,-1.84556 -1.05103,-0.38056 -1.26153,-2.50942 -0.77019,-7.78927 0.4695,-5.04518 0.14201,-8.12318 -1.02452,-9.62926 -0.57701,-0.74494 -0.60788,-0.74499 -1.18354,-0.002 -1.08231,1.39713 -3.86473,8.256 -4.15282,10.23699 -0.23386,1.60806 -0.17207,1.95327 0.34961,1.95327 0.34851,0 1.01718,0.48757 1.48594,1.08349 1.84475,2.34523 0.6006,10.43053 -1.60504,10.43053 -0.57004,0 -1.22084,-0.60956 -1.96349,-1.83906 -0.62585,-1.03613 -1.6347,-2.05606 -2.31069,-2.33607 -1.7455,-0.72301 -3.69472,0.47062 -6.14656,3.76392 -2.40617,3.23196 -6.22634,7.40187 -6.78105,7.40187 -0.22134,0 -0.51476,-0.2927 -0.65204,-0.65046 z m -21.63908,-20.83552 c -0.0129,-1.90194 -0.49505,-2.10619 -3.12933,-1.32575 -2.49645,0.7396 -2.47303,0.79798 0.66834,1.66608 2.51836,0.69593 2.46809,0.70288 2.46099,-0.34033 z m -11.28981,-16.38258 c 3.44957,-1.42987 4.71667,-2.26146 4.71667,-3.09555 0,-0.51736 -0.48713,-0.57606 -2.98131,-0.35926 -4.85254,0.42179 -11,2.59297 -11,3.88501 0,0.66776 2.54446,1.22364 4.52336,0.98821 1.01776,-0.12109 3.15133,-0.75937 4.74128,-1.41841 z"
           style="fill:#e9afdd;stroke-width:0.41121495" /><path
           transform="matrix(0.0012283,0,0,-9.504499e-4,-0.2516737,1.050365)"
           inkscape:connector-curvature="0"
           id="path33"
           d="m 493.23147,138.1339 c -1.82478,-0.95047 -4.46885,-3.2302 -4.46885,-3.85308 0,-0.16334 -0.63851,-0.52787 -1.4189,-0.81007 -3.1948,-1.15525 -4.70363,-4.61741 -3.93524,-9.0298 0.6067,-3.48397 1.17688,-4.5178 3.92517,-7.11702 1.52653,-1.44373 2.77936,-3.16914 3.79866,-5.23156 1.40243,-2.83761 1.53327,-3.41102 1.67946,-7.36038 0.14799,-3.99778 0.10022,-4.32388 -0.71716,-4.896401 -1.30295,-0.912617 -2.35498,-3.26652 -3.74544,-8.380316 -0.68583,-2.522341 -1.52036,-5.114756 -1.8545,-5.760923 -0.41298,-0.798607 -0.46757,-1.261354 -0.17047,-1.44497 0.55184,-0.34106 0.32402,-0.680178 2.79022,4.15325 3.42684,6.71616 4.81459,7.46132 11.51606,6.18362 4.65993,-0.888461 5.99138,-0.873231 5.60823,0.06415 -0.61404,1.502272 -1.48004,9.87447 -1.27485,12.32485 0.27638,3.30041 1.14533,4.95069 3.01901,5.73357 0.81586,0.34088 1.81741,1.04444 2.22567,1.56346 0.43883,0.55788 2.1017,1.41689 4.06753,2.10122 3.93725,1.37059 5.43832,2.56781 5.25168,4.18863 -0.11454,0.99467 -0.41663,1.20549 -2.59691,1.81235 -1.357,0.37771 -3.49013,0.70155 -4.74027,0.71965 -1.37458,0.0199 -2.64601,0.29418 -3.21674,0.69393 -0.91153,0.63846 -0.93401,0.79844 -0.65845,4.6852 l 0.2853,4.02418 -1.30088,1.89076 c -1.45921,2.12089 -2.84503,2.70329 -4.42298,1.85879 -0.57057,-0.30535 -2.25328,-2.41077 -3.73937,-4.6787 -1.48608,-2.26792 -3.11626,-4.62663 -3.62261,-5.24158 -0.50635,-0.61494 -1.24057,-2.09532 -1.63161,-3.28972 -1.01636,-3.10444 -2.50606,-5.93368 -3.28086,-6.231 -0.59755,-0.2293 -2.25096,0.33324 -2.25096,0.76585 0,0.0951 0.45772,0.84737 1.01716,1.67175 0.55944,0.82438 1.10395,2.08166 1.21002,2.79396 1.45781,9.78964 2.70532,14.173 4.66951,16.40724 0.85153,0.96861 0.26684,0.87847 -2.01663,-0.31089 z"
           style="fill:#e9afdd;stroke-width:0.41121495" /><path
           transform="matrix(0.0012283,0,0,-9.504499e-4,-0.2516737,1.050365)"
           inkscape:connector-curvature="0"
           id="path35"
           d="m 427.31592,104.44387 c 0.21064,-0.83925 -0.15366,-1.813 -1.62692,-4.34855 -1.04409,-1.796933 -1.90423,-3.780278 -1.91142,-4.407437 -0.007,-0.627159 -0.28476,-1.499488 -0.61682,-1.93851 -0.94262,-1.246252 -0.75016,-1.804772 1.45233,-4.214644 1.13084,-1.237321 2.05607,-2.58165 2.05607,-2.987398 0,-0.956881 4.92542,-2.600245 7.2289,-2.41192 1.5015,0.122757 1.60624,0.214372 1.52504,1.333972 -0.056,0.771727 -0.67475,1.802378 -1.7282,2.878505 -2.18435,2.231379 -2.8231,3.921046 -3.54159,9.368566 -0.59597,4.518566 -1.54082,7.321166 -2.57685,7.643386 -0.38577,0.11998 -0.45737,-0.13173 -0.26054,-0.91597 z"
           style="fill:#e9afdd;stroke-width:0.41121495" /><path
           transform="matrix(0.0012283,0,0,-9.504499e-4,-0.2516737,1.050365)"
           inkscape:connector-curvature="0"
           id="path37"
           d="m 433.68502,113.85604 -1.32444,-2.34679 1.56295,-1.6006 c 1.53639,-1.57341 1.56893,-1.58476 1.91446,-0.66775 0.38405,1.01924 0.0311,5.57105 -0.49844,6.42784 -0.2284,0.36956 -0.73807,-0.18883 -1.65453,-1.8127 z"
           style="fill:#e9afdd;stroke-width:0.41121495" /><path
           transform="matrix(0.0012283,0,0,-9.504499e-4,-0.2516737,1.050365)"
           inkscape:connector-curvature="0"
           id="path44"
           d="m 432.3856,122.66368 c -0.68305,-0.43329 1.56617,-1.25139 4.09848,-1.49072 1.72586,-0.16312 2.09441,-0.13921 2.8588,0.18543 l 0.87752,0.37268 -0.90553,0.3438 c -1.67281,0.63513 -6.24393,1.02355 -6.92927,0.58881 z"
           style="fill:#e9afdd;stroke-width:0.20560747" /><path
           transform="matrix(0.0012283,0,0,-9.504499e-4,-0.2516737,1.050365)"
           inkscape:connector-curvature="0"
           id="path46"
           d="m 439.80158,129.81023 c -0.46574,-0.17228 -0.87821,-0.77702 -0.87821,-1.28755 0,-0.56971 1.02825,-1.55275 1.76964,-1.69184 0.39425,-0.074 0.75913,-0.0922 0.81083,-0.0405 0.23516,0.23516 0.52064,2.48789 0.33838,2.67015 -0.31326,0.31326 -1.5611,0.52711 -2.04064,0.34971 z"
           style="fill:#e9afdd;stroke-width:0.20560747" /><path
           transform="matrix(0.0012283,0,0,-9.504499e-4,-0.2516737,1.050365)"
           inkscape:connector-curvature="0"
           id="path48"
           d="m 449.72492,131.80482 c -0.87325,-0.92592 -1.96043,-2.80987 -1.96043,-3.39721 0,-0.60855 0.89222,-1.45628 1.53271,-1.45628 0.63368,0 0.65725,0.29189 0.0977,1.20973 l -0.42414,0.69571 0.6075,0.64074 c 1.06295,1.12111 1.59101,2.57717 1.05484,2.90854 -0.11853,0.0733 -0.52721,-0.19729 -0.90817,-0.60123 z"
           style="fill:#e9afdd;stroke-width:0.20560747" /><path
           transform="matrix(0.0012283,0,0,-9.504499e-4,-0.2516737,1.050365)"
           inkscape:connector-curvature="0"
           id="path50"
           d="m 456.98146,127.22303 c 0.2288,-0.42753 2.20492,-1.03153 2.73227,-0.83513 0.33062,0.12314 -1.29427,0.91001 -2.2907,1.1093 -0.60777,0.12155 -0.64199,0.10031 -0.44157,-0.27417 z"
           style="fill:#e9afdd;stroke-width:0.20560747" /><path
           transform="matrix(0.0012283,0,0,-9.504499e-4,-0.2516737,1.050365)"
           inkscape:connector-curvature="0"
           id="path52"
           d="m 467.87547,71.502468 c 0.14842,-0.05939 0.32576,-0.05209 0.39408,0.01623 0.0683,0.06832 -0.0531,0.116917 -0.26986,0.10799 -0.23952,-0.0099 -0.28824,-0.05859 -0.12422,-0.124222 z"
           style="fill:#e9afdd;stroke-width:0.20560747" /><path
           transform="matrix(0.0012283,0,0,-9.504499e-4,-0.2516737,1.050365)"
           inkscape:connector-curvature="0"
           id="path56"
           d="m 466.01215,71.198341 c -0.76751,-0.280319 -0.71159,-0.480319 0.24082,-0.861399 0.63206,-0.252901 1.05468,-0.282157 1.95625,-0.135424 0.6325,0.102943 1.24119,0.243524 1.35264,0.312402 0.31187,0.192744 0.24023,0.659362 -0.1226,0.798593 -0.50278,0.192937 -2.79536,0.116561 -3.42711,-0.114172 z"
           style="fill:#e9afdd;stroke-width:0.20560747" /><path
           transform="matrix(0.0012283,0,0,-9.504499e-4,-0.2516737,1.050365)"
           inkscape:connector-curvature="0"
           id="path60"
           d="m 478.22686,87.885912 c 0,-0.28271 0.0467,-0.398364 0.10371,-0.257009 0.057,0.141355 0.057,0.372663 0,0.514019 -0.057,0.141355 -0.10371,0.0257 -0.10371,-0.25701 z"
           style="fill:#e9afdd;stroke-width:0.20560747" /><path
           transform="matrix(0.0012283,0,0,-9.504499e-4,-0.2516737,1.050365)"
           inkscape:connector-curvature="0"
           id="path62"
           d="m 465.92667,100.37576 c -0.71219,-0.797032 -2.36004,-3.031904 -2.23553,-3.031904 0.0654,0 0.49493,0.237378 0.95453,0.527506 0.6131,0.387036 0.97022,0.831851 1.34107,1.670417 0.5663,1.280511 0.54934,1.515981 -0.0601,0.833981 z"
           style="fill:#e9afdd;stroke-width:0.20560747" /><path
           transform="matrix(0.0012283,0,0,-9.504499e-4,-0.2516737,1.050365)"
           inkscape:connector-curvature="0"
           id="path66"
           d="m 457.22243,106.9046 c -0.20963,-0.25259 -0.19558,-0.30841 0.0776,-0.30841 0.18347,0 0.33359,0.13879 0.33359,0.30841 0,0.16963 -0.0349,0.30841 -0.0776,0.30841 -0.0427,0 -0.19281,-0.13878 -0.33359,-0.30841 z"
           style="fill:#e9afdd;stroke-width:0.20560747" /><path
           transform="matrix(0.0012283,0,0,-9.504499e-4,-0.2516737,1.050365)"
           inkscape:connector-curvature="0"
           id="path68"
           d="m 477.14008,113.63595 c 0.10659,-0.19916 0.36428,-0.51569 0.57266,-0.70338 0.4569,-0.41157 2.50502,-1.24136 2.81167,-1.13915 0.25093,0.0837 -1.19784,1.11655 -2.47603,1.76529 -1.05041,0.53313 -1.15714,0.54221 -0.9083,0.0772 z"
           style="fill:#e9afdd;stroke-width:0.20560747" /><path
           transform="matrix(0.0012283,0,0,-9.504499e-4,-0.2516737,1.050365)"
           inkscape:connector-curvature="0"
           id="path74"
           d="m 440.82105,96.282547 c -0.82216,-0.999457 -1.4338,-1.817196 -1.35919,-1.817196 0.25861,0 2.23502,1.29262 2.48026,1.622146 0.241,0.323834 0.58774,1.846359 0.44559,1.956569 -0.0395,0.03062 -0.7445,-0.762061 -1.56666,-1.761519 z"
           style="fill:#e9afdd;stroke-width:0.20560747" /></g></g></g></svg>