<?xml version="1.0" encoding="UTF-8" standalone="no"?>
<!-- Created with Inkscape (http://www.inkscape.org/) -->

<svg
   xmlns:dc="http://purl.org/dc/elements/1.1/"
   xmlns:cc="http://creativecommons.org/ns#"
   xmlns:rdf="http://www.w3.org/1999/02/22-rdf-syntax-ns#"
   xmlns:svg="http://www.w3.org/2000/svg"
   xmlns="http://www.w3.org/2000/svg"
   xmlns:sodipodi="http://sodipodi.sourceforge.net/DTD/sodipodi-0.dtd"
   xmlns:inkscape="http://www.inkscape.org/namespaces/inkscape"
   version="1.1"
   id="svg45"
   xml:space="preserve"
   width="52.964958"
   height="54.971996"
   viewBox="0 0 52.964958 54.971996"
   sodipodi:docname="1.svg"
   inkscape:version="0.92.2 5c3e80d, 2017-08-06"><metadata
     id="metadata51"><rdf:RDF><cc:Work
         rdf:about=""><dc:format>image/svg+xml</dc:format><dc:type
           rdf:resource="http://purl.org/dc/dcmitype/StillImage" /><dc:title /></cc:Work></rdf:RDF></metadata><defs
     id="defs49" /><sodipodi:namedview
     pagecolor="#ffffff"
     bordercolor="#666666"
     borderopacity="1"
     objecttolerance="10"
     gridtolerance="10"
     guidetolerance="10"
     inkscape:pageopacity="0"
     inkscape:pageshadow="2"
     inkscape:window-width="1434"
     inkscape:window-height="856"
     id="namedview47"
     showgrid="false"
     inkscape:zoom="2.5284424"
     inkscape:cx="104.23558"
     inkscape:cy="-5.8740644"
     inkscape:window-x="0"
     inkscape:window-y="0"
     inkscape:window-maximized="0"
     inkscape:current-layer="g55"
     fit-margin-top="0"
     fit-margin-left="0"
     fit-margin-right="0"
     fit-margin-bottom="0" /><g
     id="g53"
     inkscape:groupmode="layer"
     inkscape:label="Button Bush_Frog Fruit"
     transform="matrix(1.3333333,0,0,-1.3333333,-374.72165,726.28777)"><g
       id="g55"
       transform="matrix(610.6,0,0,789.1,273.36949,-69.913561)"><path
         style="fill:#000000;stroke-width:0.00051864"
         d="m 0.02213921,0.76965368 c 5.0802e-4,0.001095 0.0017134,0.002591 0.0026864,0.003334 0.0019145,0.001461 0.0081067,0.003495 0.0093809,0.003082 4.3347e-4,-1.4052e-4 8.9037e-4,-6.668e-5 0.0010153,1.641e-4 4.5519e-4,8.4073e-4 0.0062683,0.0026 0.0087906,0.00266 0.0035499,8.414e-5 0.0059953,-7.9756e-4 0.0080314,-0.002896 0.0015487,-0.001596 0.0022924,-0.001954 0.0074665,-0.003585 0.009335,-0.002944 0.01533553,-0.006819 0.01409825,-0.009104 -2.8543e-4,-5.2717e-4 2.9259e-4,-0.001499 0.0016995,-0.002857 0.0021816,-0.002107 0.0028343,-0.004118 0.0018973,-0.005848 -2.904e-4,-5.3637e-4 -2.9863e-4,-0.001851 -1.796e-5,-0.002921 5.3357e-4,-0.002035 -3.6607e-4,-0.005523 -0.0014583,-0.005657 -3.4888e-4,-4.27e-5 -0.0012055,-0.00122 -0.0019033,-0.002615 l -0.0012689,-0.002538 0.0019542,-3.2432e-4 c 0.003263,-5.4157e-4 0.0038451,-0.002582 9.8264e-4,-0.003441 -7.799e-4,-2.3388e-4 -0.0019566,-0.001105 -0.0026147,-0.001936 -0.0013039,-0.001645 -0.0063083,-0.003973 -0.0086644,-0.004029 -7.7697e-4,-1.855e-5 -0.002679,-6.9616e-4 -0.004227,-0.001506 -0.0027588,-0.001444 -0.007251,-0.002114 -0.0094299,-0.001408 -5.1311e-4,1.6634e-4 -0.0012713,2.256e-5 -0.0016849,-3.196e-4 -0.0018004,-0.001489 -0.0044285,-0.001655 -0.0079829,-5.0282e-4 -0.0019216,6.226e-4 -0.0048434,0.001171 -0.0066881,0.001255 -0.003304,1.4994e-4 -0.005829,9.4165e-4 -0.0057559,0.001804 2.199e-5,2.5707e-4 -7.5028e-4,7.2359e-4 -0.0017157,0.001037 -9.6586e-4,3.1312e-4 -0.0027677,0.001454 -0.004004,0.002535 -0.0012363,0.001081 -0.0023948,0.002013 -0.0025748,0.002071 -9.8523e-4,3.194e-4 -0.0024235,0.002941 -0.0022104,0.004028 2.678e-4,0.001363 -4.1172e-4,0.002433 -0.0031067,0.004896 -0.001289,0.001178 -0.0018259,0.002352 -0.0021227,0.004645 -4.6324e-4,0.00357 1.1762e-4,0.005002 0.0024303,0.005998 -0.00610579,0.001629 0.0047607,0.009292 0.0069974,0.01398 z m 0.04777936,-0.0307361 c -6.103e-4,-1.9341e-4 -8.0541e-4,-5.436e-4 -6.8849e-4,-0.001236 1.4282e-4,-8.4698e-4 2.4785e-4,-8.1369e-4 8.5156e-4,2.6987e-4 5.0204e-4,9.0105e-4 4.5802e-4,0.001163 -1.6307e-4,9.6613e-4 z m -0.0083585,-7.0489e-4 c -3.9701e-4,2.9384e-4 -0.0014434,7.6819e-4 -0.0023255,0.001054 -0.0019012,6.1632e-4 -0.0020671,0.001824 -3.407e-4,0.002479 0.0013403,5.085e-4 0.0029682,0.003863 0.0024781,0.005107 -3.6463e-4,9.2536e-4 0.0013493,0.001673 0.0027753,0.00121 5.6153e-4,-1.8204e-4 0.0010552,-1.7511e-4 0.0010969,1.539e-5 4.178e-5,1.905e-4 6.7098e-4,7.5147e-4 0.0013981,0.001246 0.0018372,0.001251 0.0016942,0.002143 -5.2428e-4,0.003273 -0.0019341,9.8514e-4 -0.0035203,0.003374 -0.0029461,0.004434 1.9055e-4,3.5194e-4 0.0013131,4.2753e-4 0.0028193,1.8925e-4 0.001376,-2.1739e-4 0.0024378,-2.4884e-4 0.0023596,-6.984e-5 -7.878e-5,1.7917e-4 2.9602e-4,5.033e-4 8.3269e-4,7.2002e-4 0.0019498,7.8825e-4 9.3762e-4,0.001775 -0.0026519,0.002586 -0.0025754,5.8216e-4 -0.0035304,9.9481e-4 -0.004198,0.001814 -8.9338e-4,0.001096 -5.2247e-4,0.002583 6.7889e-4,0.00273 9.9221e-4,1.2144e-4 0.0015218,0.001358 6.0442e-4,0.001412 -4.2606e-4,2.476e-5 -8.9095e-4,-1.6977e-4 -0.0010331,-4.3228e-4 -4.8687e-4,-8.9925e-4 -0.003076,-0.001574 -0.0043967,-0.001146 -0.0020776,6.7352e-4 -0.0027189,0.00135 -0.0031132,0.003284 -3.8607e-4,0.001888 -0.0016592,0.002681 -0.0034119,0.002125 -5.6954e-4,-1.805e-4 -0.0016964,-3.771e-4 -0.0025048,-4.3637e-4 -0.0020838,-1.5312e-4 -0.0031934,0.001933 -0.0019068,0.003585 8.4688e-4,0.001087 7.9789e-4,0.001178 -7.9148e-4,0.001481 -0.0028933,5.4881e-4 -0.0062108,-7.4423e-4 -0.0065419,-0.002551 -1.4222e-4,-7.7538e-4 2.2763e-4,-0.001143 0.0015968,-0.001587 0.0011877,-3.8502e-4 0.0017709,-8.5953e-4 0.0017486,-0.001423 -1.825e-5,-4.6502e-4 -3.147e-4,-8.2922e-4 -6.5868e-4,-8.0916e-4 -0.0019141,1.1107e-4 -0.005445,-8.1797e-4 -0.0069378,-0.001826 -0.0021265,-0.001436 -0.0024788,-0.001949 -0.0011166,-0.001628 0.001593,3.7624e-4 0.0050979,-0.001187 0.0048318,-0.002155 -1.4087e-4,-5.1275e-4 -7.9183e-4,-7.7857e-4 -0.0018403,-7.516e-4 -8.9204e-4,2.305e-5 -0.0017684,-1.9434e-4 -0.0019471,-4.8293e-4 -1.7882e-4,-2.8885e-4 -7.5963e-4,-0.00115 -0.001291,-0.001914 -5.5286e-4,-7.948e-4 -8.3467e-4,-0.001937 -6.5859e-4,-0.00267 2.566e-4,-0.001071 6.273e-4,-0.001335 0.002253,-0.001605 0.0039533,-6.5614e-4 0.0044664,-0.003018 9.0277e-4,-0.004148 L 0.03493101,0.75073 0.03585008,0.749418 c 7.0031e-4,-0.001 7.0629e-4,-0.001532 2.476e-5,-0.002236 -0.0011616,-0.001201 -0.0027385,-9.9486e-4 -0.0046025,6.0106e-4 -0.0011776,0.001008 -0.0015607,0.002094 -0.0017937,0.005088 -1.6271e-4,0.002093 -1.4821e-4,0.004113 3.25e-5,0.004488 1.8071e-4,3.7522e-4 1.503e-5,0.001431 -3.6826e-4,0.002345 -7.8386e-4,0.00187 -1.6631e-4,0.003494 0.0015668,0.004123 0.0010243,3.7174e-4 0.0010762,5.1525e-4 4.3774e-4,0.001213 -0.0010253,0.001121 -0.0053957,9.8387e-4 -0.0070801,-2.2249e-4 -0.0020505,-0.001468 -0.0020752,-0.001955 -1.1743e-4,-0.002343 0.0020459,-4.0598e-4 0.0030149,-0.002053 0.0024989,-0.004243 -3.7698e-4,-0.001599 -0.002642,-0.003522 -0.0037319,-0.003169 -0.0010341,3.3524e-4 -0.0013193,-3.8814e-4 -4.1644e-4,-0.001056 5.4841e-4,-4.0589e-4 4.7986e-4,-8.4598e-4 -2.6458e-4,-0.001699 -0.0013872,-0.001589 -0.0013556,-0.0034 7.115e-5,-0.004058 8.472e-4,-3.908e-4 0.0010223,-8.0579e-4 6.2288e-4,-0.001476 -3.0571e-4,-5.1304e-4 -2.6857e-4,-0.001026 8.268e-5,-0.00114 8.7747e-4,-2.8445e-4 0.0017094,-0.002249 0.0013738,-0.003247 -1.5145e-4,-4.5089e-4 1.8997e-4,-0.001241 7.5826e-4,-0.001757 0.0013018,-0.00118 9.0226e-4,-0.00197 -0.001047,-0.002069 -0.0014351,-7.316e-5 -0.0013912,-1.663e-4 8.9259e-4,-0.001894 0.003654,-0.002764 0.0047777,-0.00329 0.00599,-0.0028 8.7971e-4,3.5559e-4 9.283e-4,4.7287e-4 2.8264e-4,6.8218e-4 -0.0012516,4.0573e-4 -0.0022773,0.002654 -0.0016985,0.003724 4.0959e-4,7.5651e-4 2.3205e-4,0.00108 -7.7072e-4,0.001405 -0.0025651,8.3155e-4 -0.0039847,0.003978 -0.0027899,0.006185 6.2135e-4,0.001148 0.0019303,0.001546 0.0038527,0.001174 0.0011085,-2.1472e-4 0.0014042,-6.4398e-4 0.0015331,-0.002223 1.0471e-4,-0.001289 5.9832e-4,-0.002207 0.0014477,-0.002693 0.0021312,-0.001219 0.0020801,-0.00261 -9.264e-5,-0.002539 -0.0012627,4.145e-5 -0.0012587,-2.056e-5 6.771e-5,-0.001056 7.7512e-4,-6.0468e-4 0.0013282,-0.00125 0.0012285,-0.001434 -1.6065e-4,-2.9671e-4 0.003931,-0.002739 0.0053697,-0.003206 3.045e-4,-9.871e-5 5.9987e-4,2.1931e-4 6.5635e-4,7.0672e-4 1.7367e-4,0.001499 0.0018791,0.0015 0.0058243,2.03e-6 0.0047699,-0.001811 0.0075256,-0.001729 0.0080563,2.3991e-4 6.353e-5,2.3614e-4 9.2563e-4,0.001014 0.0019162,0.001729 0.001538,0.00111 0.0020528,0.001217 0.0035299,7.3828e-4 0.0024077,-7.8055e-4 0.0038853,-2.1251e-4 0.002368,9.1108e-4 z m -0.0083304,-5.8565e-4 c -9.857e-4,-4.5059e-4 -0.0022641,-6.2597e-4 -0.0029471,-4.0455e-4 -0.001782,5.7768e-4 -0.0035871,0.002272 -0.0034785,0.003264 7.431e-5,6.8118e-4 -3.3233e-4,9.5844e-4 -0.0018794,0.00128 -0.0026558,5.528e-4 -0.0040463,0.001859 -0.0042832,0.004022 -1.6129e-4,0.001473 1.3803e-4,0.002258 0.0016634,0.004365 0.0010232,0.001413 0.0022609,0.002623 0.0027503,0.002687 4.8933e-4,6.446e-5 6.3614e-4,2.0282e-4 3.2625e-4,3.0744e-4 -3.1e-4,1.0445e-4 -3.966e-4,0.001138 -1.9314e-4,0.002296 2.0382e-4,0.001158 5.051e-5,0.002209 -3.4083e-4,0.002336 -0.0013886,4.5017e-4 -0.0031436,0.004258 -0.0026962,0.005851 5.7897e-4,0.002064 0.0021798,0.002781 0.0046575,0.002086 0.0018965,-5.3179e-4 0.0019063,-5.5505e-4 8.7939e-4,-0.002097 -5.7112e-4,-8.5767e-4 -8.9379e-4,-0.001927 -7.1671e-4,-0.002375 2.7498e-4,-6.9784e-4 4.9979e-4,-7.2896e-4 0.0015524,-2.1492e-4 8.2548e-4,4.0322e-4 0.0018934,-4.8842e-4 0.0030829,6.2e-7 l 0.0018523,-6.0048e-4 -0.0017287,-0.002942 c -0.0016364,-0.002785 -0.0016724,-0.003013 -6.7686e-4,-0.004286 6.9535e-4,-8.8865e-4 7.9667e-4,-0.001453 3.0031e-4,-0.001665 -4.1316e-4,-1.7688e-4 -0.0013405,-0.001021 -0.0020607,-0.001876 l -0.0020437,-0.002421 c -0.0010674,-0.00126 1.02e-4,-0.003233 0.0019525,-0.003293 0.0017415,-5.713e-5 0.0034296,-0.001359 0.0032919,-0.00254 -5.446e-5,-4.6997e-4 5.0915e-4,-0.001118 0.0012575,-0.001445 0.0017556,-7.688e-4 0.0016253,-0.001354 -5.2161e-4,-0.002335 z m 0.007453,0.0158093 c -3.8039e-4,-4.656e-5 -0.0013869,5.3368e-4 -0.002236,0.001289 -0.0012294,0.001094 -0.0013993,0.00158 -8.34e-4,0.00238 8.2102e-4,0.001162 0.0026754,0.00101 0.0036494,-2.988e-4 7.5969e-4,-0.001021 3.7646e-4,-0.003254 -5.794e-4,-0.00337 z M 0.03968716,0.73238268 c -3.1605e-4,-1.6743e-4 -0.0016294,-2.6117e-4 -0.0029192,-2.0806e-4 -0.0049661,2.0382e-4 -0.0022691,-0.001096 0.0029246,-0.00141 0.0022319,-1.3482e-4 0.0022423,-1.2854e-4 0.0014088,8.9319e-4 -5.2124e-4,6.3906e-4 -0.0010577,9.1389e-4 -0.0014142,7.2487e-4 z m -0.0039584,0.0394636 c -0.0017188,4.8997e-4 -0.0040135,-1.1756e-4 -0.0064385,-0.001706 -0.0023594,-0.001545 -0.0023515,-0.001517 -5.6401e-4,-0.001809 9.9789e-4,-1.6283e-4 0.0021444,1.8236e-4 0.0034552,0.00104 0.0010787,7.0656e-4 0.0025711,0.001361 0.0033169,0.001455 0.0018153,2.2913e-4 0.0018877,5.4665e-4 2.304e-4,0.001019 z"
         id="path3748"
         inkscape:connector-curvature="0"
         sodipodi:nodetypes="ccsscccscscccccccccsccccscsccccccccccsccscccscccccccssccccccscccccccccccccccccccccccsccccscccccsssscccccssccccscccscccccccscccccscccccccccccccccccccccccccc" /><path
         style="fill:#f9f9f9;stroke-width:0.55932206"
         d="m 27.204559,46.396973 c -2.931364,-1.330139 -5.112649,-1.444214 -5.112649,-0.267377 0,1.449327 -1.074063,0.927759 -3.743381,-1.817797 -1.965006,-2.021127 -2.361478,-2.700047 -1.657102,-2.837622 1.245099,-0.243184 1.167488,-1.572882 -0.192737,-3.302128 -0.615254,-0.782169 -1.118644,-2.008564 -1.118644,-2.725322 0,-1.525196 -1.78992,-2.678571 -3.37576,-2.175245 -1.319913,0.418924 -1.907823,2.433299 -1.479864,5.070502 0.186323,1.148172 0.100049,1.807083 -0.211405,1.614593 -0.289405,-0.178862 -0.5261913,-1.017328 -0.5261913,-1.863257 0,-0.84593 -0.349543,-2.016082 -0.7767622,-2.600339 C 8.5828443,34.908724 8.3616752,34.096158 8.5185766,33.68728 8.6754781,33.278401 8.3517921,32.444343 7.7992743,31.833818 6.8451782,30.779554 6.8427365,30.623032 7.7506837,28.719046 8.485469,27.178186 8.556952,26.533921 8.0596181,25.93467 7.5418601,25.31081 7.6434414,25.15502 8.5679798,25.15502 c 1.5825042,0 2.8968122,-2.065451 2.8968122,-4.552378 0,-1.598536 -0.348133,-2.33003 -1.5381358,-3.231918 L 8.3885206,16.20499 9.7089591,15.086784 c 1.4132859,-1.196832 4.2487769,-1.502726 4.8538859,-0.523639 0.202105,0.327013 -0.0282,1.031772 -0.511793,1.566135 -0.740231,0.817945 -0.824543,2.028404 -0.533224,7.655433 0.395606,7.641415 0.699259,8.779509 2.690567,10.084264 1.356137,0.888575 1.501299,0.884309 2.56164,-0.07529 0.618221,-0.559482 0.989315,-1.34774 0.824652,-1.751684 -0.164663,-0.403945 -0.443437,-1.089248 -0.619498,-1.522897 -0.195984,-0.482717 0.129577,-0.931179 0.839576,-1.156524 0.637829,-0.202439 1.431178,-0.875352 1.762997,-1.495364 0.727202,-1.358789 -0.472221,-2.976673 -2.603287,-3.511537 -1.061377,-0.266389 -1.357141,-0.708269 -1.357141,-2.027609 0,-2.115158 1.482026,-4.444242 2.827928,-4.444242 0.561719,0 1.186665,-0.267555 1.38877,-0.594566 0.573266,-0.927565 -1.435569,-2.761366 -3.024935,-2.761366 -1.320506,0 -1.361117,-0.07035 -0.523893,-0.90758 0.499169,-0.499168 2.245516,-1.360515 3.880771,-1.914104 1.635255,-0.553588 3.058271,-1.261763 3.162257,-1.573721 C 25.432218,9.8205376 24.872433,9.1427676 24.084265,8.6263402 23.296097,8.1099128 22.651233,7.3530584 22.651233,6.9444416 c 0,-1.0869347 2.252494,-2.4843373 4.004542,-2.4843373 1.434765,0 1.500111,0.1123811 1.187059,2.0414966 -0.419088,2.5825323 0.778825,3.6862771 3.235957,2.9815815 1.865413,-0.5349936 3.318204,0.466775 3.318204,2.2880606 0,1.766029 2.111254,3.461443 3.970612,3.188547 1.470324,-0.215797 1.622609,-0.08687 1.622609,1.373727 0,1.424849 0.373163,1.77655 3.216101,3.031128 3.962534,1.748651 3.928992,1.714674 2.63024,2.664346 -0.649023,0.474576 -1.777566,0.661793 -2.89561,0.480359 -1.709457,-0.277407 -1.832087,-0.191032 -1.832087,1.29043 0,1.062531 0.653442,2.256922 1.97541,3.610739 l 1.97541,2.023004 -1.203768,1.530342 c -0.667881,0.849072 -1.547282,1.398522 -1.975409,1.234234 -1.408975,-0.540673 -2.449609,0.306279 -2.449609,1.99369 0,1.841324 -1.413442,4.946282 -2.251652,4.946282 -1.27724,0 -0.444724,2.260394 1.133008,3.076271 2.214151,1.144982 2.125673,1.60679 -0.223416,1.166098 -1.718505,-0.322393 -2.086787,-0.140095 -3.829077,1.89538 -2.212221,2.584483 -3.410619,2.774922 -7.055198,1.121153 z m 6.710981,-3.336008 1.320438,-1.111005 -1.20823,-0.986453 c -0.664527,-0.54255 -1.293764,-1.489843 -1.398305,-2.105097 -0.107465,-0.632458 -1.101674,-1.564078 -2.287532,-2.143523 -2.646461,-1.293137 -2.662083,-2.344654 -0.08499,-5.720828 1.786809,-2.340847 1.940382,-2.794685 1.369598,-4.04742 -0.530087,-1.163413 -0.42639,-1.944318 0.591077,-4.451195 1.414988,-3.486306 1.007849,-4.22342 -2.155346,-3.902192 -2.00646,0.20376 -2.228736,-0.31419 -1.150444,-2.680783 0.755037,-1.657126 0.04147,-2.479134 -2.165536,-2.494647 -3.103291,-0.02181 -3.77972,3.193625 -1.594392,7.579008 1.544026,3.098455 1.608005,5.591312 0.184022,7.170163 -1.457629,1.616159 -2.684666,4.525658 -2.684666,6.365771 0,2.038913 1.741572,4.35962 3.626747,4.832768 0.773933,0.194246 1.407151,0.691977 1.407151,1.10607 0,1.363414 2.282551,3.700367 3.614225,3.700367 0.71266,0 1.889943,-0.499952 2.616183,-1.111004 z m 6.074676,-18.11712 c 0,-2.075753 -1.182783,-3.45446 -2.522513,-2.940357 -1.496883,0.574408 -1.600214,2.019606 -0.247362,3.459651 1.817204,1.934326 2.769875,1.75572 2.769875,-0.519294 z"
         id="path9"
         inkscape:connector-curvature="0"
         transform="matrix(0.0012283,0,0,-9.504499e-4,0.01256429,0.77889925)" /><path
         style="fill:#f9f9f9;stroke-width:0.55932206"
         d="M 11.099128,45.032902 C 8.6584822,42.786856 8.5203547,42.536207 9.7122297,42.516211 10.823937,42.497559 10.973749,42.292449 10.647637,41.235528 10.434072,40.543367 10.057268,39.012953 9.8102955,37.834607 9.5633233,36.656262 9.0991348,35.430041 8.7787655,35.109672 8.4583963,34.789302 8.3329806,34.170935 8.500064,33.735523 8.6671474,33.30011 8.3625874,32.456272 7.823264,31.860327 6.9783909,30.926752 6.9394658,30.543117 7.5420172,29.088429 7.9266549,28.159832 8.1092624,26.894934 7.9478115,26.277545 7.7346029,25.462234 7.9284804,25.15502 8.6562175,25.15502 c 1.3992135,0 2.8085745,-2.379959 2.8085745,-4.74278 0,-1.615617 -0.319208,-2.179649 -1.7133817,-3.027497 L 8.0380288,16.342774 9.5471787,15.155676 c 2.6076503,-2.051178 7.1558123,-1.096032 4.7052623,0.988138 -0.969642,0.824672 -1.030937,1.480569 -0.723227,7.739046 0.37995,7.727789 1.300251,10.221312 3.772445,10.221312 1.731162,0 2.676388,-1.520886 1.875398,-3.017549 -0.460374,-0.860217 -0.362346,-1.240885 0.466918,-1.813164 2.311017,-1.594844 2.48553,-1.884447 1.85053,-3.070956 -0.334351,-0.624738 -1.343493,-1.392314 -2.24254,-1.705724 -1.344426,-0.468669 -1.634631,-0.885574 -1.634631,-2.348294 0,-2.172877 1.371079,-4.264652 2.795317,-4.264652 0.579655,0 1.234667,-0.292457 1.455582,-0.649905 0.516954,-0.836448 -1.763675,-2.700213 -3.334049,-2.724635 -1.171848,-0.01822 -1.168582,-0.04186 0.158447,-1.146597 0.745227,-0.620393 2.444168,-1.419307 3.775424,-1.775364 2.67244,-0.714768 3.259846,-2.1640706 1.301822,-3.2119735 -0.615255,-0.329274 -1.118644,-0.9283573 -1.118644,-1.3312962 0,-1.2312697 1.95154,-2.583958 3.727909,-2.583958 1.613749,0 1.680235,0.096727 1.633924,2.3771186 l -0.04827,2.3771187 2.237288,0.094457 c 1.230508,0.051951 2.542205,0.1148748 2.914882,0.1398305 0.372677,0.024956 0.947539,1.0478739 1.277472,2.2731509 0.691112,2.566595 2.221448,3.620819 4.573273,3.150454 1.064226,-0.212845 1.511372,-0.123507 1.277317,0.255201 -0.938271,1.518156 0.343591,3.201659 3.374496,4.431813 1.695408,0.688116 3.08256,1.38291 3.08256,1.543988 0,0.867321 -2.143395,1.668638 -3.761133,1.406115 -1.680555,-0.272716 -1.832087,-0.175733 -1.832087,1.17257 0,0.894039 0.76636,2.318146 1.956202,3.635159 l 1.956202,2.165282 -1.184559,1.505923 c -0.721107,0.916739 -1.514197,1.379429 -2.027096,1.182611 -1.185553,-0.454939 -2.378715,0.703354 -2.378715,2.3092 0,1.60764 -1.474524,4.657976 -2.251652,4.657976 -0.630944,0 -0.755369,2.23105 -0.125467,2.249724 0.23072,0.0068 1.048729,0.512009 1.817797,1.122595 l 1.398305,1.11016 -2.178743,-0.123745 c -1.890718,-0.107385 -2.41614,0.150886 -3.974529,1.953676 -2.09877,2.427918 -2.734142,2.497765 -7.45074,0.81906 -3.431267,-1.221238 -3.558931,-1.227711 -4.301655,-0.218127 -0.741702,1.008194 -0.817816,1.003168 -2.454251,-0.162077 -0.928846,-0.661397 -2.21935,-1.947612 -2.867787,-2.858258 -0.979338,-1.375352 -1.030461,-1.65572 -0.301907,-1.65572 1.237189,0 1.090265,-1.870973 -0.241575,-3.076273 -0.615254,-0.556797 -1.118644,-1.719578 -1.118644,-2.583958 0,-2.392488 -2.499733,-3.505897 -4.154964,-1.850666 -1.6493944,1.649394 -0.559486,6.869901 1.607899,7.701605 0.477461,0.183219 0.709121,0.694018 0.528374,1.165037 -0.177027,0.461323 0.0585,1.601237 0.523398,2.533142 1.301673,2.609266 0.201845,2.517925 -2.785625,-0.231345 z m 22.654926,-1.760233 c 1.278132,-0.895238 1.278984,-0.90471 0.188738,-2.097458 -0.602355,-0.658986 -1.274221,-1.787448 -1.493036,-2.507692 -0.230118,-0.757453 -1.20043,-1.644877 -2.301573,-2.104964 -2.421524,-1.011777 -2.408561,-1.995365 0.0738,-5.599642 1.728587,-2.50983 1.898118,-3.045575 1.346708,-4.255789 -0.517477,-1.135739 -0.404256,-1.911173 0.630132,-4.315672 1.447997,-3.36596 1.024288,-4.11919 -2.136573,-3.7982 -2.00646,0.20376 -2.228736,-0.31419 -1.150444,-2.680783 0.544216,-1.194425 0.518416,-1.558909 -0.139831,-1.975381 -1.403567,-0.888033 -3.22987,-0.571847 -4.131399,0.715265 -1.20987,1.727332 -1.093349,3.124361 0.532757,6.387532 1.529345,3.068993 1.584602,5.694389 0.154183,7.325493 -3.729715,4.252987 -3.435635,9.068086 0.657374,10.763465 0.935133,0.387345 1.700242,1.062711 1.700242,1.500814 0,1.136915 2.556868,3.542312 3.765378,3.542312 0.560788,0 1.597384,-0.404685 2.303544,-0.8993 z m 6.236162,-18.328824 c 0,-2.248573 -1.329218,-3.638682 -2.670373,-2.792702 -1.364881,0.860944 -1.38677,1.553991 -0.10072,3.18894 1.650188,2.097874 2.771093,1.937596 2.771093,-0.396238 z"
         id="path11"
         inkscape:connector-curvature="0"
         transform="matrix(0.0012283,0,0,-9.504499e-4,0.01256429,0.77889925)" /><path
         style="fill:#f9f9f9;stroke-width:0.39550039"
         d="m 19.400738,50.122832 c -1.985044,-0.477466 -1.449281,-0.939992 0.957361,-0.826492 1.588919,0.07493 2.600454,0.304796 2.702586,0.614135 0.165613,0.501611 -1.947623,0.624225 -3.659947,0.212357 z"
         id="path13"
         inkscape:connector-curvature="0"
         transform="matrix(0.0012283,0,0,-9.504499e-4,0.01256429,0.77889925)" /><path
         style="fill:#f9f9f9;stroke-width:0.39550039"
         d="M 13.461506,9.6753294 C 14.934378,8.1379816 17.5166,7.1358752 18.790681,7.6071881 l 0.951033,0.3518102 -1.159656,0.4042581 c -0.63781,0.222342 -1.851711,0.8738995 -2.697556,1.4479057 -0.845845,0.5740059 -1.9913,1.0436479 -2.545455,1.0436479 h -1.007555 z"
         id="path17"
         inkscape:connector-curvature="0"
         transform="matrix(0.0012283,0,0,-9.504499e-4,0.01256429,0.77889925)" /></g></g></svg>