<?xml version="1.0" encoding="UTF-8" standalone="no"?>
<!-- Created with Inkscape (http://www.inkscape.org/) -->

<svg
   xmlns:dc="http://purl.org/dc/elements/1.1/"
   xmlns:cc="http://creativecommons.org/ns#"
   xmlns:rdf="http://www.w3.org/1999/02/22-rdf-syntax-ns#"
   xmlns:svg="http://www.w3.org/2000/svg"
   xmlns="http://www.w3.org/2000/svg"
   xmlns:sodipodi="http://sodipodi.sourceforge.net/DTD/sodipodi-0.dtd"
   xmlns:inkscape="http://www.inkscape.org/namespaces/inkscape"
   version="1.1"
   id="svg3823"
   xml:space="preserve"
   width="113.10463"
   height="115.08746"
   viewBox="0 0 113.10463 115.08746"
   sodipodi:docname="2.svg"
   inkscape:version="0.92.2 5c3e80d, 2017-08-06"><metadata
     id="metadata3829"><rdf:RDF><cc:Work
         rdf:about=""><dc:format>image/svg+xml</dc:format><dc:type
           rdf:resource="http://purl.org/dc/dcmitype/StillImage" /><dc:title></dc:title></cc:Work></rdf:RDF></metadata><defs
     id="defs3827" /><sodipodi:namedview
     pagecolor="#ffffff"
     bordercolor="#666666"
     borderopacity="1"
     objecttolerance="10"
     gridtolerance="10"
     guidetolerance="10"
     inkscape:pageopacity="0"
     inkscape:pageshadow="2"
     inkscape:window-width="1440"
     inkscape:window-height="842"
     id="namedview3825"
     showgrid="false"
     inkscape:zoom="3.5757576"
     inkscape:cx="89.633114"
     inkscape:cy="78.779599"
     inkscape:window-x="0"
     inkscape:window-y="0"
     inkscape:window-maximized="0"
     inkscape:current-layer="g3833"
     fit-margin-top="0"
     fit-margin-left="0"
     fit-margin-right="0"
     fit-margin-bottom="0" /><g
     id="g3831"
     inkscape:groupmode="layer"
     inkscape:label="Button Bush_Frog Fruit"
     transform="matrix(1.3333333,0,0,-1.3333333,-549.11426,276.39662)"><g
       id="g3833"
       transform="matrix(610.6,0,0,789.1,0.7,1.4)"><path
         style="fill:#000000;stroke-width:0.0005787"
         d="m 0.79737179,0.24366033 0.003345,4.5072e-4 c 3.7895e-4,-0.008163 -0.0126409,-0.009165 -0.0197463,-0.0126154 0.001303,-0.00928 0.0157538,8.8339e-4 0.0186608,0.004075 l 0.006048,7.4319e-4 -0.005783,-0.007038 c -0.007102,-0.001908 0.0211588,-0.003341 -0.004281,-0.003388 l -0.0104609,-5.0257e-4 -0.002206,-4.4698e-4 c 0.00971,-0.003255 0.0230134,0.003153 0.0293087,-0.006098 l -0.002936,-6.28e-4 -0.010578,9.0787e-4 c -0.003415,-0.003002 -0.0101435,0.001438 -0.0142706,-0.001949 0.001135,-0.00316 0.0129002,0.001313 0.008779,-0.005755 0.005198,-0.004116 0.0135533,-0.004959 0.0189142,-0.008962 l -6.6748e-4,-0.002789 c -0.009382,0.002384 -0.0172434,0.00683 -0.0259632,0.0101111 -0.003405,-0.004369 0.006612,-0.005613 0.005632,-0.009795 -0.003265,-0.00101 -0.007321,0.002471 -0.006691,-0.001574 -4.3529e-4,-0.006089 0.0119556,-0.002005 0.0126109,-0.008251 -0.004842,-0.005 -0.009994,0.003197 -0.0162615,6.8684e-4 0.001305,-0.005285 0.009308,-0.008443 0.008071,-0.0141826 -0.005545,0.001914 0.001165,-0.007963 -0.004162,-0.004818 -5.0303e-4,0.005134 -0.0102913,0.009134 -0.00623,0.0147541 -0.006587,-0.002578 -0.009041,-0.0105398 -7.771e-4,-0.0132486 l -0.001051,-0.001426 -0.006295,0.004121 c -0.006637,0.004136 -0.00515,-0.006716 -0.003597,-0.007736 L 0.76614147,0.163208 c -0.009104,-0.004727 -0.007269,0.005884 -0.008472,0.009014 -0.003585,-0.001134 -0.010913,-4.848e-4 -0.007214,-0.005486 l -0.001012,-0.007542 c -0.00648,-0.004026 -0.001832,0.005216 -0.003128,0.006367 l 2.3664e-4,0.003758 c -0.003477,0.003302 -0.001815,-0.005151 -0.001946,-0.006045 l -0.001001,-0.002214 -0.003586,0.005673 -0.001337,0.00454 c -0.005814,-0.005657 0.001677,-0.013976 -0.005459,-0.0197309 -0.001729,0.006724 2.4191e-4,0.0136878 -2.564e-4,0.0205227 -0.00549,0.002201 -0.003578,-0.0109413 -0.009024,-0.00599 -0.001303,0.002681 0.003589,0.0144953 -0.001854,0.003329 l -0.002845,-0.005278 c -0.004004,-0.005313 -0.007819,0.007398 -0.00182,0.006618 l 0.00198,0.005276 c -0.005778,0.003729 -0.00188,-0.006583 -0.009432,-0.004812 l -2.579e-4,0.003431 0.00155,0.004782 c -0.004179,-0.002306 -0.005574,-0.013176 -0.0128045,-0.008614 0.002082,0.003972 0.007056,0.006839 0.008193,0.0111531 l -0.004229,-0.001871 -0.009464,-0.001684 c -0.002958,0.006551 0.015771,0.004594 0.009321,0.0109354 -0.008118,3.0267e-4 -0.0107558,-0.008416 -0.0195441,-0.007453 l -7.6822e-4,0.003328 c 0.008351,-2.7185e-4 -0.005604,0.006831 0.0047,0.00631 l 0.008032,0.002047 0.006004,0.002064 c 0.001002,0.00866 -0.0143899,0.004234 -0.019914,0.008351 l 0.009331,0.00156 0.007974,-1.6107e-4 c 0.005533,0.004036 0.002724,0.0140963 -0.008609,0.011303 l -0.007355,0.002621 c -4.075e-4,0.007153 0.0126478,-0.002411 0.0147928,-2.6054e-4 l 0.005589,-0.001425 c 0.003483,0.003372 0.003399,0.0113147 -0.003157,0.0115746 0.004388,-0.0037 -0.008751,-0.0127549 -0.005297,0.001837 l -0.002612,0.006527 -0.00204,0.004884 0.001788,9.7089e-4 c 0.004483,-0.004161 0.0113188,-0.0157582 0.0167257,-0.0164853 l -0.002298,0.004747 1.6016e-4,0.005842 0.002981,-0.003702 0.002131,-0.003428 c 0.0101965,0.004521 -0.0133954,0.004395 -0.00299,0.0119672 l -0.001228,0.008303 0.001526,8.2289e-4 c 0.004304,-0.004945 0.003166,-0.0111567 0.006497,-0.0163574 0.006951,0.001536 -0.0102868,0.009687 -2.6835e-4,0.0117927 l -3.9745e-4,0.005291 c -0.005482,0.002248 0.003648,0.00916 0.005087,0.001106 0.002854,-0.00383 0.004058,-0.00817 0.006112,-0.0122665 0.0107189,0.002297 -0.002674,0.009837 0.002013,0.0140945 l 0.004424,-0.006579 0.002871,-0.004638 c 0.003883,0.004735 0.00385,0.0104309 0.002569,0.0154847 l 0.002448,0.001514 c 0.006434,-0.003935 2.4316e-4,-0.0105082 0.004558,-0.014941 l 8.0003e-4,0.004141 0.00196,0.009208 c 0.004904,-0.003583 -9.4481e-4,-0.009022 0.00348,-0.012492 0.001624,6.5181e-4 0.006334,0.006732 0.006844,0.001501 l 0.002231,-0.002242 c 0.001933,0.004342 -0.002965,0.009681 0.001326,0.0136398 l 0.002682,-0.004095 c 0.001154,-0.006865 -6.6126e-4,0.0114645 0.004818,0.001473 8.982e-4,-0.004218 2.2015e-4,-0.008556 -0.001456,-0.0126949 0.005557,0.003995 0.006283,0.0104672 0.0124745,0.0140535 0.003697,-0.005634 -0.005713,-0.0106205 -0.007816,-0.015514 0.002573,-0.004199 0.0112872,-0.00408 0.0157704,-0.005878 l 0.007247,0.002354 z m -0.0861305,-0.0464753 0.006574,-0.001744 c -0.004628,-0.001076 -0.0131501,-0.003713 -0.008418,-0.006593 0.004007,0.002074 0.0114287,0.0011 0.0104183,0.006511 1.2639e-4,0.004968 0.008752,0.007068 0.0133088,0.009401 0.006732,3.8388e-4 -0.003329,-0.009966 0.005366,-0.004953 l 0.004321,6.5354e-4 c 0.002129,-0.004867 -0.009235,-0.004538 -0.008366,-0.008837 -1.074e-4,-0.004822 -0.002843,-0.009487 -0.003362,-0.0143048 0.003867,0.002191 0.006757,-0.00446 0.008465,4.7122e-4 -0.002344,0.003226 0.005554,0.0120727 0.004069,0.001721 4.4737e-4,-0.001434 -0.001064,-0.00494 0.002294,-0.003291 0.00513,-1.0856e-4 0.006767,0.001148 0.005595,0.004228 l -3.508e-5,2.9565e-4 c -4.679e-4,0.003942 -9.436e-4,0.008022 -0.00424,0.0112304 -0.007623,0.001835 0.008099,-0.0109857 0.001096,-0.009795 l 3.308e-5,-0.004307 c -0.008913,-0.002867 -7.263e-4,0.0131995 -0.006787,0.0133772 -3.5576e-4,0.008645 0.0131402,9.7894e-4 0.0185869,0.00253 l 0.006864,-0.002029 c -0.003015,-7.8542e-4 0.005929,-0.006128 0.006203,-0.002356 0.003229,0.002307 -0.004381,0.00344 6.7256e-4,0.005798 0.005857,-0.002121 -0.004505,0.002768 -0.003218,0.003479 -0.00747,0.001265 -0.0152441,-0.00484 -0.0219967,0.001491 0.007465,0.004314 -0.013298,-1.8594e-4 -9.7847e-4,0.006462 -4.8092e-4,0.002402 -0.0131334,0.004766 -0.001676,0.008813 0.004834,-0.007398 0.0227353,-0.010693 0.0312887,-0.003886 -0.004606,4.423e-5 -0.009221,3.6598e-4 -0.0136914,0.001029 0.020427,0.0016 0.00624,0.0266463 -0.006309,0.0259868 -0.003785,-0.001401 -0.002805,-0.00762 0.002435,-0.005838 0.014852,-0.001206 -0.003164,-0.007409 -0.007766,-0.0121104 -0.008224,-3.053e-5 -0.0120138,-0.0104976 -0.0219702,-0.005993 -0.006598,7.2397e-4 -0.0139008,-2.1603e-4 -0.0190627,0.003326 -0.002102,-0.005252 -0.008135,-0.0117202 -0.001247,-0.0160609 -6.1592e-4,-0.002312 -0.009541,-0.005832 0.001534,-0.004702 z m 0.00188,0.008837 c 0.006066,0.001457 0.013089,0.003949 0.0189535,0.001186 -0.002955,-0.004537 -0.0118497,-0.004391 -0.0174202,-0.004432 l -0.001534,0.003249 z m 0.002041,0.006466 c 0.005608,0.002522 0.0141693,0.00267 0.0184654,-6.1194e-4 0.001144,-0.002386 -0.003634,-0.001283 -0.00558,-0.001848 -0.004232,-3.4055e-4 -0.008465,-8.1599e-4 -0.0126933,-1.8626e-4 z m 0.0212022,-0.003349 c 0.007656,0.002308 -0.00166,-0.005986 0,0 z m 0.001389,-0.003817 0.003618,-0.001267 -0.003016,-0.001887 -6.0076e-4,0.003145 z m 0.0129165,0.0130136 c 0.00526,0.003378 0.0106002,0.007982 0.0184364,0.007049 7.0492e-4,-0.005622 -0.0115828,-0.004283 -0.0133251,-0.009164 l -0.00597,-9.8936e-4 8.5966e-4,0.003107 z m -0.0366541,-0.0336462 0.001546,0.002624 c -0.002312,-3.383e-5 -0.001673,-0.001537 -0.001546,-0.002624 z m 6.1092e-4,0.0370482 c 0.002855,-0.005545 0.0126694,-0.001158 0.0178665,-0.004424 0.0117077,5.0652e-4 0.0140799,0.0110514 0.0179852,0.0173756 0.004793,0.007346 -0.0127927,-3.608e-4 -0.00645,-0.003349 l -0.003007,-0.003215 c -0.002995,0.00154 -4.4919e-4,0.006518 -0.001929,0.008054 -0.009335,-0.002457 -0.0206102,-0.007641 -0.0244659,-0.014444 z m 0.0161106,5.4461e-4 c -6.812e-5,0.00301 0.002218,0.0139862 0.00747,0.007908 l -0.001043,-0.004777 -0.003922,-0.007378 c -0.002125,8.4143e-4 -0.002313,0.002634 -0.002505,0.004249 z m -0.0104578,-0.0417025 c 0.0100196,-4.9316e-4 0.007852,0.009713 0.009704,0.0137465 0.001395,0.003863 -1.3799e-4,0.004928 -0.003151,0.001795 -0.005053,-0.004095 -0.004466,-0.009756 -0.007995,-0.0143531 l 0.001442,-0.001187 z m 6.4571e-4,0.0585427 c 0.001564,0.001465 -0.002235,0.006961 -0.001037,0.001149 l 0.001037,-0.001153 z m 0.0335964,-0.0561764 0.001074,-0.00407 c 8.9766e-4,0.001681 -0.002052,0.008833 0.003906,0.003556 l 0.002059,-0.001065 0.001386,0.004727 -0.007428,0.004854 c -0.00751,0.00213 0.003783,-0.007442 -9.9814e-4,-0.007995 z m 0.007226,0.0177811 0.003468,0.001215 c -0.001142,0.001274 -0.007782,-4.4789e-4 -0.003468,-0.001215 z m 4.9099e-4,0.004224 c -0.002188,0.002872 -0.004432,-0.003064 0,0 z m 0.006409,-0.0192762 c 0.003136,8.7949e-4 -0.003302,9.5795e-4 0,0 z m 0.003836,0.0142545 0.005762,-0.001035 c 0.005052,0.006457 -0.0171734,0.00191 -0.005762,0.001035 z m 0.00697,0.006014 c 0.001933,0.001622 -0.001344,0.001399 0,0 z m -0.10553874,0.005266 c 0.006405,3.3713e-4 0.0213781,0.003488 0.0228562,-0.003962 -0.006981,-0.001436 -0.0166346,7.3884e-4 -0.0234405,0.002792 l 5.8463e-4,0.001168 z m 0.004305,-0.014063 0.009099,0.001148 0.008425,-2.0309e-4 c -0.001728,-0.004347 -0.0130191,-0.003973 -0.0176538,-0.004955 l 1.2903e-4,0.004005 z m 0.008881,0.0346865 0.006882,-0.004738 -0.007439,0.003688 5.5876e-4,0.001041 z m 0.0455946,0.0196026 c 0.007228,0.001302 -5.7713e-4,-0.010596 0,0 z m 0.0599929,-0.0509486 c 0.00753,-0.001177 0.0169599,-0.003762 0.0176903,-0.0103306 -0.007136,5.8696e-4 -0.0109683,0.006888 -0.0175923,0.008937 l -9.776e-5,0.001384 z"
         id="path3837"
         inkscape:connector-curvature="0"
         sodipodi:nodetypes="cccccccccccccccccccccccccccccccccccccccccccccccccccccccccccccccccccccccccccccccccccccccccccccccccccccccccccccccccccccccccccccccccccccccccccccccccccccccccccccccccccccccccccccccccccccccccccccccccccccccccccccccccccccccccccccccccccccccc" /><path
         style="fill:#f9f9f9;stroke-width:0.27966103"
         d=""
         id="path3850"
         inkscape:connector-curvature="0"
         transform="matrix(0.0012283,0,0,-9.504499e-4,-0.00114641,1.0019009)" /><path
         style="fill:#f9f9f9;stroke-width:0.27966103"
         d="m 50.806734,88.392928 c -1.210043,-0.787271 -1.750285,-0.97491 -2.591681,-0.900151 l -1.062977,0.09445 0.175466,-1.127395 c 0.09651,-0.620064 0.619927,-3.015103 1.163157,-5.322307 0.54323,-2.307203 1.13152,-5.481495 1.307311,-7.053982 0.373264,-3.338915 0.401767,-3.379653 3.852818,-5.506424 2.647766,-1.631733 3.478049,-2.718473 3.201836,-4.190816 l -0.175677,-0.936428 -1.831659,0.383949 c -1.007414,0.211173 -2.394708,0.713916 -3.082876,1.11721 -0.688168,0.403293 -1.328826,0.655648 -1.423684,0.56079 -0.09486,-0.09486 -0.006,-1.242648 0.197483,-2.55064 0.420968,-2.706103 0.194556,-3.647434 -0.946153,-3.933734 -0.512556,-0.128644 -1.415572,0.230267 -3.575188,1.420988 -6.832624,3.767216 -8.336978,5.498681 -8.341253,9.600528 -0.0022,2.147285 -1.000666,3.088999 -4.353046,4.105779 -1.375115,0.417072 -2.83101,0.927138 -3.235323,1.133477 -0.645574,0.329463 -0.790346,0.31413 -1.188559,-0.125889 -0.717616,-0.792957 -0.552278,-1.791377 0.455453,-2.750326 0.968845,-0.921948 3.542157,-2.296568 5.383474,-2.875766 0.615255,-0.193531 1.224125,-0.448447 1.353046,-0.566478 0.128921,-0.118031 -0.941259,-0.606272 -2.378178,-1.084982 -2.047724,-0.682199 -3.056088,-0.863632 -4.663894,-0.839159 -1.144566,0.01742 -2.185371,-0.102834 -2.354592,-0.272054 -0.217932,-0.217932 0.09123,-0.757915 1.098607,-1.918813 2.072279,-2.388095 2.175524,-2.660373 1.313762,-3.464656 -1.265364,-1.180964 -1.880456,-2.724821 -1.881667,-4.722912 -0.0012,-2.038416 0.151144,-2.588677 2.105906,-7.604658 l 1.383293,-3.549572 1.286109,0.815626 c 2.165429,1.373275 4.004289,1.770113 10.303594,2.223585 2.619907,0.188601 4.001802,0.422068 4.894068,0.826839 1.773066,0.80434 3.983669,0.759524 5.732918,-0.116223 0.760815,-0.380896 2.704698,-1.785008 4.31974,-3.120249 3.017403,-2.494646 4.633991,-3.441513 5.894049,-3.452257 0.415786,-0.0035 1.006953,-0.31891 1.398305,-0.745941 0.372892,-0.406889 2.439849,-2.147957 4.593239,-3.86904 5.975467,-4.775851 6.92609,-6.098202 5.302211,-7.375547 -0.948269,-0.745909 -3.244896,-1.21072 -4.898386,-0.991376 -1.193313,0.158298 -1.420955,0.09846 -2.061205,-0.541788 -0.597731,-0.597731 -0.719738,-0.978995 -0.719738,-2.249129 0,-1.251779 0.136421,-1.691519 0.751566,-2.422577 0.699469,-0.831271 0.843539,-0.882294 2.078332,-0.736051 1.804361,0.2137 3.237761,0.998676 5.28547,2.894493 5.689815,5.267765 8.466773,14.57177 5.869027,19.663771 -1.100418,2.156996 -3.111824,3.490575 -6.573379,4.358202 -0.764987,0.191741 -0.678656,0.242231 0.978814,0.572464 0.999788,0.199197 3.265042,0.440897 5.033898,0.537108 4.0594,0.220804 4.257227,0.279471 3.354106,0.99469 -1.156169,0.915622 -3.678739,2.10912 -5.311733,2.513126 -2.027766,0.501676 -6.119651,0.437944 -8.38983,-0.130671 -3.960367,-0.991963 -8.323783,-3.776503 -9.821415,-6.267591 -0.342745,-0.570106 -0.655747,-1.080497 -0.695559,-1.134202 -0.164407,-0.221782 -2.998579,1.524465 -3.491719,2.151389 -0.293524,0.373156 -0.53368,1.094088 -0.53368,1.602069 0,0.776129 0.25125,1.138509 1.573518,2.269489 0.865436,0.740237 2.029525,1.747254 2.586865,2.237816 l 1.013346,0.891929 -1.608051,1.437642 c -2.394626,2.140864 -2.137284,2.964149 1.018648,3.258856 1.018671,0.09512 2.071405,0.343153 2.339409,0.551176 0.453395,0.351919 0.431313,0.428094 -0.317515,1.095326 l -0.804798,0.717101 0.789145,0.823688 c 2.22104,2.318267 5.295007,2.760095 10.468755,1.504699 1.615042,-0.391883 3.691525,-0.732166 4.614407,-0.756178 l 1.677966,-0.04366 1.731756,1.678153 c 1.607122,1.557379 1.693261,1.702196 1.196843,2.012214 -0.294201,0.183732 -0.740358,0.647606 -0.991457,1.030833 -0.429129,0.654933 -0.421578,0.751665 0.125763,1.610854 1.261965,1.980973 1.274055,2.046481 0.630395,3.415807 -0.430398,0.915633 -0.763315,1.273697 -1.184247,1.273697 -1.590054,0 -4.298686,-2.163075 -4.088096,-3.264693 0.109888,-0.574852 -0.130529,-0.735861 -2.424909,-1.623992 -1.905971,-0.737782 -2.970683,-0.985665 -4.230933,-0.985036 -0.942161,5.6e-4 -3.09816,-0.358209 -4.894068,-0.814194 -4.352359,-1.105072 -5.33181,-1.232908 -6.675044,-0.871214 -1.344608,0.362066 -2.029595,1.244917 -2.25866,2.911084 -0.141461,1.028977 -0.06378,1.242652 0.725933,1.996791 0.758122,0.72397 0.913068,1.112696 1.085568,2.723482 0.189829,1.772611 -0.06974,4.947603 -0.342769,4.192602 -0.225183,-0.622707 -1.130555,-0.371172 -1.883095,0.523168 -1.176189,1.397824 -1.612665,2.724303 -1.654176,5.027166 -0.03499,1.940898 -0.395148,3.049242 -0.990868,3.049242 -0.101713,0 -0.87285,-0.447569 -1.713638,-0.994597 z m 3.918857,-27.778849 0.972982,-0.82099 -1.645209,-0.727591 c -0.904865,-0.400173 -1.663808,-0.694496 -1.68654,-0.654052 -0.02273,0.04045 0.07034,0.858727 0.206835,1.818404 0.276891,1.94684 0.295986,1.950252 2.151932,0.384229 z M 40.86175,60.820958 c 3.320431,-0.560726 5.878164,-2.005631 6.88694,-3.890546 0.262786,-0.491021 0.17488,-0.611532 -0.718313,-0.984731 -2.992817,-1.250479 -5.966702,-1.085303 -11.413172,0.633913 -1.71536,0.541466 -3.163234,1.026339 -3.217498,1.077495 -0.05426,0.05116 0.179273,0.928203 0.518969,1.948991 l 0.61763,1.855979 2.836963,-0.181103 c 1.56033,-0.09961 3.580147,-0.306607 4.488481,-0.459998 z m 12.232905,-4.71127 c 1.146283,-1.146283 1.025875,-2.116089 -0.255461,-2.057556 -1.505095,0.06876 -1.743368,0.265706 -1.743368,1.441024 0,1.739413 0.669455,1.945906 1.998829,0.616532 z m -8.710694,-2.39401 c 4.897744,-0.488926 5.464902,-0.729818 4.743659,-2.014804 -0.593735,-1.057811 -3.152079,-2.284307 -5.533816,-2.652965 -2.394378,-0.370616 -5.356416,-10e-4 -7.824179,0.976202 l -1.593291,0.630954 -0.08324,1.586559 c -0.07679,1.46365 -0.03346,1.596084 0.559322,1.7095 1.434973,0.274558 5.642374,0.172764 9.731544,-0.235446 z m 22.787862,-6.624326 c 0.02595,-0.03986 0.319907,-0.52641 0.653202,-1.081225 0.656104,-1.092177 2.287909,-2.07315 5.990302,-3.601119 2.592103,-1.069754 3.672215,-2.00872 4.151725,-3.609181 0.469665,-1.567597 0.145826,-1.788175 -2.323958,-1.582936 -3.425926,0.284696 -5.72024,1.49196 -10.461767,5.504967 -1.933704,1.636599 -2.321463,2.11102 -2.586864,3.165022 -0.617517,2.452389 -0.664533,2.412127 2.108977,1.806037 1.331645,-0.291002 2.442417,-0.561706 2.468383,-0.601565 z"
         id="path14"
         inkscape:connector-curvature="0"
         transform="matrix(0.0012283,0,0,-9.504499e-4,0.67333067,0.26092697)" /><path
         style="fill:#f9f9f9;stroke-width:0.27966103"
         d="m 47.040741,45.116731 c -0.95026,-0.506659 -1.771133,-0.621889 -5.45339,-0.765515 -4.812526,-0.187713 -5.84545,-0.469531 -7.074498,-1.930172 -0.415806,-0.494156 -0.754983,-0.983196 -0.753728,-1.086755 0.0057,-0.467072 1.662196,-2.992735 2.926211,-4.461496 2.716632,-3.156672 6.687838,-6.101169 11.192558,-8.298851 3.008678,-1.46782 5.502317,-2.435938 5.718212,-2.22001 0.08608,0.08609 0.16365,1.56181 0.172389,3.279381 0.01634,3.211147 0.418369,4.800823 1.214128,4.800823 0.210924,0 0.892654,-0.720063 1.514955,-1.600141 1.070709,-1.51423 1.106222,-1.628024 0.661462,-2.119478 -1.120777,-1.238444 -0.227651,-3.299414 2.134952,-4.926601 2.631919,-1.812672 4.58388,-1.573187 3.890215,0.477288 -0.594585,1.757589 -3.965255,9.752209 -4.825126,11.444326 -1.831462,3.60408 -3.936155,5.912052 -6.424272,7.044752 -2.183045,0.993818 -3.523694,1.093105 -4.894068,0.362449 z m 3.433045,-3.708537 c 1.008293,-2.415271 1.679698,-4.542399 2.019553,-6.398289 l 0.509109,-2.780164 -0.925345,-0.925345 c -1.577312,-1.577312 -2.847086,-1.070151 -4.033008,1.610824 -0.667546,1.509096 -1.427824,5.625971 -1.41057,7.638176 0.01902,2.218973 1.198435,4.850051 2.047256,4.56711 0.155409,-0.0518 0.962262,-1.722343 1.793005,-3.712312 z"
         id="path16"
         inkscape:connector-curvature="0"
         transform="matrix(0.0012283,0,0,-9.504499e-4,0.67333067,0.26092697)" /><path
         style="fill:#f9f9f9;stroke-width:0.27966103"
         d="m 57.45791,88.679628 c -0.07443,-0.389343 -0.04867,-1.112966 0.05725,-1.608051 0.181791,-0.849772 0.204532,-0.864038 0.406312,-0.254896 0.266523,0.804591 1.262522,1.204606 2.306599,0.926382 0.783153,-0.208694 0.797008,-0.248188 0.87695,-2.499892 0.07888,-2.221884 0.101058,-2.287849 0.769068,-2.287849 1.207301,0 0.888795,-1.367901 -1.269785,-5.45339 -2.140899,-4.052025 -2.360701,-4.894068 -1.277518,-4.894068 1.901819,0 3.664673,5.251485 4.237916,12.624613 0.187012,2.405373 0.184287,2.419362 -0.567283,2.911809 -0.617062,0.404315 -3.778521,1.167786 -5.087208,1.228527 -0.174335,0.0081 -0.377869,-0.303841 -0.452297,-0.693185 z"
         id="path18"
         inkscape:connector-curvature="0"
         transform="matrix(0.0012283,0,0,-9.504499e-4,0.67333067,0.26092697)" /><path
         style="fill:#f9f9f9;stroke-width:0.27966103"
         d="m 33.208718,78.706996 c -0.0062,-0.413909 0.123023,-0.835515 0.28707,-0.936902 0.526805,-0.325584 0.596599,0.07953 0.154307,0.895673 l -0.43018,0.793792 z"
         id="path22"
         inkscape:connector-curvature="0"
         transform="matrix(0.0012283,0,0,-9.504499e-4,0.67333067,0.26092697)" /><path
         style="fill:#f9f9f9;stroke-width:0.27966103"
         d="m 70.392436,59.343942 c 0,-0.219734 0.206749,-0.606265 0.459443,-0.858959 0.416455,-0.416455 0.500306,-0.41858 0.896175,-0.02271 0.395869,0.395869 0.385589,0.475406 -0.109867,0.850065 -0.699147,0.528688 -1.245751,0.542556 -1.245751,0.0316 z"
         id="path24"
         inkscape:connector-curvature="0"
         transform="matrix(0.0012283,0,0,-9.504499e-4,0.67333067,0.26092697)" /><path
         style="fill:#f9f9f9;stroke-width:0.27966103"
         d="m 71.111172,62.851416 c -0.266639,-0.431432 0.634847,-0.934335 1.938196,-1.081241 1.582886,-0.178414 1.651556,0.27216 0.134019,0.879358 -1.26838,0.507505 -1.848406,0.564013 -2.072215,0.201883 z"
         id="path26"
         inkscape:connector-curvature="0"
         transform="matrix(0.0012283,0,0,-9.504499e-4,0.67333067,0.26092697)" /><path
         style="fill:#f9f9f9;stroke-width:0.27966103"
         d="m 82.55769,64.488397 c -1.076695,-0.277411 -2.279655,-0.514652 -2.673243,-0.527204 -0.393589,-0.01255 -0.959903,-0.2092 -1.258475,-0.436997 -0.470359,-0.358863 -0.486834,-0.452246 -0.123367,-0.699226 1.484879,-1.008991 5.760442,-1.285759 6.701817,-0.433825 0.86731,0.784904 0.700453,2.698767 -0.229619,2.633753 -0.252717,-0.01767 -1.340418,-0.259091 -2.417113,-0.536501 z"
         id="path28"
         inkscape:connector-curvature="0"
         transform="matrix(0.0012283,0,0,-9.504499e-4,0.67333067,0.26092697)" /></g></g></svg>