<?xml version="1.0" encoding="UTF-8" standalone="no"?>
<!-- Created with Inkscape (http://www.inkscape.org/) -->

<svg
   xmlns:dc="http://purl.org/dc/elements/1.1/"
   xmlns:cc="http://creativecommons.org/ns#"
   xmlns:rdf="http://www.w3.org/1999/02/22-rdf-syntax-ns#"
   xmlns:svg="http://www.w3.org/2000/svg"
   xmlns="http://www.w3.org/2000/svg"
   xmlns:sodipodi="http://sodipodi.sourceforge.net/DTD/sodipodi-0.dtd"
   xmlns:inkscape="http://www.inkscape.org/namespaces/inkscape"
   version="1.1"
   id="svg29"
   xml:space="preserve"
   width="356.2421"
   height="284.34341"
   viewBox="0 0 356.2421 284.34341"
   sodipodi:docname="2.svg"
   inkscape:version="0.92.2 5c3e80d, 2017-08-06"><metadata
     id="metadata35"><rdf:RDF><cc:Work
         rdf:about=""><dc:format>image/svg+xml</dc:format><dc:type
           rdf:resource="http://purl.org/dc/dcmitype/StillImage" /><dc:title></dc:title></cc:Work></rdf:RDF></metadata><defs
     id="defs33" /><sodipodi:namedview
     pagecolor="#ffffff"
     bordercolor="#666666"
     borderopacity="1"
     objecttolerance="10"
     gridtolerance="10"
     guidetolerance="10"
     inkscape:pageopacity="0"
     inkscape:pageshadow="2"
     inkscape:window-width="1321"
     inkscape:window-height="815"
     id="namedview31"
     showgrid="false"
     inkscape:zoom="0.85977756"
     inkscape:cx="188.66211"
     inkscape:cy="118.8796"
     inkscape:window-x="0"
     inkscape:window-y="0"
     inkscape:window-maximized="0"
     inkscape:current-layer="g37"
     fit-margin-top="0"
     fit-margin-left="0"
     fit-margin-right="0"
     fit-margin-bottom="0" /><g
     id="g37"
     inkscape:groupmode="layer"
     inkscape:label="Button Bush_Frog Fruit"
     transform="matrix(1.3333333,0,0,-1.3333333,5.2982176,961.14255)"><g
       id="g233"
       transform="rotate(33.704509,137.12852,616.48677)"><path
         style="fill:#000000;stroke-width:0.36000657"
         d="m 179.46744,461.65347 c -15.93086,3.19901 -46.12011,26.1487 -42.8027,32.32085 -5.32871,18.62237 -17.48629,31.27729 -18.95466,52.93043 -9.81568,21.01013 -6.886,36.74394 -4.63655,49.91962 -11.63298,2.08323 -23.661834,-11.05881 -34.149988,-8.15571 -3.716722,-5.12915 -26.008995,-24.73828 -22.634575,-10.50213 10.57608,0.50668 21.383028,19.72829 32.641149,14.42238 8.212997,5.08969 15.006714,12.06218 24.467534,9.92293 7.02367,8.37393 15.82468,7.81209 22.13694,20.59157 -2.41065,-3.82714 -15.03517,-3.35368 -5.29879,1.52296 15.76612,9.60966 33.20895,-9.9979 50.24725,-0.54677 14.37591,0.86801 25.91613,7.25972 40.20465,8.26504 -7.16288,9.17486 12.85313,5.31064 16.16283,11.44984 14.82474,11.35988 -10.39437,12.40386 -16.21729,13.77847 -8.53222,9.67989 -19.92015,0.16619 -30.67838,-0.55892 -9.73778,10.62523 -17.53307,-12.99332 -27.64125,-5.65785 -12.61719,-7.89415 -22.29758,-27.76448 -38.74251,-20.14887 -19.05609,-0.76235 -33.177498,-10.671 -52.157999,-11.81836 -8.09735,-6.52585 -21.614446,-3.25109 -26.548522,-16.83387 -0.129361,-1.45194 -15.131767,-11.35436 -4.12155,-8.44258 0.01759,3.59041 12.981112,-1.19154 2.95103,-2.78552 -6.265611,1.07318 -12.208886,1.80704 -9.499776,-9.24667 6.240455,-8.123 24.441769,6.88884 22.094684,-3.91394 -11.139726,-9.7154 -36.50753,-1.79915 -23.548217,18.35289 7.840104,7.15714 7.023304,17.43358 17.906334,18.21716 12.849405,7.92967 15.632703,10.55421 29.955242,8.66274 4.571562,3.30633 27.834754,8.26582 14.796914,14.73013 -11.878307,12.56089 -14.907738,31.00847 -25.164414,45.77017 4.395099,13.02804 -10.952759,21.52822 -11.857241,34.81904 8.14632,-0.42722 10.928702,-21.18813 19.155865,-26.62266 3.506065,-6.70735 -9.0922,-6.02872 -0.447099,-13.7548 5.643165,-10.06182 14.242061,-17.95676 15.09855,-28.99706 6.945209,-14.52812 17.958109,-17.45174 29.674249,-13.16534 8.12812,-0.13881 16.17925,-6.42328 21.17847,5.68152 11.59969,6.1313 12.6037,28.71377 10.7255,40.2441 -7.53865,-10.54001 0.13728,15.76148 4.49523,4.0323 2.13283,-9.97502 -3.63734,-26.21391 -2.71167,-33.28266 7.93511,9.0494 17.28554,1.4914 24.53592,11.30307 9.31159,6.82571 11.83929,-8.49151 20.47128,0.56752 6.69511,2.02798 18.71428,7.9849 17.86274,-2.51723 10.73007,0.68249 37.91104,-4.0323 21.6206,-22.87049 -12.56942,-3.39313 -19.59877,-16.76995 -33.22409,-14.34663 -13.18298,-7.42543 -31.17187,-5.80777 -43.01171,-9.54968 4.37801,-6.58899 16.72318,-20.02421 9.34609,-27.79605 8.83239,-13.33579 16.74162,-29.38967 17.52643,-44.1048 3.10429,-8.08299 12.68517,-21.31649 5.02684,-28.89035 -4.27969,2.05245 -7.51675,6.80118 -2.47473,7.06048 -2.23723,13.2493 -9.54992,22.95427 -6.9832,33.9948 -3.22458,14.016 -20.49795,26.62733 -15.2579,39.22058 -3.79976,14.24404 -20.32834,31.94277 -31.23219,25.51713 5.45388,-2.95124 10.78265,-24.53865 2.59139,-9.81246 -4.6082,20.5308 -11.47083,-11.94986 -19.53576,-12.17239 -13.93817,-10.96849 -10.94409,-33.43068 0.55225,-46.03553 -8.3732,-21.01161 12.681,-40.23488 20.26038,-60.73823 8.43397,-10.60889 -2.75287,-6.45129 33.3286,-25.97775 16.6841,-0.38432 19.75378,40.98772 16.27643,56.00385 7.43167,7.84602 3.07696,-26.05124 4.72192,-31.86328 -4.57813,-11.09595 -8.05229,-30.61585 -18.47975,-28.19276 z m -2.08886,11.09435 c 0.57573,8.26866 -1.9411,16.35796 -0.66128,24.40292 2.05772,-4.01179 5.26398,-27.4251 0.66128,-24.40292 z m -2.62986,28.97362 c -6.14037,11.40005 5.0979,10.63588 0,0 z m -2.57673,11.16734 c -2.78433,10.55098 -4.07758,21.66624 -8.73158,31.41755 6.9581,2.54958 6.5507,-15.42991 10.06013,-21.9575 0.44495,-0.9627 2.25189,-17.5742 -1.32855,-9.46005 z m -19.21174,65.52875 c -7.03094,4.00073 -1.22731,16.7881 1.2731,3.17218 l 0.13417,-4.17434 -1.40804,0.99426 z m -80.245429,23.25951 c 10.236831,2.80919 25.488886,12.71713 33.167239,9.37924 -10.940727,-3.34578 -21.826321,-9.69804 -33.167239,-9.37924 z m 48.150629,15.92482 3.47493,4.32427 0.13075,-2.82498 z m 30.15449,11.61319 c -5.68286,4.16645 8.65195,3.59829 11.8838,4.81351 5.2188,1.01005 23.30245,4.22957 10.03075,-1.26256 -7.10347,-2.81709 -14.51011,-3.61408 -21.91455,-3.55095 z m -3.80526,3.86659 c 2.71961,5.98927 2.40332,-2.30417 0,0 z m 33.14721,3.35367 c 0.17198,4.81351 13.46159,0.63057 2.43019,-0.51307 l -2.43019,0.51544 z m 10.08064,1.98064 c 1.42209,1.18365 1.43003,-0.64114 0,0 z m 14.49094,3.71667 c -0.11388,6.77047 12.1391,2.43042 2.51445,-0.17211 l -2.51445,0.17447 z m -70.60645,1.09684 c -3.21054,4.08754 -2.33433,21.44695 1.4404,9.81641 -0.41695,-1.48351 3.53782,-12.15293 -1.4404,-9.81641 z m 81.6906,2.76975 4.13804,4.15855 c 3.4969,-0.69448 -3.25877,-6.88884 -4.13804,-4.15855 z m -85.60903,19.5097 c -2.43263,3.6851 -7.73526,28.5528 -1.75242,15.87749 0.55439,-4.88453 4.58866,-11.00322 1.75242,-15.87749 z m 18.19539,20.37536 c -1.78295,9.92056 -1.12411,33.37498 -6.26109,35.65074 -10.42325,-5.46057 -12.1173,20.81883 -21.72436,25.01921 l -3.85349,2.43043 c -5.24017,-9.63649 -13.58384,14.13751 -21.367034,14.04045 -9.815578,5.85513 -21.999246,3.92183 -29.055217,-3.9455 9.432365,24.22853 34.978591,7.9131 46.194391,-5.45268 12.20492,6.69157 19.95087,-23.26188 27.36013,-28.95523 9.95632,12.67768 8.27553,-16.88438 10.74217,-24.22301 -0.61243,-4.69514 6.71763,-14.90789 3.12364,-18.34442 z m -31.65662,22.31969 c -3.6697,9.73591 5.79338,-3.39313 0,0 z M 58.377585,718.7185 c -4.540422,4.23747 6.665236,6.75176 3.835105,14.2127 -2.184116,4.71092 4.006757,43.72797 4.130099,26.1484 -5.404421,-7.50434 3.69115,-41.30407 -7.965204,-40.3611 z"
         id="path43"
         inkscape:connector-curvature="0"
         sodipodi:nodetypes="cccccccccccccccccccccccccccccccccccccccccccccccccccccccccccccccccccccccccccccccccccccccccccccccccccccccccccccccccccccccccc" /><path
         transform="matrix(0.75000002,0,0,-0.75000002,0,792.00002)"
         inkscape:connector-curvature="0"
         id="path202"
         d="m 225.46781,428.95993 c -21.32259,-11.82286 -25.7342,-15.07155 -29.09832,-21.42792 -1.0558,-1.9949 -2.49951,-4.41219 -3.20823,-5.37174 -0.70872,-0.95955 -2.25539,-3.96905 -3.43706,-6.68777 -2.08453,-4.79602 -5.52381,-11.09276 -14.29383,-26.16956 -5.58719,-9.6051 -9.48628,-17.9122 -11.369,-24.22191 -1.9813,-6.64007 -2.22631,-15.27071 -0.61231,-21.56921 l 1.07898,-4.21059 -2.72009,-3.64028 c -8.03152,-10.74853 -11.89925,-26.42829 -9.40578,-38.13095 1.7974,-8.43577 7.11759,-16.80799 12.1984,-19.19625 3.50095,-1.64565 6.35819,-5.09497 11.14507,-13.45459 4.60003,-8.03331 7.41935,-11.65793 9.06783,-11.65793 1.3644,0 3.04599,2.61515 4.05517,6.30643 0.74738,2.73372 3.94171,8.32952 5.19811,9.10602 3.86922,2.39131 -0.5679,-12.62351 -5.33489,-18.05282 l -1.75536,-1.99924 1.54637,-0.58792 c 2.6702,-1.01521 7.90476,-0.66469 11.37097,0.76144 10.51794,4.32747 22.27936,17.96991 26.78671,31.07075 0.8342,2.42465 0.92296,3.42703 0.42892,4.84422 -0.34261,0.98283 -0.50495,3.79536 -0.36074,6.25007 0.3337,5.6802 2.75981,11.02668 10.26921,22.63055 2.94752,4.55463 6.5438,10.73155 7.99172,13.72647 l 2.63259,5.44533 0.13012,8.37226 0.13011,8.37226 3.88314,11.63092 c 2.13573,6.397 4.24965,13.21634 4.69759,15.15409 l 0.81444,3.52318 -1.66705,0.95675 c -2.28662,1.31234 -2.11327,2.87893 0.65032,5.87708 2.29702,2.49197 2.32061,2.56464 2.68627,8.27403 0.2029,3.16799 0.0753,9.44713 -0.28346,13.95365 -2.19271,27.54021 -9.51642,43.72375 -20.71269,45.76974 -1.43899,0.26296 -3.62942,-0.72626 -12.50323,-5.64656 z m 13.44973,-3.62915 c 1.83861,-2.21985 0.0397,-24.67028 -2.46482,-30.75998 l -0.70541,-1.71526 -0.59267,2.57898 c -0.43338,1.8858 -0.32787,5.87168 0.39254,14.82942 0.54186,6.73774 0.98178,13.10095 0.9776,14.14046 -0.008,2.09952 1.074,2.5186 2.39276,0.92638 z m -4.44278,-41.86284 c 0.7652,-3.01367 0.30632,-6.45425 -0.96864,-7.26262 -3.26957,-2.07303 -4.27879,2.76478 -1.84543,8.84633 1.11904,2.79676 1.79899,2.4141 2.81407,-1.58371 z m -2.18884,-15.76425 c -0.23126,-5.44707 -0.62081,-8.18634 -1.46796,-10.32244 -0.63424,-1.59925 -1.85177,-6.17892 -2.70562,-10.17705 -2.8757,-13.46535 -4.82425,-17.44637 -8.53929,-17.44637 -0.91594,0 -1.66534,0.16005 -1.66534,0.35569 0,0.19563 0.89563,2.74716 1.99029,5.67007 2.08602,5.56999 4.2084,13.59038 7.3311,27.70389 2.01388,9.10203 2.97862,11.63092 4.43706,11.63092 0.82599,0 0.898,-0.86145 0.61976,-7.41471 z m -26.33398,-85.48723 c -0.68049,-6.39923 -2.27847,-10.03166 -4.41311,-10.03166 -2.32056,0 -2.98415,5.56738 -1.10307,9.25459 1.0083,1.97644 4.13248,4.66593 5.45116,4.6927 0.26535,0.005 0.29461,-1.75664 0.065,-3.91563 z"
         style="fill:#87de87;stroke-width:0.58154577" /><path
         transform="matrix(0.75000002,0,0,-0.75000002,0,792.00002)"
         inkscape:connector-curvature="0"
         id="path204"
         d="m 75.428999,283.02568 c 0,-3.94794 -2.486184,-4.31048 -12.256823,-1.78733 -13.222002,3.41443 -17.954355,1.53699 -17.974984,-7.1311 -0.0071,-2.97339 0.235569,-3.88607 1.389953,-5.22812 1.386772,-1.61222 1.457464,-1.62593 8.410839,-1.63168 5.996367,-0.005 7.162884,-0.15854 8.051593,-1.06009 0.999008,-1.01344 0.978613,-1.10701 -0.526375,-2.41478 -0.861111,-0.74826 -2.656414,-1.54476 -3.989564,-1.76999 -1.970525,-0.33292 -2.733838,-0.18038 -4.080868,0.81552 -1.656632,1.2248 -5.193331,1.69689 -5.193331,0.69322 0,-0.29251 2.361943,-2.69056 5.248761,-5.32901 3.565099,-3.25836 5.620654,-5.63789 6.408123,-7.41809 1.607059,-3.63303 4.643253,-7.17312 7.998922,-9.32644 1.559959,-1.00103 6.815285,-3.10976 11.678504,-4.68609 4.863218,-1.57632 10.204897,-3.6314 11.870397,-4.56685 2.023525,-1.13653 4.282283,-1.83578 6.808229,-2.10764 6.430405,-0.69207 16.387845,-3.15577 28.654615,-7.08981 14.22149,-4.56093 23.49344,-6.90333 30.75957,-7.7709 4.64912,-0.55509 5.82536,-0.51483 8.0532,0.27568 7.06186,2.50578 14.54999,1.34576 21.57893,-3.3429 2.04063,-1.3612 7.89736,-6.42123 13.01497,-11.24451 5.1176,-4.82328 10.56498,-9.72919 12.10529,-10.90202 2.69597,-2.05279 2.86321,-2.10003 4.4781,-1.26494 4.0017,2.06936 8.99541,0.41896 15.85674,-5.24058 6.1966,-5.11125 8.99934,-6.68594 11.90008,-6.68594 2.65258,0 5.22239,1.02326 6.53164,2.6008 1.07261,1.29242 4.09758,0.77994 14.84282,-2.51457 7.72138,-2.3674 9.35766,-2.6762 14.24787,-2.68887 5.96662,-0.0155 7.5251,0.50034 11.1869,3.70247 1.64502,1.43851 2.93677,1.83078 9.69551,2.94424 15.50135,2.55374 20.28464,5.10707 19.01843,10.15206 -0.19355,0.77117 -2.11922,3.13438 -4.27926,5.25158 -4.27341,4.18867 -6.28327,5.06775 -16.11826,7.04987 -7.85624,1.58333 -10.08615,3.55211 -8.2323,7.26825 1.19784,2.40113 1.2337,2.29001 -0.73895,2.29001 -3.08671,0 -11.29602,1.76539 -23.0353,4.95369 -12.83254,3.48522 -18.23263,4.70047 -24.39056,5.48891 -2.25785,0.28909 -6.0679,1.23623 -8.46678,2.10477 -3.6594,1.32491 -5.25104,1.57076 -9.88628,1.52708 -5.75565,-0.0542 -8.76313,-0.68971 -24.13415,-5.09946 -6.69092,-1.91955 -8.32898,-2.1731 -14.24787,-2.20542 -5.65159,-0.0308 -7.20475,0.16877 -10.02446,1.28841 -4.72684,1.87693 -8.87578,4.77036 -8.87578,6.18989 0,0.99654 0.44709,1.1886 3.12225,1.34127 1.71724,0.098 3.91867,-0.0995 4.89206,-0.43879 0.97339,-0.33932 1.88953,-0.49722 2.03587,-0.35089 0.40994,0.40994 -3.56274,5.56198 -6.37227,8.26397 -1.38315,1.33021 -5.52431,4.37475 -9.20259,6.76565 -3.67828,2.3909 -7.93498,5.45015 -9.45934,6.79833 -2.73237,2.41658 -2.83927,2.45329 -7.56009,2.59723 -6.36346,0.19402 -9.5074,1.47795 -19.20801,7.84424 l -7.87307,5.1669 -4.66674,-0.31987 c -4.45368,-0.30526 -4.86081,-0.22669 -8.91707,1.72064 -2.33766,1.12228 -7.914043,4.85016 -12.391945,8.28418 -7.849338,6.0195 -12.768737,9.01528 -16.137895,9.82755 -1.506421,0.36317 -1.599251,0.27089 -1.599251,-1.58973 z m 28.746151,-29.48154 c 5.65415,-0.78642 11.33879,-2.50294 23.75938,-7.17432 5.50585,-2.07076 10.7303,-3.94197 11.60989,-4.15825 0.87959,-0.21629 1.59925,-0.62158 1.59925,-0.90067 0,-0.88723 -2.90903,-1.27971 -6.96494,-0.93967 -4.78071,0.4008 -9.91051,2.08347 -22.27035,7.30513 -5.19063,2.19287 -10.48429,4.318 -11.76369,4.72249 -5.364466,1.69602 -3.578302,2.20357 4.03046,1.14529 z m 59.63703,-21.83992 c 2.08611,-0.83469 2.33796,-1.14792 2.33796,-2.90773 0,-3.01329 -0.49329,-2.70825 -4.53996,2.80743 -0.93195,1.27026 -0.74347,1.27885 2.202,0.1003 z m 54.08942,-15.74349 c 5.85401,-0.95306 14.1672,-3.60623 17.3071,-5.5236 5.10661,-3.11834 -0.26517,-3.29325 -15.55635,-0.50652 -3.35843,0.61205 -8.58979,1.42269 -11.62524,1.80141 -8.24305,1.02845 -10.09987,2.14553 -7.79667,4.69054 0.9879,1.09162 1.51378,1.15613 6.61292,0.81127 3.04681,-0.20606 8.02303,-0.77896 11.05824,-1.2731 z m -19.16635,-4.59627 c 1.07386,-2.82445 -0.6399,-3.55801 -2.03039,-0.8691 -0.67521,1.30572 -0.71232,1.76629 -0.16032,1.9895 1.3275,0.53678 1.61694,0.38875 2.19071,-1.1204 z m 50.32533,-4.34612 c 1.1767,-0.97658 1.04338,-1.42837 -0.64908,-2.19951 -1.87419,-0.85393 -4.44793,-0.86312 -6.29299,-0.0225 -1.7509,0.79777 -2.37772,2.65821 -1.0319,3.06278 1.5869,0.47706 7.08452,-0.10264 7.97397,-0.84082 z m 6.35683,-2.29285 c 0.19768,-0.31985 -0.0486,-0.58155 -0.54722,-0.58155 -0.49865,0 -0.90664,0.2617 -0.90664,0.58155 0,0.31985 0.24625,0.58154 0.54722,0.58154 0.30097,0 0.70896,-0.26169 0.90664,-0.58154 z m 24.57031,-5.80909 c 2.13868,-1.30397 2.42155,-2.58871 0.76516,-3.47518 -2.96077,-1.58456 -7.59832,0.38088 -7.59832,3.22024 0,1.27342 0.24203,1.41145 2.47157,1.40949 1.43692,-0.001 3.26277,-0.48458 4.36159,-1.15455 z m 11.59932,-4.0516 c 2.24848,-1.37099 3.91719,-3.76677 3.45768,-4.96424 -0.57484,-1.49801 -1.76433,-0.98465 -4.75582,2.0525 -2.36383,2.39992 -2.72773,3.0289 -2.01355,3.48037 1.1632,0.73532 1.17704,0.73295 3.31169,-0.56863 z"
         style="fill:#87de87;stroke-width:0.58154577" /><path
         transform="matrix(0.75000002,0,0,-0.75000002,0,792.00002)"
         inkscape:connector-curvature="0"
         id="path206"
         d="m 143.5307,209.03909 c -7.12954,-1.91724 -12.92926,-6.60716 -17.64576,-14.26916 -1.75327,-2.8482 -2.77937,-5.2706 -3.04986,-7.20004 -0.81261,-5.79639 -3.68938,-11.65869 -11.63989,-23.71982 -4.2616,-6.46496 -8.51896,-12.67041 -9.46082,-13.78989 -3.69027,-4.38622 -3.648755,-5.15069 0.52828,-9.7279 3.26434,-3.57705 3.07805,-5.02991 -1.2585,-9.81513 -2.846574,-3.14107 -4.48693,-5.88318 -8.762963,-14.64864 -5.828425,-11.94772 -7.970966,-15.41292 -10.46922,-16.932194 l -1.682375,-1.023113 1.443939,-0.772776 c 1.854705,-0.992605 3.670246,-4.762371 4.379578,-9.093689 0.307187,-1.875748 0.560038,-11.148397 0.561891,-20.605887 0.004,-20.442183 0.243325,-21.795714 4.520979,-25.569357 8.938763,-7.88556 22.582231,-9.707959 33.148621,-4.42776 1.51316,0.756151 3.53629,1.563481 4.49584,1.794066 2.81117,0.675539 5.17378,2.8587 11.25492,10.400058 3.14962,3.905911 6.69079,7.948246 7.86927,8.982967 2.64063,2.318507 5.13059,2.49757 6.91245,0.497105 l 1.23295,-1.384207 3.23003,2.078857 c 6.2503,4.02271 7.26112,5.38195 13.70332,18.426703 3.31714,6.716853 6.73856,12.961146 7.60317,13.876205 2.27636,2.409216 5.0756,3.444659 7.50153,2.774828 1.58411,-0.437392 2.14277,-0.351782 2.8574,0.437881 2.54979,2.817485 3.90007,9.898163 5.28047,27.690113 1.44458,18.6191 1.37641,18.21641 3.328,19.65928 1.58818,1.17419 1.6755,1.44059 1.31982,4.02666 -0.31909,2.32009 -0.2155,2.83274 0.63865,3.16051 0.709,0.27207 1.40737,-0.0952 2.29285,-1.20566 l 1.27331,-1.59689 0.37833,3.61971 c 1.44092,13.78587 -0.82341,29.78368 -5.53729,39.12183 -1.79487,3.5556 -6.2793,8.83702 -7.95713,9.37127 -0.52616,0.16754 -1.6067,1.53181 -2.4012,3.03169 -2.00567,3.78641 -4.79861,6.31395 -7.95274,7.19706 -2.35669,0.65983 -3.56584,0.58954 -10.09175,-0.58663 -4.07784,-0.73495 -8.1651,-1.19892 -9.0828,-1.03104 -0.9177,0.16788 -3.50042,0.72101 -5.73937,1.22918 -4.97402,1.12892 -8.88782,1.13608 -13.02393,0.0238 z m 38.9042,-11.58681 c 0.67885,-1.78551 -1.17263,-13.19275 -2.58438,-15.92277 -0.99858,-1.93103 -2.31347,-2.36583 -2.8586,-0.94526 -1.32412,3.45061 -0.81026,11.85626 0.98789,16.15984 1.12824,2.70026 3.55126,3.08543 4.45509,0.70819 z m -7.4921,-30.38188 c 0.86882,-2.23304 0.33595,-7.06022 -1.49376,-13.53165 -2.80908,-9.93536 -5.55899,-13.91675 -5.549,-8.03401 0.009,5.37247 4.56546,23.16491 5.93213,23.16491 0.26862,0 0.7684,-0.71966 1.11063,-1.59925 z m -16.35276,-55.55959 c 0,-1.48774 -3.14195,-5.58656 -3.79312,-4.94829 -0.6338,0.62124 0.23134,4.37851 1.24055,5.38772 1.31212,1.31213 2.55257,1.09858 2.55257,-0.43943 z"
         style="fill:#87de87;stroke-width:0.58154577" /><path
         transform="matrix(0.75000002,0,0,-0.75000002,0,792.00002)"
         inkscape:connector-curvature="0"
         id="path214"
         d="m 229.53863,430.89472 c -10.96871,-5.77647 -24.14175,-13.85957 -27.57749,-16.9218 -3.53429,-3.15006 -7.17091,-8.90999 -13.08484,-20.7247 -1.97324,-3.94207 -6.75457,-12.70888 -10.62518,-19.48178 -11.65729,-20.39824 -14.86175,-28.35198 -15.43246,-38.30455 -0.2356,-4.10877 -0.0436,-7.12157 0.70868,-11.11792 l 1.03186,-5.48184 -2.36561,-3.13323 c -6.23254,-8.25494 -10.05752,-19.71177 -10.07209,-30.16855 -0.01,-6.91731 0.8606,-10.85865 3.6696,-16.61975 2.27285,-4.66149 5.42602,-8.35247 8.84928,-10.35863 3.6339,-2.12961 6.43705,-5.5575 11.72013,-14.33223 2.54047,-4.2195 5.49679,-8.44299 6.56958,-9.38553 1.84086,-1.61735 2.01113,-1.65888 3.02805,-0.73858 0.59263,0.53632 1.74454,2.71122 2.5598,4.83312 2.98564,7.7708 6.06748,11.73238 7.07814,9.09865 0.84421,-2.19998 -3.21483,-13.12728 -6.4535,-17.37339 -1.17053,-1.53465 -1.3562,-2.12008 -0.78445,-2.47344 1.40249,-0.86679 8.24307,-0.39436 11.2856,0.77941 8.77619,3.38574 18.71667,13.78309 24.52814,25.65549 l 2.7498,5.61764 -0.18333,6.49108 c -0.2702,9.56652 0.48271,11.43843 12.27933,30.52942 2.1066,3.40922 4.89189,8.3102 6.18953,10.89108 l 2.35935,4.69249 v 7.91903 7.91903 l 3.75438,11.72105 c 2.06491,6.44657 4.20002,13.35173 4.74467,15.34479 l 0.99029,3.62374 -1.54617,1.21622 c -2.06927,1.62769 -1.95207,2.76103 0.63463,6.1367 l 2.18079,2.84597 -0.0391,12.21246 c -0.0455,14.21731 -1.31502,23.2762 -4.68592,33.43888 -2.16644,6.53141 -3.87692,9.90141 -6.98232,13.75659 -1.98264,2.46134 -7.03644,5.44225 -9.19706,5.42475 -0.65686,-0.005 -4.2038,-1.59457 -7.88207,-3.53167 z m 9.90698,-6.69845 c 1.2672,-3.83966 -0.67047,-24.44591 -2.75567,-29.30532 -0.7866,-1.83311 -0.92123,-1.91981 -1.35453,-0.87232 -0.72819,1.76036 -0.63543,8.1006 0.30204,20.64488 0.46611,6.23708 0.85474,11.40556 0.86361,11.48553 0.009,0.08 0.51921,0.14538 1.13411,0.14538 0.76842,0 1.3345,-0.65604 1.81044,-2.09815 z m -5.24022,-38.93868 c 0.79531,-2.09183 0.70784,-8.02125 -0.13071,-8.85979 -0.99702,-0.99703 -3.1855,-0.86211 -3.60152,0.22202 -0.5857,1.52633 -0.4021,3.93755 0.54186,7.11621 0.9899,3.33337 2.26949,3.94363 3.19037,1.52156 z m -1.91342,-17.84468 c -0.20297,-4.89761 -0.66179,-8.64673 -1.2591,-10.28852 -0.51687,-1.42067 -1.8277,-6.26204 -2.91295,-10.75859 -2.41191,-9.99333 -4.08102,-14.57624 -5.72914,-15.73063 -1.24552,-0.87239 -4.48307,-1.22779 -4.48307,-0.49213 0,0.21187 1.07402,3.67934 2.3867,7.70548 1.31268,4.02615 3.79924,13.2877 5.52567,20.58123 3.26994,13.81418 4.27778,16.68865 5.85136,16.68865 0.83423,0 0.90397,-0.86605 0.62053,-7.70549 z M 206.0561,281.92569 c -0.64388,-7.00187 -3.86041,-11.73645 -5.99248,-8.82066 -1.0537,1.44102 -0.96025,5.76265 0.17641,8.15798 1.06478,2.24385 3.92325,4.87888 5.29258,4.87888 0.77911,0 0.855,-0.61122 0.52349,-4.2162 z"
         style="fill:#87de87;stroke-width:0.58154577" /><path
         transform="matrix(0.75000002,0,0,-0.75000002,0,792.00002)"
         inkscape:connector-curvature="0"
         id="path216"
         d="m 229.8294,431.04911 c -13.51101,-7.09575 -24.36998,-13.80778 -28.50467,-17.61901 -2.981,-2.74779 -6.75125,-8.75637 -11.63291,-18.53915 -1.83548,-3.67828 -6.89468,-12.96847 -11.24266,-20.64487 -8.27768,-14.61433 -12.70524,-23.79488 -14.30375,-29.65884 -1.55738,-5.71303 -1.81023,-13.90979 -0.62357,-20.21403 l 1.02636,-5.45262 -2.40028,-3.15918 c -8.77843,-11.55391 -12.50201,-29.69932 -8.52344,-41.53562 2.65178,-7.8891 5.9323,-12.38572 12.01942,-16.47505 2.98845,-2.00765 6.87655,-7.02619 11.57009,-14.93401 1.70856,-2.87865 4.11042,-6.25118 5.33745,-7.49452 2.14966,-2.17823 2.27202,-2.22346 3.35758,-1.24103 0.61965,0.56077 1.8192,2.83203 2.66569,5.04725 1.82313,4.77108 4.84645,9.50376 6.07117,9.50376 2.33135,0 -0.96788,-11.3147 -4.92015,-16.87365 -1.10012,-1.54734 -1.88567,-2.99867 -1.74568,-3.22518 0.54452,-0.88105 5.38241,-1.08098 8.77771,-0.36275 9.35643,1.97924 20.70336,12.91331 27.37946,26.38327 l 2.78445,5.618 -0.1744,5.73368 c -0.28906,9.50321 0.91315,12.74396 10.61005,28.60111 3.02455,4.94599 6.55894,11.10046 7.8542,13.67661 l 2.35503,4.6839 v 7.91657 7.91657 l 4.04603,12.59583 c 2.22531,6.9277 4.3513,13.84425 4.72441,15.3701 0.64943,2.6559 0.61327,2.83462 -0.84754,4.18844 -0.83924,0.77779 -1.5259,1.70846 -1.5259,2.06817 0,0.35971 1.04678,2.11582 2.32618,3.90249 l 2.32618,3.24847 v 8.94222 c 0,22.40924 -4.54726,41.41314 -11.98993,50.10823 -2.04932,2.39416 -7.136,5.32181 -9.20528,5.29812 -0.65686,-0.008 -4.07295,-1.5255 -7.5913,-3.37328 z m 8.86256,-5.48162 c 1.11372,-1.41398 1.25873,-3.72799 0.74462,-11.88196 -0.52875,-8.38589 -1.97572,-17.87706 -2.95839,-19.40488 -0.4718,-0.73355 -0.61724,-0.72979 -1.1152,0.0287 -0.78994,1.20333 -0.70571,7.11154 0.28187,19.77256 0.46155,5.91723 0.84664,11.08571 0.85575,11.48553 0.009,0.39981 0.37707,0.72693 0.81768,0.72693 0.44061,0 1.05876,-0.32712 1.37367,-0.72693 z M 234.1341,384.9179 c 0.80564,-2.31107 0.82504,-6.61957 0.0364,-8.0931 -0.72011,-1.34554 -2.46106,-1.4668 -3.47738,-0.24221 -1.3601,1.63882 0.56311,10.16672 2.2928,10.16672 0.28034,0 0.79701,-0.82414 1.14815,-1.83141 z m -1.91343,-17.36917 c -0.25148,-4.76368 -0.81332,-8.91345 -1.51567,-11.19476 -0.61383,-1.9938 -1.65615,-5.98035 -2.31628,-8.859 -1.89107,-8.24649 -4.09081,-14.66692 -5.57311,-16.26634 -0.88365,-0.95348 -1.98649,-1.4708 -3.13549,-1.4708 -0.97482,0 -1.77241,0.11818 -1.77241,0.26262 0,0.14445 1.06661,3.61191 2.37026,7.70548 1.30364,4.09357 3.7849,13.26239 5.51391,20.37514 3.51456,14.45815 4.39274,17.01733 5.83945,17.01733 0.90074,0 0.95332,-0.67531 0.58934,-7.56967 z m -25.94387,-83.0721 c 0,-5.08989 -2.21849,-11.41315 -4.22802,-12.05095 -4.16871,-1.3231 -3.37941,8.85232 0.95151,12.26648 2.39616,1.88895 3.27651,1.83104 3.27651,-0.21553 z"
         style="fill:#87de87;stroke-width:0.58154577" /><path
         transform="matrix(0.75000002,0,0,-0.75000002,0,792.00002)"
         inkscape:connector-curvature="0"
         id="path218"
         d="m 75.428999,282.76893 c 0,-0.89558 -0.314035,-1.94236 -0.697855,-2.32618 -1.104357,-1.10436 -5.582568,-0.82097 -12.744931,0.80651 -8.116326,1.84425 -12.093317,1.71961 -14.259826,-0.4469 -2.82415,-2.82415 -3.164055,-9.6063 -0.602072,-12.01316 1.104047,-1.0372 2.097705,-1.20942 7.473603,-1.29529 8.758201,-0.1399 11.097008,-1.63942 6.933368,-4.4453 -2.432473,-1.63924 -4.921547,-1.69228 -7.910253,-0.16855 -2.303287,1.17428 -3.780048,1.48056 -3.780048,0.78397 0,-0.20851 2.33133,-2.78899 5.180734,-5.73438 2.849404,-2.9454 5.746646,-6.46455 6.438317,-7.82034 1.777063,-3.48333 5.615479,-7.4574 8.711704,-9.0196 1.452166,-0.73268 6.173193,-2.5831 10.491171,-4.11203 4.317977,-1.52894 9.482147,-3.51012 11.475932,-4.40263 1.993786,-0.89251 6.180916,-2.05542 9.304737,-2.58424 7.21748,-1.22183 14.1226,-2.99975 26.90608,-6.92773 13.45958,-4.13573 20.14011,-5.90256 26.39113,-6.97976 6.58301,-1.13442 9.56048,-1.12186 13.61713,0.0574 2.33057,0.67751 4.48262,0.85491 7.5536,0.62265 7.95762,-0.60183 12.33679,-3.46461 29.55785,-19.32276 9.22831,-8.49796 10.40365,-9.3173 12.19489,-8.50115 4.29513,1.95699 9.14374,0.1897 17.9806,-6.55379 7.94574,-6.06348 10.68918,-6.66433 15.54085,-3.40367 2.67581,1.79833 3.99401,1.65267 14.9903,-1.65641 12.32209,-3.70806 20.62468,-3.79483 24.87585,-0.25999 2.65764,2.20982 3.87749,2.62707 12.77364,4.3692 12.13395,2.37619 15.93881,3.88385 17.02737,6.74701 0.80502,2.11734 -0.11189,3.86497 -4.07507,7.76709 -3.95202,3.89113 -6.33493,4.9853 -15.24998,7.00235 -6.85088,1.55003 -9.50645,3.12891 -9.39623,5.58654 0.0422,0.94179 0.25864,2.26143 0.4809,2.93255 0.37535,1.13335 0.13901,1.24496 -3.32061,1.56802 -3.85207,0.35971 -8.103,1.33803 -25.44205,5.85528 -5.59738,1.45825 -13.22487,3.18377 -16.94998,3.83447 -3.72511,0.65071 -8.43563,1.71508 -10.46782,2.36528 -8.36581,2.67663 -14.15133,2.22078 -30.67875,-2.41724 -15.88508,-4.45776 -24.40219,-4.45373 -32.31247,0.0153 -3.22521,1.82212 -5.33636,4.22365 -4.6662,5.308 0.3085,0.49916 1.78689,0.63178 4.98134,0.44685 4.43815,-0.25692 4.52794,-0.23547 3.90305,0.93213 -1.37023,2.56031 -6.82731,7.66039 -12.38118,11.57121 -3.1985,2.25226 -7.75535,5.55137 -10.12633,7.33136 -4.28645,3.21799 -4.34038,3.23868 -9.52035,3.65256 -6.20038,0.4954 -10.02846,2.14507 -19.84383,8.55148 l -6.3424,4.13963 -5.28852,0.008 c -5.02278,0.008 -5.49306,0.11978 -9.35933,2.22927 -2.23895,1.22161 -7.996254,5.04915 -12.794007,8.50567 -12.152152,8.75493 -16.574054,10.72952 -16.574054,7.40109 z m 34.892741,-30.27609 c 7.16775,-1.85006 30.88976,-10.63505 30.65317,-11.35181 -0.3399,-1.02975 -7.63337,-1.09548 -11.50473,-0.10369 -5.37173,1.37618 -31.073707,11.47982 -32.233215,12.67112 -0.90028,0.92497 7.992125,0.0988 13.084775,-1.21562 z m 53.81167,-20.6958 c 1.76446,-0.73724 2.01673,-1.10096 2.01673,-2.90773 0,-2.63237 -0.64523,-2.60533 -2.76127,0.11571 -3.10236,3.98935 -3.00398,4.35825 0.74454,2.79202 z m 49.88662,-15.13735 c 10.89356,-1.44989 22.78792,-5.55546 22.78792,-7.86568 0,-1.31389 -5.54585,-0.97565 -19.48178,1.18818 -14.88948,2.31189 -18.02792,3.11344 -18.02792,4.60428 0,3.09805 3.41186,3.57854 14.72178,2.07322 z m -15.32379,-4.91742 c 0.86005,-1.60702 0.74329,-2.94596 -0.25691,-2.94596 -1.06901,0 -2.86437,2.64015 -2.35539,3.4637 0.60068,0.97191 1.95916,0.70267 2.6123,-0.51774 z m 49.01569,-4.13963 c 4.00336,-1.11179 2.1549,-3.4587 -2.72411,-3.4587 -3.25189,0 -6.04074,2.23605 -4.59367,3.68312 0.58854,0.58854 4.86241,0.45747 7.31778,-0.22442 z m 7.99626,-2.87715 c 0,-0.31985 -0.39255,-0.58155 -0.87232,-0.58155 -0.47978,0 -0.87232,0.2617 -0.87232,0.58155 0,0.31985 0.39254,0.58154 0.87232,0.58154 0.47977,0 0.87232,-0.26169 0.87232,-0.58154 z m 25.17833,-6.31041 c 1.75401,-1.75401 0.77544,-3.22668 -2.29803,-3.45836 -2.86613,-0.21605 -5.43393,1.56865 -5.43393,3.77676 0,1.44476 0.0848,1.47664 3.23306,1.21556 2.29594,-0.1904 3.59997,-0.63502 4.4989,-1.53396 z m 12.03892,-4.51586 c 2.38616,-2.15575 2.99199,-4.07557 1.47038,-4.65947 -1.45397,-0.55794 -7.17454,4.94693 -6.41608,6.17415 0.71191,1.15189 2.65171,0.5578 4.9457,-1.51468 z"
         style="fill:#87de87;stroke-width:0.58154577" /><path
         transform="matrix(0.75000002,0,0,-0.75000002,0,792.00002)"
         inkscape:connector-curvature="0"
         id="path220"
         d="m 141.29756,207.96998 c -4.78465,-1.77771 -9.49553,-5.40953 -12.75232,-9.83134 -3.52851,-4.79073 -4.60554,-7.01431 -5.71026,-11.7891 -0.51073,-2.20746 -1.94213,-6.10713 -3.18089,-8.66593 -2.12767,-4.39493 -14.06924,-23.01276 -18.39032,-28.6719 -1.09527,-1.43443 -1.991395,-3.04807 -1.991395,-3.58587 0,-0.5378 1.177635,-2.49437 2.616955,-4.34794 1.61197,-2.0759 2.61105,-3.95741 2.60158,-4.8994 -0.01,-0.9669 -1.38769,-3.33372 -3.7471,-6.43609 -2.280546,-2.9987 -6.02435,-9.37763 -9.627333,-16.40366 -4.312318,-8.40928 -6.504123,-12.04657 -8.161427,-13.543845 -2.13392,-1.927871 -2.198979,-2.082777 -1.117777,-2.661415 1.612251,-0.862851 3.260324,-4.356627 3.981615,-8.440688 0.337545,-1.911234 0.741664,-11.587533 0.898043,-21.502889 0.159151,-10.091106 0.556446,-18.955958 0.902429,-20.135897 1.297963,-4.426569 9.497268,-10.084624 16.81569,-11.603923 1.76157,-0.3657 5.57317,-0.548617 8.47021,-0.406482 4.49217,0.220397 6.19522,0.627132 11.5722,2.763766 3.46767,1.377935 7.08671,3.163222 8.04231,3.967304 0.95559,0.804082 4.29809,4.503259 7.42777,8.220393 9.04736,10.745593 11.21276,12.110922 14.77001,9.312786 l 1.51829,-1.194277 3.43936,2.335625 c 4.9506,3.36189 6.86467,5.899021 11.98025,15.88004 7.41957,14.476307 8.76236,16.577573 11.47951,17.963757 1.73127,0.883228 2.98679,1.12571 4.54148,0.877099 1.63192,-0.260951 2.3751,-0.09345 3.08991,0.696395 2.34714,2.59356 3.71444,10.326761 5.31481,30.059541 1.16042,14.30806 1.29068,15.03745 2.96671,16.61201 1.12065,1.05279 1.41347,1.91302 1.41347,4.15248 0,3.23835 1.08107,4.15044 2.93295,2.47451 0.62975,-0.56991 1.31657,-0.86464 1.52628,-0.65494 0.79256,0.79257 0.36442,19.28929 -0.57489,24.83623 -1.97525,11.66446 -4.579,17.64287 -10.0796,23.14346 -2.04529,2.04529 -4.65808,5.13393 -5.80619,6.86364 -1.26238,1.90184 -3.10872,3.74341 -4.67115,4.65906 -2.32954,1.36519 -2.99519,1.48297 -6.76725,1.19738 -2.30097,-0.17421 -6.34376,-0.65368 -8.98399,-1.06549 -4.2101,-0.65668 -5.39005,-0.62655 -9.5955,0.24505 -6.74186,1.3973 -12.64331,1.25291 -17.14444,-0.41945 z m 41.3979,-10.71406 c 0.18745,-0.59059 0.0716,-2.9718 -0.25738,-5.29157 -1.18299,-8.34115 -2.58394,-12.24533 -4.39405,-12.24533 -1.51574,0 -2.14403,2.90795 -1.82992,8.46946 0.42956,7.60548 2.55238,12.06156 5.09717,10.69963 0.57385,-0.30711 1.19673,-1.0416 1.38418,-1.63219 z m -7.84259,-29.71113 c 0.99095,-1.85161 0.68782,-6.52932 -0.80429,-12.41141 -1.44376,-5.69145 -4.2475,-12.22027 -5.28149,-12.29851 -1.87221,-0.14167 0.27849,14.69836 3.30092,22.77651 1.22898,3.28473 1.83608,3.70622 2.78486,1.93341 z m -16.26283,-56.11278 c 0,-1.46342 -2.55615,-4.98776 -3.61754,-4.98776 -0.79281,0 -0.21315,4.41258 0.72874,5.5475 1.15954,1.39715 2.8888,1.06209 2.8888,-0.55974 z"
         style="fill:#87de87;stroke-width:0.58154577" /><path
         transform="matrix(0.75000002,0,0,-0.75000002,0,792.00002)"
         inkscape:connector-curvature="0"
         id="path222"
         d="m 75.428999,282.67308 c 0,-3.36891 -2.454132,-3.63083 -13.225092,-1.41148 -9.200315,1.89573 -12.485145,1.7211 -14.722258,-0.78267 -2.696226,-3.0176 -2.88269,-8.87162 -0.3707,-11.63802 1.065115,-1.17299 1.73465,-1.30882 6.466069,-1.31173 5.45474,-0.003 9.297539,-0.71757 10.003088,-1.85917 0.556991,-0.90123 -2.554148,-3.28598 -4.855401,-3.72176 -1.287349,-0.24378 -2.879698,0.0614 -5.081393,0.97399 -1.763584,0.73096 -3.380339,1.15521 -3.592787,0.94276 -0.212448,-0.21245 1.740381,-2.60144 4.339622,-5.30887 2.599239,-2.70743 5.868465,-6.70214 7.264944,-8.87713 4.536903,-7.06616 5.685012,-7.78789 22.497094,-14.14234 11.630462,-4.39596 13.632801,-5.007 20.684555,-6.31219 5.94908,-1.10109 11.00828,-2.48235 32.23611,-8.80105 9.44774,-2.81223 20.90159,-5.22954 24.78876,-5.23163 1.55907,-8.1e-4 4.64433,0.43759 6.85615,0.97429 3.30572,0.80213 4.76571,0.86859 8.20297,0.37341 7.79355,-1.12278 11.50445,-3.62032 28.72814,-19.33491 9.9676,-9.09425 9.90501,-9.05363 12.58716,-8.16844 4.36588,1.44087 8.72892,-0.27298 17.6996,-6.9526 5.57767,-4.15317 8.8789,-5.61999 11.22335,-4.98682 0.70393,0.19011 2.62263,1.04001 4.26377,1.88865 l 2.9839,1.54299 6.03006,-1.6502 c 15.04827,-4.11814 16.36816,-4.39305 21.09133,-4.39305 4.945,0 4.82038,-0.0412 12.01703,3.97343 1.41531,0.78953 5.41077,1.92871 9.55954,2.72561 12.28886,2.36044 16.63417,4.06741 17.7368,6.96755 0.80007,2.10432 -0.10549,3.96102 -3.67072,7.52625 -3.96958,3.96959 -5.21547,4.57826 -14.34827,7.00972 -7.91018,2.10596 -10.42997,3.26889 -10.54572,4.86704 -0.0978,1.35036 -0.0984,1.34441 0.32385,3.33922 l 0.38245,1.80686 -3.95275,0.40497 c -2.17401,0.22273 -11.01881,2.20546 -19.65511,4.40606 -8.6363,2.20061 -18.05762,4.43091 -20.93628,4.95623 -2.87865,0.52532 -8.37426,1.75406 -12.21246,2.73054 -8.58294,2.1836 -13.35083,2.04125 -23.84337,-0.71187 -18.43523,-4.83719 -17.74046,-4.70512 -25.00647,-4.75351 -5.83663,-0.0389 -7.478,0.1554 -10.03079,1.18726 -6.13128,2.47829 -9.64824,5.78605 -7.6232,7.16974 0.43403,0.29657 2.54951,0.43012 4.70103,0.29678 l 3.91188,-0.24244 -0.97973,1.65855 c -1.84034,3.11543 -7.42101,7.961 -17.27091,14.99592 -8.15986,5.82787 -10.20082,7.03225 -11.92169,7.03504 -7.01758,0.0114 -11.96062,1.93647 -22.31785,8.69176 l -6.2844,4.09888 -5.05574,0.0128 c -3.74633,0.009 -5.70165,0.30593 -7.54966,1.14467 -2.6507,1.20303 -9.452113,5.67539 -17.569403,11.55299 -5.340124,3.86669 -11.171098,7.06211 -12.886892,7.06211 -0.798599,0 -1.070206,-0.43758 -1.070206,-1.72418 z m 35.139381,-30.3205 c 4.32548,-1.10133 27.11206,-9.20184 29.63615,-10.53549 3.14637,-1.66244 -4.47284,-2.17157 -10.69178,-0.71443 -4.55403,1.06703 -31.985012,11.95756 -31.985012,12.69855 0,0.77571 7.636132,-0.0726 13.040642,-1.44863 z m 53.69173,-20.86961 c 1.86169,-1.1351 2.62094,-3.55683 1.35954,-4.33642 -0.45962,-0.28405 -3.08697,2.59508 -4.34938,4.7662 -0.63621,1.09415 0.83796,0.88224 2.98984,-0.42978 z m 49.18958,-14.83534 c 10.6063,-1.39036 23.06749,-5.45723 23.06749,-7.52838 0,-1.46824 -5.90104,-1.13483 -20.09941,1.13563 -14.92548,2.38673 -15.95561,2.63144 -16.78426,3.9871 -0.50162,0.82065 -0.35319,1.2481 0.74687,2.15086 1.68212,1.38041 4.12007,1.42794 13.06931,0.25479 z m -14.75345,-4.90536 c 0.93,-1.73772 0.74335,-3.05846 -0.40109,-2.83807 -1.07624,0.20727 -2.60446,2.71951 -2.12562,3.4943 0.52493,0.84934 1.91403,0.48857 2.52671,-0.65623 z m 50.59002,-5.00485 c 1.17357,-1.16407 0.17983,-2.02383 -2.80141,-2.4237 -3.73303,-0.5007 -7.3045,1.51235 -6.11056,3.44419 0.53139,0.85981 7.86267,0.0203 8.91197,-1.02049 z m 6.13115,-2.01193 c 0.19768,-0.31985 -0.0486,-0.58155 -0.54722,-0.58155 -0.49865,0 -0.90664,0.2617 -0.90664,0.58155 0,0.31985 0.24625,0.58154 0.54722,0.58154 0.30097,0 0.70896,-0.26169 0.90664,-0.58154 z m 25.11408,-6.12326 c 1.64078,-1.07509 1.73032,-2.35346 0.22139,-3.16101 -3.39598,-1.81748 -9.54766,1.87561 -7.16216,4.29973 0.64579,0.65624 5.38896,-0.12194 6.94077,-1.13872 z m 12.42183,-4.88429 c 2.35432,-2.23961 2.84727,-4.02798 1.25631,-4.55773 -0.97602,-0.32499 -6.74081,5.427 -6.24428,6.23041 0.74465,1.20486 2.62639,0.57383 4.98797,-1.67268 z"
         style="fill:#87de87;stroke-width:0.58154577" /></g></g></svg>